<svg xmlns="http://www.w3.org/2000/svg" viewBox="0 0 1867.38 1649.99"><defs><style>.cls-1{isolation:isolate;}.cls-2{fill:#50bfa5;}.cls-3{fill:#f7cc7f;}.cls-4{fill:#86b1f2;}.cls-5{fill:#f48c7f;}.cls-6{fill:#96d9c9;}.cls-7{fill:#efefef;}.cls-8{fill:#466eb6;}.cls-9{fill:#f7f7f7;}.cls-10{fill:#e3e3e3;}.cls-10,.cls-14,.cls-19,.cls-22{mix-blend-mode:multiply;}.cls-11,.cls-22{fill:#d4d4d4;}.cls-12{fill:#e0e0e0;}.cls-13{fill:#2386ad;}.cls-14{fill:#ababab;}.cls-15{fill:#82a2d1;}.cls-16{fill:#638ac2;}.cls-17{fill:#3f7885;}.cls-18{fill:#33464a;}.cls-19{fill:#c2c2c2;}.cls-20{fill:#5a818c;}.cls-21{fill:#3b3b3b;mix-blend-mode:screen;}.cls-23{fill:#486670;}.cls-24{fill:#f47458;}.cls-25{fill:#13375b;}.cls-26{fill:#f7a491;}.cls-27{fill:#355389;}.cls-28{fill:#9bc1f9;}.cls-29{fill:#184655;}.cls-30{fill:#f8a492;}.cls-31{fill:#fff;}.cls-32{fill:#0e2e35;}.cls-33{fill:#fae0b2;}.cls-34{fill:#f79c8d;}.cls-35{fill:#dd513a;}.cls-36{fill:#256653;}.cls-37{fill:#3c8f7c;}</style></defs><g class="cls-1"><g id="Layer_1" data-name="Layer 1"><polygon class="cls-2" points="629.21 139.17 635.87 122.29 623.1 108.92 631.9 90.52 613.9 80.47 622.93 59.22 607.5 47.93 612.84 26.08 621.13 28.08 617.13 44.41 633.42 56.33 624.73 76.75 643.04 86.97 633.33 107.28 645.79 120.33 639.63 135.98 649.62 142.84 644.77 149.86 629.21 139.17"/><path class="cls-3" d="M358.6,1261.38l-8-20.64-21.52-5.13a3,3,0,0,1-1.22-5.31l17.17-14-1.77-22a3,3,0,0,1,4.68-2.8l18.58,12L387,1195a3,3,0,0,1,4.11,3.59L385.4,1220l14.4,16.8a3,3,0,0,1-2.15,5l-22.09,1.2L364,1261.87A3,3,0,0,1,358.6,1261.38Z" transform="translate(-301.22 -206.54)"/><path class="cls-3" d="M482.08,1002.71a22.27,22.27,0,1,1,30.25-8.79A22.27,22.27,0,0,1,482.08,1002.71Z" transform="translate(-301.22 -206.54)"/><path class="cls-3" d="M555.41,1005c-6.16-2.37-12.41-5.44-18.84-7-5.53-1.3-8.67,6.61-3.61,9.37,6.21,3.37,13.4,5.39,20,7.88,2.67,1,5.77-1.4,6.37-3.92.73-3.08-1.25-5.33-3.92-6.37Z" transform="translate(-301.22 -206.54)"/><path class="cls-3" d="M552.87,958c-7.66,3.86-15.68,6.35-23.69,9.29-6.26,2.3-3.55,10.87,2.84,9.77,9.17-1.57,18.15-5.6,26.41-9.76,2.61-1.32,3.29-5,1.86-7.43a5.51,5.51,0,0,0-7.42-1.87Z" transform="translate(-301.22 -206.54)"/><path class="cls-3" d="M511.77,948.14a3.84,3.84,0,0,0,3.8,3.6c5.16.35,8.4-5.1,10.7-9a48.07,48.07,0,0,0,5.28-13c1.67-6.73-8.82-9.26-10.5-2.5C517.78,940.43,511.12,942,511.77,948.14Z" transform="translate(-301.22 -206.54)"/><path class="cls-3" d="M471.52,930.66c4.46,10.59,4.29,16.77,9.12,18.91,2.83,1.24,5.36,0,6.4-2.84,1.22-3.35-.86-7-1.91-10.1s-2-6-3.3-9c-1.14-2.66-3.63-4.53-6.65-3.66-2.54.74-4.8,4-3.66,6.66Z" transform="translate(-301.22 -206.54)"/><path class="cls-3" d="M456.46,951c-5.95-1.37-8-2.12-11.66-1.3-3.21.7-4.64,5.65-1.94,7.78,3.15,2.48,4.85,2.58,11.11,4a5.4,5.4,0,0,0,2.49-10.5Z" transform="translate(-301.22 -206.54)"/><path class="cls-3" d="M453.4,981.48c-11,4-13.74,4.53-15.4,7.82-1,1.94-.55,5.09,1.74,6,4.25,1.7,6.68.16,16.61-3.67,2.66-1,4.44-3.65,3.6-6.55-.76-2.61-3.86-4.58-6.55-3.6Z" transform="translate(-301.22 -206.54)"/><path class="cls-3" d="M460.44,1030.65c-.35,4.16,5.81,6.36,8.41,3.29s2.77-4.52,10-22c1.11-2.69.63-5.81-2.13-7.33-2.34-1.28-6.2-.58-7.32,2.13C461.85,1024.87,460.8,1026.49,460.44,1030.65Z" transform="translate(-301.22 -206.54)"/><path class="cls-3" d="M501.7,1022.64c2.77,13.88.5,14.19,3.39,20.82,1.32,3,6.64,2.86,7.88-.14,1.59-3.86,1.6-5.16.94-12-.39-3.95-1-7.88-1.77-11.76-.57-2.89-4.1-4.48-6.74-3.71-3,.88-4.28,3.85-3.7,6.74Z" transform="translate(-301.22 -206.54)"/><polygon class="cls-4" points="125.39 1186.4 106.94 1196.87 112.87 1211.41 95.03 1222.38 98.62 1237.31 86.28 1247.26 90.53 1251.99 107.03 1238.68 103.63 1224.52 122.19 1213.12 116.35 1198.82 133.07 1189.33 125.39 1186.4"/><path class="cls-5" d="M687,372.15a22,22,0,0,1,4.45-18.32c6.28-8,16.95-8.46,24.32-2.64,8.53,6.74,12.72,22.19,6.17,48.54-24.11,12.5-40.11,12-48.64,5.28-7.38-5.82-9.37-16.31-3.09-24.27A22,22,0,0,1,687,372.15Z" transform="translate(-301.22 -206.54)"/><path class="cls-5" d="M638.42,440.65a227.49,227.49,0,0,0,18.15-18.49c1.71-2,5.27-4.87,4.78-7.7a2.76,2.76,0,0,0-2.81-2.51c-2.9,0-4.84,3.54-6.57,5.52-5.29,6-11.55,12.6-18.26,18.87a3.22,3.22,0,0,0,.2,4.51,3.26,3.26,0,0,0,4.51-.2Z" transform="translate(-301.22 -206.54)"/><path class="cls-5" d="M742.07,353.6c2.58-2.84,5.1-5.73,7.63-8.61s5.76-5.59,7.12-9a2.77,2.77,0,0,0-3.92-3.57c-3.24,1.8-5.58,5.43-8,8.2s-5,5.77-7.53,8.7c-2.65,3.13,1.94,7.36,4.7,4.31Z" transform="translate(-301.22 -206.54)"/><path class="cls-5" d="M699.47,447.24c-2.88-8.95-.88-15-.24-20.4a2.58,2.58,0,0,0-4.79-1.72c-4.36,6.86-3.46,16.74-1,24.1,1.3,3.87,7.3,1.92,6-2Z" transform="translate(-301.22 -206.54)"/><path class="cls-5" d="M743.88,427.46a28.3,28.3,0,0,1-7.39-9.06c-1.1-2.16-2.81-9.76-6.68-7.16-3.64,2.44.08,8.76,1.62,11.47a33.25,33.25,0,0,0,8.12,9.47c3.21,2.56,7.53-2.11,4.33-4.72Z" transform="translate(-301.22 -206.54)"/><path class="cls-5" d="M747.28,387.11l7.71-1.73c2.57-.57,5.6-.61,7-3.1a2.82,2.82,0,0,0-1.17-3.71c-2.16-1.47-5.55.07-7.89.61l-7.7,1.77a3.26,3.26,0,0,0-2.07,4.09,3.33,3.33,0,0,0,4.09,2.07Z" transform="translate(-301.22 -206.54)"/><path class="cls-5" d="M652,376.38c-20.08-6.86-20.05-7.05-22.34-6.88a2.82,2.82,0,0,0-1.73,4.85c1.8,1.6,1.53,1.31,22.68,8.44,1.69.57,3.56-.92,3.9-2.52a3.35,3.35,0,0,0-2.51-3.89Z" transform="translate(-301.22 -206.54)"/><path class="cls-5" d="M674.93,350a49,49,0,0,0-5.73-8.72c-2.06-2.51-4.89-6.63-8.53-5.88a2.44,2.44,0,0,0-1.67,1.85c-.41,3.27,3.23,5.73,5.13,8.06a57.74,57.74,0,0,1,5.46,8.13,3.2,3.2,0,0,0,4.39.95,3.25,3.25,0,0,0,.95-4.39Z" transform="translate(-301.22 -206.54)"/><path class="cls-5" d="M710,315.12c-.74-1.42-2.59-1.45-3.82-.83-2.53,1.29-2.91,5.59-3.39,8.12a54.4,54.4,0,0,0-.92,8.92,3.23,3.23,0,0,0,3.38,3,3.29,3.29,0,0,0,3-3.38C709,319.66,711.83,318.61,710,315.12Z" transform="translate(-301.22 -206.54)"/><polygon class="cls-3" points="169.93 451.34 195.18 472.3 185.37 504.25 177.01 501.68 185.1 475.31 159.02 453.66 175.85 419.66 156.74 407.41 162.07 400.44 187.17 416.52 169.93 451.34"/><path class="cls-4" d="M317,881.64c14,11.75,36.32,3.66,44.46-11.08,9-16.29,4.71-37.77-9.16-49.93-15-13.16-34.72-11.73-45.87,2.92C295.54,837.82,302.73,856,319,860.39c11.68,3.11,21-3.4,21.17-9.57.15-4.8-5.23-8-8.86-4.37a5.14,5.14,0,0,0-.92,5.51c-3.83,2.73-12.77,1.92-18.46-5.1-7.28-9-.3-21,8.67-25.45,11.41-5.7,24.14.44,31.37,9.88,7.58,9.9,9.12,24.6,3.07,35.63a26.29,26.29,0,0,1-35.3,10.42A2.56,2.56,0,0,0,317,881.64Z" transform="translate(-301.22 -206.54)"/><polygon class="cls-6" points="375.28 426.18 389.76 467.28 429.41 424.36 375.28 426.18"/><path class="cls-3" d="M875.56,553.92a41.26,41.26,0,1,0,27.12-51.67A41.25,41.25,0,0,0,875.56,553.92Z" transform="translate(-301.22 -206.54)"/><path class="cls-7" d="M938,541.32a22.06,22.06,0,1,1-42.12,13.13Z" transform="translate(-301.22 -206.54)"/><polygon class="cls-8" points="913.28 2.55 918.48 15.81 898.06 26.54 903.28 46.88 889.31 57.41 894.64 64.48 913.32 50.4 908.38 31.13 929.62 19.96 921.79 0 913.28 2.55"/><path class="cls-6" d="M1706.21,535.42l4.3-10.68a55.69,55.69,0,0,1-12.48-7.81,7,7,0,0,1-1.14-9.51l.27-.36a7,7,0,0,1,10.18-1.18,40.9,40.9,0,0,0,11.34,7c6.4,2.58,11.78,1.88,13.59-2.62,1.72-4.26-.79-8.41-8-14.57-10.39-8.88-16.32-17.8-11.93-28.7,4-9.88,14.07-14.82,27-12.34l4.3-10.67,11,4.44-4,9.88a51.55,51.55,0,0,1,9.65,5.61,7,7,0,0,1,1.41,9.73h0a7,7,0,0,1-10,1.35,37.37,37.37,0,0,0-9.31-5.38c-7.3-2.94-10.92-.75-12.19,2.4-1.49,3.71,1.49,7.65,9.59,15.09,11.46,10.1,14.36,18.45,10.29,28.56s-14.54,15.68-28.37,12.72l-4.61,11.46Z" transform="translate(-301.22 -206.54)"/><path class="cls-4" d="M751.53,889.94a5.31,5.31,0,0,1-.91,6.69,52.22,52.22,0,0,1-16.59,10c-10.38,3.9-21.9,4.28-32.29-.44a38.7,38.7,0,0,1-16.62-15.12l-6.14,2.3a4,4,0,0,1-5.19-2.36l-.06-.15a4,4,0,0,1,2.36-5.2l5-1.89c-.8-1.67-1.37-2.71-1.73-3.65a39.14,39.14,0,0,1-1.59-5.69l-5.19,2a4,4,0,0,1-5.19-2.36h0a4,4,0,0,1,2.35-5.19l6.3-2.36a41.37,41.37,0,0,1,3-22.13c5-11,14.45-18.88,25.3-23a45.58,45.58,0,0,1,15.74-3.13,5.45,5.45,0,0,1,5.5,5.19v.09a5.45,5.45,0,0,1-5.26,5.69,39.18,39.18,0,0,0-12.24,2.6,29,29,0,0,0-16.51,14.81,24.21,24.21,0,0,0-1.85,14.69l35.4-13.28a4,4,0,0,1,5.19,2.36h0A4,4,0,0,1,728,855.6l-37,13.87c.49,1.79,1,3.58,1.4,4.69.53,1.41,1.06,2.83,1.93,4.66l37-13.91a4.11,4.11,0,0,1,5.3,2.41h0a4.11,4.11,0,0,1-2.41,5.3l-35.47,13.31a25.62,25.62,0,0,0,10.38,9c7.73,3.38,14.85,3.22,22.72.27a44.5,44.5,0,0,0,11.81-6.66,5.31,5.31,0,0,1,7.81,1.37Z" transform="translate(-301.22 -206.54)"/><path class="cls-3" d="M1581.1,357.41l3.07-15.19,14.25-6.09a2.13,2.13,0,0,0,.2-3.81l-13.5-7.61-1.38-15.44a2.13,2.13,0,0,0-3.56-1.37l-11.41,10.48-15.11-3.45a2.13,2.13,0,0,0-2.41,3L1557.7,332l-8,13.31a2.12,2.12,0,0,0,2.07,3.2l15.4-1.78,10.19,11.68A2.13,2.13,0,0,0,1581.1,357.41Z" transform="translate(-301.22 -206.54)"/><path class="cls-3" d="M1434.37,240l-1.57-10.78,8-7.41a1.5,1.5,0,0,0-.77-2.57l-10.74-1.85-4.57-9.89a1.49,1.49,0,0,0-2.68-.07l-5.08,9.65-10.82,1.29a1.49,1.49,0,0,0-.89,2.53l7.6,7.8-2.12,10.69a1.5,1.5,0,0,0,2.14,1.64l9.77-4.82,9.51,5.31A1.5,1.5,0,0,0,1434.37,240Z" transform="translate(-301.22 -206.54)"/><path class="cls-3" d="M1125.32,356l-1.57-10.79,8-7.4a1.5,1.5,0,0,0-.76-2.58l-10.75-1.84-4.57-9.89a1.49,1.49,0,0,0-2.68-.07l-5.07,9.64-10.83,1.29a1.5,1.5,0,0,0-.89,2.54l7.61,7.8-2.12,10.69a1.5,1.5,0,0,0,2.13,1.64l9.77-4.83,9.52,5.32A1.49,1.49,0,0,0,1125.32,356Z" transform="translate(-301.22 -206.54)"/><path class="cls-9" d="M1511.56,506.19l-6.74-6.73a3.11,3.11,0,0,0-4.41,0l-6.73,6.73a3.12,3.12,0,0,1-4.41,0l-6.74-6.73a3.11,3.11,0,0,0-4.41,0l-6.73,6.73a3.14,3.14,0,0,1-4.42,0l-6.73-6.73a3.13,3.13,0,0,0-4.42,0l-6.73,6.73a3.11,3.11,0,0,1-4.41,0l-6.74-6.73a3.12,3.12,0,0,0-4.41,0l-6.73,6.73a3.11,3.11,0,0,1-4.41,0l-6.74-6.73a3.12,3.12,0,0,0-4.41,0l-6.73,6.73a3.11,3.11,0,0,1-4.41,0l-6.74-6.73a3.12,3.12,0,0,0-4.41,0l-6.73,6.73a3.13,3.13,0,0,1-4.42,0l-6.73-6.73a3.14,3.14,0,0,0-4.42,0l-6.73,6.73a3.11,3.11,0,0,1-4.41,0l-6.74-6.73a3.12,3.12,0,0,0-4.41,0l-6.73,6.74a3.11,3.11,0,0,1-4.41,0l-6.74-6.73a3.11,3.11,0,0,0-4.41,0l-6.73,6.74a3.13,3.13,0,0,1-4.42,0l-6.73-6.73a3.11,3.11,0,0,0-4.41,0l-6.74,6.74a3.11,3.11,0,0,1-4.41,0l-6.73-6.73a3.13,3.13,0,0,0-4.42,0l-6.73,6.74a3.11,3.11,0,0,1-4.41,0l-6.74-6.73a3.11,3.11,0,0,0-4.41,0l-6.73,6.74a3.11,3.11,0,0,1-4.41,0l-6.74-6.73a3.11,3.11,0,0,0-4.41,0l-6.73,6.74a3.13,3.13,0,0,1-4.42,0l-6.73-6.73a3.13,3.13,0,0,0-4.42,0l-6.72,6.74a3.13,3.13,0,0,1-4.42,0l-6.73-6.73a3.13,3.13,0,0,0-4.42,0l-6.73,6.74a3.11,3.11,0,0,1-4.41,0l-6.74-6.73a3.11,3.11,0,0,0-4.41,0l-6.73,6.74a3.12,3.12,0,0,1-4.41,0l-6.74-6.73a3.11,3.11,0,0,0-4.41,0l-6.73,6.74a3.14,3.14,0,0,1-4.42,0l-6.73-6.73a3.13,3.13,0,0,0-4.42,0l-6.73,6.73a3.11,3.11,0,0,1-4.41,0l-6.74-6.73a3.11,3.11,0,0,0-4.41,0h0a3.1,3.1,0,0,0-.91,2.19l-2.46,542.75,427.27,1.31,1.87-548.64h0l-8.94,8.94A3.12,3.12,0,0,1,1511.56,506.19Z" transform="translate(-301.22 -206.54)"/><rect class="cls-10" x="1095.77" y="1035.08" width="427.27" height="20.5" transform="translate(2318.03 1883.56) rotate(179.98)"/><path class="cls-11" d="M1186.93,971.85l248.4-.11A12.65,12.65,0,0,1,1448,984.39h0a12.65,12.65,0,0,1-12.65,12.66l-248.4.1a12.65,12.65,0,0,1-12.66-12.65h0A12.65,12.65,0,0,1,1186.93,971.85Z" transform="translate(-301.22 -206.54)"/><path class="cls-12" d="M1315.07,920.12,1483,920a8.79,8.79,0,0,1,8.79,8.79h0a8.78,8.78,0,0,1-8.78,8.78l-167.89.08a8.79,8.79,0,0,1-8.79-8.79h0A8.78,8.78,0,0,1,1315.07,920.12Z" transform="translate(-301.22 -206.54)"/><path class="cls-12" d="M1315.05,871.72l167.89-.07a8.79,8.79,0,0,1,8.79,8.78h0a8.79,8.79,0,0,1-8.78,8.79l-167.89.07a8.79,8.79,0,0,1-8.79-8.78h0A8.79,8.79,0,0,1,1315.05,871.72Z" transform="translate(-301.22 -206.54)"/><path class="cls-12" d="M1315,828.33l167.89-.07a8.78,8.78,0,0,1,8.79,8.78h0a8.79,8.79,0,0,1-8.78,8.79L1315,845.9a8.79,8.79,0,0,1-8.79-8.78h0A8.78,8.78,0,0,1,1315,828.33Z" transform="translate(-301.22 -206.54)"/><path class="cls-12" d="M1211.5,762.06l197.68-.08a6.34,6.34,0,0,1,6.34,6.34h0a6.33,6.33,0,0,1-6.34,6.35l-197.68.09a6.35,6.35,0,0,1-6.35-6.35h0A6.36,6.36,0,0,1,1211.5,762.06Z" transform="translate(-301.22 -206.54)"/><path class="cls-12" d="M1169.29,736.77l282.07-.12a6.33,6.33,0,0,1,6.35,6.34h0a6.35,6.35,0,0,1-6.34,6.35l-282.07.12a6.35,6.35,0,0,1-6.35-6.35h0A6.34,6.34,0,0,1,1169.29,736.77Z" transform="translate(-301.22 -206.54)"/><path class="cls-12" d="M1139.26,920.19l46,0a8.79,8.79,0,0,1,8.79,8.78h0a8.79,8.79,0,0,1-8.78,8.79l-46,0a8.78,8.78,0,0,1-8.78-8.78h0A8.77,8.77,0,0,1,1139.26,920.19Z" transform="translate(-301.22 -206.54)"/><path class="cls-12" d="M1139.24,871.79l46,0a8.79,8.79,0,0,1,8.79,8.78h0a8.78,8.78,0,0,1-8.78,8.79l-46,0a8.79,8.79,0,0,1-8.79-8.78h0A8.8,8.8,0,0,1,1139.24,871.79Z" transform="translate(-301.22 -206.54)"/><path class="cls-12" d="M1139.22,828.4l46,0a8.79,8.79,0,0,1,8.79,8.78h0a8.78,8.78,0,0,1-8.78,8.79l-46,0a8.78,8.78,0,0,1-8.79-8.78h0A8.78,8.78,0,0,1,1139.22,828.4Z" transform="translate(-301.22 -206.54)"/><path class="cls-11" d="M1146.37,674.9l329.24-.14a16,16,0,0,1,16,16h0a16,16,0,0,1-16,16l-329.24.14a16,16,0,0,1-16-16h0A16,16,0,0,1,1146.37,674.9Z" transform="translate(-301.22 -206.54)"/><path class="cls-11" d="M1224,623.55l173.86-.08a9.92,9.92,0,0,1,9.92,9.91h0a9.91,9.91,0,0,1-9.91,9.92l-173.86.08a9.92,9.92,0,0,1-9.92-9.92h0A9.9,9.9,0,0,1,1224,623.55Z" transform="translate(-301.22 -206.54)"/><path class="cls-13" d="M1559.82,1856.32l-498.6.21a54.85,54.85,0,0,1-54.87-54.82l-.31-740.85a54.84,54.84,0,0,1,54.82-54.86l498.6-.21a54.83,54.83,0,0,1,54.86,54.82l.32,740.84A54.85,54.85,0,0,1,1559.82,1856.32Z" transform="translate(-301.22 -206.54)"/><path class="cls-14" d="M1595.15,1019.28a54.41,54.41,0,0,1,13.53,35.69l.32,740.85a54.84,54.84,0,0,1-54.82,54.86l-498.6.21a54.37,54.37,0,0,1-35.7-13.49,54.46,54.46,0,0,0,41.34,19.13l498.6-.21a54.85,54.85,0,0,0,54.82-54.87l-.32-740.84A54.46,54.46,0,0,0,1595.15,1019.28Z" transform="translate(-301.22 -206.54)"/><path class="cls-15" d="M1538.59,1352.36l-456.51,0a15.23,15.23,0,0,1-15.24-15.23l0-252a15.24,15.24,0,0,1,15.24-15.24l456.51,0a15.24,15.24,0,0,1,15.24,15.24l0,252A15.25,15.25,0,0,1,1538.59,1352.36Z" transform="translate(-301.22 -206.54)"/><path class="cls-16" d="M1070.18,1340.12l0-252a15.24,15.24,0,0,1,15.24-15.24l456.51,0a15.11,15.11,0,0,1,8.35,2.5,15.21,15.21,0,0,0-11.69-5.47l-456.51,0a15.24,15.24,0,0,0-15.24,15.24l0,252a15.22,15.22,0,0,0,6.89,12.74A15.2,15.2,0,0,1,1070.18,1340.12Z" transform="translate(-301.22 -206.54)"/><path class="cls-17" d="M1483.24,1200.13l-345.83,0a18.36,18.36,0,0,1-18.36-18.36v-59a18.36,18.36,0,0,1,18.37-18.36l345.82,0a18.37,18.37,0,0,1,18.37,18.36v59A18.36,18.36,0,0,1,1483.24,1200.13Z" transform="translate(-301.22 -206.54)"/><path class="cls-18" d="M1122.14,1184.88v-59a18.36,18.36,0,0,1,18.36-18.36l345.82,0a18.28,18.28,0,0,1,11.35,3.93,18.32,18.32,0,0,0-14.44-7l-345.82,0A18.36,18.36,0,0,0,1119,1122.8v59a18.32,18.32,0,0,0,7,14.43A18.26,18.26,0,0,1,1122.14,1184.88Z" transform="translate(-301.22 -206.54)"/><path class="cls-19" d="M1194.94,1458.52l-101.15,0a14.74,14.74,0,0,1-14.75-14.73l0-44.41a14.75,14.75,0,0,1,14.73-14.75l101.16,0a14.73,14.73,0,0,1,14.74,14.73l0,44.41A14.73,14.73,0,0,1,1194.94,1458.52Z" transform="translate(-301.22 -206.54)"/><path class="cls-20" d="M1189.7,1453l-101.15,0a14.75,14.75,0,0,1-14.75-14.74l0-44.41a14.74,14.74,0,0,1,14.73-14.74l101.16-.05a14.73,14.73,0,0,1,14.74,14.74l0,44.41A14.73,14.73,0,0,1,1189.7,1453Z" transform="translate(-301.22 -206.54)"/><path class="cls-21" d="M1079,1443.38l0-43.64c0-8.35,6.42-15.12,14.35-15.13l101.91,0a13.46,13.46,0,0,1,7.06,2.23,14.07,14.07,0,0,0-12.24-7.68l-101.9.05c-7.93,0-14.36,6.78-14.36,15.13l0,43.64a15,15,0,0,0,7.3,12.88A15.23,15.23,0,0,1,1079,1443.38Z" transform="translate(-301.22 -206.54)"/><path class="cls-19" d="M1195,1563.68l-101.15,0a14.74,14.74,0,0,1-14.75-14.73v-44.41a14.74,14.74,0,0,1,14.73-14.75l101.15,0a14.73,14.73,0,0,1,14.74,14.73l0,44.41A14.75,14.75,0,0,1,1195,1563.68Z" transform="translate(-301.22 -206.54)"/><path class="cls-20" d="M1189.74,1558.16l-101.15,0a14.75,14.75,0,0,1-14.75-14.73v-44.42a14.73,14.73,0,0,1,14.73-14.74l101.15,0a14.73,14.73,0,0,1,14.74,14.73l0,44.41A14.73,14.73,0,0,1,1189.74,1558.16Z" transform="translate(-301.22 -206.54)"/><path class="cls-21" d="M1079,1548.54l0-43.64c0-8.36,6.43-15.13,14.36-15.13l101.9,0a13.53,13.53,0,0,1,7.07,2.23,14.08,14.08,0,0,0-12.24-7.67l-101.91,0c-7.93,0-14.36,6.78-14.35,15.13v43.64a15.07,15.07,0,0,0,7.31,12.89A15.27,15.27,0,0,1,1079,1548.54Z" transform="translate(-301.22 -206.54)"/><path class="cls-19" d="M1195,1668.83l-101.15,0a14.73,14.73,0,0,1-14.74-14.73l0-44.41a14.73,14.73,0,0,1,14.73-14.74l101.15,0a14.75,14.75,0,0,1,14.75,14.73v44.41A14.73,14.73,0,0,1,1195,1668.83Z" transform="translate(-301.22 -206.54)"/><path class="cls-20" d="M1189.78,1663.32l-101.15,0a14.73,14.73,0,0,1-14.74-14.73l0-44.41a14.74,14.74,0,0,1,14.73-14.75l101.15,0a14.74,14.74,0,0,1,14.75,14.73v44.41A14.74,14.74,0,0,1,1189.78,1663.32Z" transform="translate(-301.22 -206.54)"/><path class="cls-21" d="M1079.06,1653.69l0-43.64c0-8.35,6.43-15.13,14.36-15.13l101.9-.05a13.42,13.42,0,0,1,7.07,2.24c-2.49-4.51-6.93-7.69-12.24-7.68l-101.9,0c-7.94,0-14.36,6.78-14.36,15.13l0,43.64a15,15,0,0,0,7.3,12.89A15.27,15.27,0,0,1,1079.06,1653.69Z" transform="translate(-301.22 -206.54)"/><path class="cls-19" d="M1362.63,1458.45l-101.15,0a14.74,14.74,0,0,1-14.75-14.73v-44.41a14.73,14.73,0,0,1,14.73-14.74l101.15,0a14.73,14.73,0,0,1,14.74,14.73l0,44.42A14.73,14.73,0,0,1,1362.63,1458.45Z" transform="translate(-301.22 -206.54)"/><path class="cls-20" d="M1357.39,1452.94l-101.15,0a14.75,14.75,0,0,1-14.75-14.73v-44.41a14.74,14.74,0,0,1,14.73-14.75l101.15,0a14.73,14.73,0,0,1,14.74,14.73l0,44.41A14.75,14.75,0,0,1,1357.39,1452.94Z" transform="translate(-301.22 -206.54)"/><path class="cls-21" d="M1246.67,1443.31l0-43.64c0-8.35,6.43-15.13,14.36-15.13l101.9,0a13.45,13.45,0,0,1,7.07,2.24,14.09,14.09,0,0,0-12.24-7.68l-101.91,0c-7.93,0-14.36,6.78-14.35,15.13l0,43.64a15,15,0,0,0,7.3,12.89A15.27,15.27,0,0,1,1246.67,1443.31Z" transform="translate(-301.22 -206.54)"/><path class="cls-19" d="M1362.67,1563.6l-101.15.05a14.74,14.74,0,0,1-14.74-14.73l0-44.42a14.73,14.73,0,0,1,14.73-14.74l101.15,0a14.76,14.76,0,0,1,14.75,14.74v44.41A14.73,14.73,0,0,1,1362.67,1563.6Z" transform="translate(-301.22 -206.54)"/><path class="cls-20" d="M1357.43,1558.09l-101.15,0a14.73,14.73,0,0,1-14.74-14.73l0-44.41a14.73,14.73,0,0,1,14.73-14.74l101.15,0a14.75,14.75,0,0,1,14.75,14.73v44.41A14.74,14.74,0,0,1,1357.43,1558.09Z" transform="translate(-301.22 -206.54)"/><path class="cls-21" d="M1246.71,1548.46l0-43.64c0-8.35,6.43-15.13,14.36-15.13l101.91,0a13.4,13.4,0,0,1,7.06,2.23,14.08,14.08,0,0,0-12.24-7.68l-101.9,0c-7.94,0-14.36,6.77-14.36,15.13l0,43.64a15,15,0,0,0,7.3,12.88A15.27,15.27,0,0,1,1246.71,1548.46Z" transform="translate(-301.22 -206.54)"/><path class="cls-19" d="M1362.72,1668.75l-101.16,0a14.73,14.73,0,0,1-14.74-14.73l0-44.41a14.75,14.75,0,0,1,14.73-14.75l101.15,0a14.73,14.73,0,0,1,14.75,14.73l0,44.41A14.74,14.74,0,0,1,1362.72,1668.75Z" transform="translate(-301.22 -206.54)"/><path class="cls-20" d="M1357.48,1663.24l-101.16,0a14.74,14.74,0,0,1-14.74-14.74l0-44.41a14.73,14.73,0,0,1,14.73-14.74l101.15-.05a14.74,14.74,0,0,1,14.75,14.73l0,44.42A14.74,14.74,0,0,1,1357.48,1663.24Z" transform="translate(-301.22 -206.54)"/><path class="cls-21" d="M1246.75,1653.61V1610c0-8.35,6.42-15.12,14.35-15.13l101.91,0a13.49,13.49,0,0,1,7.06,2.23,14.07,14.07,0,0,0-12.24-7.68l-101.9.05c-7.93,0-14.36,6.78-14.36,15.13l0,43.64a15,15,0,0,0,7.3,12.88A15.35,15.35,0,0,1,1246.75,1653.61Z" transform="translate(-301.22 -206.54)"/><path class="cls-19" d="M1362.76,1773.91l-101.15,0a14.73,14.73,0,0,1-14.75-14.73l0-44.41a14.76,14.76,0,0,1,14.74-14.75l101.15,0a14.73,14.73,0,0,1,14.74,14.73l0,44.41A14.75,14.75,0,0,1,1362.76,1773.91Z" transform="translate(-301.22 -206.54)"/><path class="cls-3" d="M1357.52,1768.39l-101.15,0a14.74,14.74,0,0,1-14.75-14.73l0-44.42a14.74,14.74,0,0,1,14.74-14.74l101.15,0a14.74,14.74,0,0,1,14.74,14.74l0,44.41A14.73,14.73,0,0,1,1357.52,1768.39Z" transform="translate(-301.22 -206.54)"/><path class="cls-21" d="M1246.8,1758.77l0-43.65c0-8.35,6.42-15.12,14.35-15.12l101.91,0a13.46,13.46,0,0,1,7.06,2.23,14.07,14.07,0,0,0-12.24-7.68l-101.9,0c-7.93,0-14.36,6.78-14.36,15.13l0,43.64a15.07,15.07,0,0,0,7.3,12.89A15.37,15.37,0,0,1,1246.8,1758.77Z" transform="translate(-301.22 -206.54)"/><path class="cls-19" d="M1530.32,1458.37l-101.15.05a14.73,14.73,0,0,1-14.74-14.73l0-44.41a14.75,14.75,0,0,1,14.73-14.75l101.15,0a14.74,14.74,0,0,1,14.75,14.73l0,44.41A14.74,14.74,0,0,1,1530.32,1458.37Z" transform="translate(-301.22 -206.54)"/><path class="cls-20" d="M1525.08,1452.86l-101.15.05a14.74,14.74,0,0,1-14.74-14.74l0-44.41A14.73,14.73,0,0,1,1423.9,1379l101.15,0a14.75,14.75,0,0,1,14.75,14.73l0,44.42A14.74,14.74,0,0,1,1525.08,1452.86Z" transform="translate(-301.22 -206.54)"/><path class="cls-21" d="M1414.36,1443.23v-43.64c0-8.35,6.42-15.12,14.35-15.13l101.91,0a13.49,13.49,0,0,1,7.06,2.23,14.08,14.08,0,0,0-12.24-7.68l-101.9,0c-7.94,0-14.36,6.78-14.36,15.13l0,43.64a15,15,0,0,0,7.3,12.88A15.35,15.35,0,0,1,1414.36,1443.23Z" transform="translate(-301.22 -206.54)"/><path class="cls-22" d="M1208.09,1316.15l-101.67,0a9.37,9.37,0,0,1-9.36-9.35v-13.6a9.35,9.35,0,0,1,9.35-9.36l101.66-.05a9.36,9.36,0,0,1,9.36,9.36v13.6A9.35,9.35,0,0,1,1208.09,1316.15Z" transform="translate(-301.22 -206.54)"/><path class="cls-23" d="M1203.26,1313.74l-101.66,0a9.36,9.36,0,0,1-9.36-9.35v-13.6a9.36,9.36,0,0,1,9.35-9.36l101.66,0a9.36,9.36,0,0,1,9.36,9.36v13.59A9.36,9.36,0,0,1,1203.26,1313.74Z" transform="translate(-301.22 -206.54)"/><path class="cls-22" d="M1362.61,1316.09l-101.66,0a9.36,9.36,0,0,1-9.36-9.35v-13.6a9.35,9.35,0,0,1,9.35-9.36l101.66,0a9.35,9.35,0,0,1,9.36,9.35v13.6A9.34,9.34,0,0,1,1362.61,1316.09Z" transform="translate(-301.22 -206.54)"/><path class="cls-23" d="M1357.79,1313.68l-101.67,0a9.35,9.35,0,0,1-9.35-9.35v-13.6a9.35,9.35,0,0,1,9.35-9.36l101.66,0a9.35,9.35,0,0,1,9.36,9.35v13.6A9.36,9.36,0,0,1,1357.79,1313.68Z" transform="translate(-301.22 -206.54)"/><path class="cls-22" d="M1517.14,1316l-101.66,0a9.36,9.36,0,0,1-9.36-9.36v-13.59a9.34,9.34,0,0,1,9.35-9.36l101.66,0a9.36,9.36,0,0,1,9.36,9.35v13.6A9.34,9.34,0,0,1,1517.14,1316Z" transform="translate(-301.22 -206.54)"/><path class="cls-23" d="M1512.31,1313.61l-101.66.05a9.37,9.37,0,0,1-9.36-9.36v-13.59a9.35,9.35,0,0,1,9.35-9.36l101.66,0a9.36,9.36,0,0,1,9.36,9.35v13.6A9.36,9.36,0,0,1,1512.31,1313.61Z" transform="translate(-301.22 -206.54)"/><path class="cls-19" d="M1530.37,1563.53l-101.16,0a14.73,14.73,0,0,1-14.74-14.73l0-44.41a14.75,14.75,0,0,1,14.73-14.75l101.16,0a14.73,14.73,0,0,1,14.74,14.73l0,44.41A14.75,14.75,0,0,1,1530.37,1563.53Z" transform="translate(-301.22 -206.54)"/><path class="cls-20" d="M1525.13,1558l-101.16,0a14.74,14.74,0,0,1-14.74-14.73l0-44.42a14.73,14.73,0,0,1,14.73-14.74l101.16-.05a14.74,14.74,0,0,1,14.74,14.74l0,44.41A14.73,14.73,0,0,1,1525.13,1558Z" transform="translate(-301.22 -206.54)"/><path class="cls-21" d="M1414.41,1548.39l0-43.64c0-8.36,6.42-15.13,14.35-15.13l101.91,0a13.46,13.46,0,0,1,7.06,2.23,14.09,14.09,0,0,0-12.24-7.68l-101.9.05c-7.93,0-14.36,6.78-14.36,15.13l0,43.64a15.07,15.07,0,0,0,7.3,12.89A15.27,15.27,0,0,1,1414.41,1548.39Z" transform="translate(-301.22 -206.54)"/><path class="cls-19" d="M1530.41,1668.68l-101.15,0a14.74,14.74,0,0,1-14.75-14.73v-44.41a14.73,14.73,0,0,1,14.73-14.74l101.15,0a14.73,14.73,0,0,1,14.74,14.73l0,44.41A14.75,14.75,0,0,1,1530.41,1668.68Z" transform="translate(-301.22 -206.54)"/><path class="cls-20" d="M1525.17,1663.17l-101.15,0a14.75,14.75,0,0,1-14.75-14.73l0-44.41a14.76,14.76,0,0,1,14.74-14.75l101.15,0a14.73,14.73,0,0,1,14.74,14.73l0,44.41A14.75,14.75,0,0,1,1525.17,1663.17Z" transform="translate(-301.22 -206.54)"/><path class="cls-21" d="M1414.45,1653.54l0-43.64c0-8.35,6.43-15.13,14.36-15.13l101.9,0a13.45,13.45,0,0,1,7.07,2.24c-2.49-4.51-6.94-7.69-12.25-7.68l-101.9,0c-7.93,0-14.36,6.78-14.35,15.13v43.64a15.09,15.09,0,0,0,7.3,12.89A15.37,15.37,0,0,1,1414.45,1653.54Z" transform="translate(-301.22 -206.54)"/><path class="cls-19" d="M1195.06,1774l-101.15,0a14.74,14.74,0,0,1-14.74-14.73l0-44.42a14.73,14.73,0,0,1,14.73-14.74l101.15-.05a14.76,14.76,0,0,1,14.75,14.74l0,44.41A14.74,14.74,0,0,1,1195.06,1774Z" transform="translate(-301.22 -206.54)"/><path class="cls-24" d="M1189.82,1768.47l-101.15,0a14.73,14.73,0,0,1-14.74-14.73l0-44.41a14.75,14.75,0,0,1,14.73-14.75l101.15,0a14.75,14.75,0,0,1,14.75,14.73l0,44.41A14.76,14.76,0,0,1,1189.82,1768.47Z" transform="translate(-301.22 -206.54)"/><path class="cls-21" d="M1079.1,1758.84V1715.2c0-8.35,6.42-15.13,14.35-15.13l101.91,0a13.4,13.4,0,0,1,7.06,2.23,14.08,14.08,0,0,0-12.24-7.68l-101.9,0c-7.94,0-14.36,6.78-14.36,15.14l0,43.64a15,15,0,0,0,7.3,12.88A15.38,15.38,0,0,1,1079.1,1758.84Z" transform="translate(-301.22 -206.54)"/><path class="cls-19" d="M1530.45,1773.83l-101.15.05a14.76,14.76,0,0,1-14.75-14.74v-44.41a14.73,14.73,0,0,1,14.73-14.74l101.15,0a14.75,14.75,0,0,1,14.75,14.73v44.42A14.73,14.73,0,0,1,1530.45,1773.83Z" transform="translate(-301.22 -206.54)"/><path class="cls-2" d="M1525.21,1768.32l-101.15,0a14.74,14.74,0,0,1-14.75-14.73v-44.41a14.74,14.74,0,0,1,14.73-14.75l101.15,0a14.73,14.73,0,0,1,14.74,14.73l0,44.41A14.74,14.74,0,0,1,1525.21,1768.32Z" transform="translate(-301.22 -206.54)"/><path class="cls-21" d="M1414.49,1758.69l0-43.64c0-8.35,6.43-15.13,14.36-15.13l101.9,0a13.35,13.35,0,0,1,7.07,2.23,14.09,14.09,0,0,0-12.24-7.68l-101.91,0c-7.93,0-14.36,6.78-14.35,15.14l0,43.64a15,15,0,0,0,7.3,12.88A15.27,15.27,0,0,1,1414.49,1758.69Z" transform="translate(-301.22 -206.54)"/><path class="cls-25" d="M1775.63,1142.48l-2.76,2.48a3.4,3.4,0,0,1-4.78-.12l-49-54.07a3.35,3.35,0,0,1,.37-4.74l2.76-2.48a3.39,3.39,0,0,1,4.78.12l49,54.07A3.36,3.36,0,0,1,1775.63,1142.48Z" transform="translate(-301.22 -206.54)"/><path class="cls-26" d="M1941.82,1098.55c-6.55-5.35-57.22,17-56.58,24.73s-35.35,83-35.35,83l-62.21-49.77,0,0c-.55-1.8-6.45-21.16-6.73-24.63-.3-3.63-10.82-10-15.7-9s4.18,7.08,4.77,8.21c1.62,3.07-4.64,4.22-4.64,4.22s-18-9.89-18.36-15.72-4.09-18-8-15.47c-2,1.32-2,10-1.36,14.08-1.16-4.66-2.79-9.92-4.38-10.44-2.91-1-4.36,2.75-3.83,4.58s5.22,21.61,6.65,23.84,30.42,25.65,34.61,30.74c0,0,80.46,92.3,86.19,94.71,5,2.12,22.95-29.69,39.89-50.8S1962.29,1115.25,1941.82,1098.55Z" transform="translate(-301.22 -206.54)"/><path class="cls-5" d="M2104.18,1777.24s11.06,10.82,11.31,14.79,1,46.54-3.53,50.51-17.78,6.79-13.51,11.26c3.22,3.38,28,2.66,44.43,1.75,4.79-.26,10.81-38.65,12.71-44.3,2.76-8.19,9.46-26.65,7-32.36-1.23-2.78-7.07-8.5-15.31-13.84-8.66-5.62-16.95-18.12-16.95-18.12Z" transform="translate(-301.22 -206.54)"/><path class="cls-26" d="M1989.64,1802.45s9.9,28,9.91,28.12c.73,4.44,3.63,15.42,3.63,19.46,0,15.17-68.21-12.88-52.92-19.61,1.38-.61,5.72-5.47,6.18-10.64.7-8-5.75-17.94-5.75-17.94Z" transform="translate(-301.22 -206.54)"/><path class="cls-27" d="M1882.64,1280.15s-5,50.28-5,51c0,81.34-16.07,240.22-13,255.51,7.46,37.3,87.69,227.58,87.69,227.58l43.37-5.21-56.51-227.81,20.79-91.69,29.43-181.26Z" transform="translate(-301.22 -206.54)"/><path class="cls-25" d="M2028.18,1324.62l8.23,47.66,22.26,196.14,84.79,191.69s-11.93,27.89-29.52,31.81l-135-196.81-83.82-251.84,2.94-56Z" transform="translate(-301.22 -206.54)"/><path class="cls-4" d="M1865.34,1160.43l60.13,6.16s2.76-49.47,2.76-73.07c0-28.62-2.43-65.5-5.87-64.7-9.67,2.23-22.69,7.58-30.45,18.27C1865.08,1084.08,1865.34,1160.43,1865.34,1160.43Z" transform="translate(-301.22 -206.54)"/><path class="cls-28" d="M1894.88,1088.47c-1.26,8.73-24.37,246-24.37,246,109.49,53.06,169.91,9.45,169.91,9.45s-3.59-166.63.71-189.3c2.84-15,6.38-114.72-3.31-117.51-12.44-3.58-26.7-7.39-42.24-9-13.26-1.38-64.8-2.18-74,.93C1921.56,1029.05,1900.18,1051.77,1894.88,1088.47Z" transform="translate(-301.22 -206.54)"/><path class="cls-29" d="M2146.71,1764.78s-25.49,72-35.46,75.47c-2.65.93-15.36,3.27-17.76,8.91-.72,1.7,0,7.37,0,7.37h53.12s6.72-31.72,9.37-45.66c0,0,14.06-34,12.5-37.15S2146.71,1764.78,2146.71,1764.78Z" transform="translate(-301.22 -206.54)"/><path class="cls-29" d="M2007.06,1855l-7.81-24.76s-16.41,7-24.61,5.8-24.21-5.8-24.21-5.8c-32.74,10.81-59.56,16.06-54.69,24.76h111.32Z" transform="translate(-301.22 -206.54)"/><path class="cls-26" d="M1856.9,1261.65a12.67,12.67,0,0,1-1.65-1.23c2-23.24,1.6-45.77-5.68-53.39.18-.36,1.77-3.75,3.43-7.27,8.42,6.54,12.43,23.92,10.86,52.12a50,50,0,0,1-1.11,5.84C1860.31,1260.42,1858.09,1262.15,1856.9,1261.65Z" transform="translate(-301.22 -206.54)"/><path class="cls-30" d="M2148.86,1337a6.53,6.53,0,0,0,0-1.53c-1.61-16.43-15.21-154.42-17.5-160.28-2.06-5.3-63.05-92.82-63.05-92.82l-30,41,58.65,78.5c1.31,5,22.47,98.13,22.47,98.13s4.34,17,6.28,27.15c-.88,2.45-1.75,4.77-2.52,6.67a62.63,62.63,0,0,1-6.32,10.19c-2.62,3.52-7,11.23-7.49,13.29-.62,2.39-1.74,7.37-2.38,10.38s-1.5,6.51-1.64,8.14a15.74,15.74,0,0,1-1.9,4.37,2.63,2.63,0,0,0,3.09,3.79c2.13-.71,3.79-3.48,4.81-5.21,2.89-4.86,4.43-13.75,5.14-13.28s3.25,15.55,3.65,17.25,3.43,19.22,5.15,22.42,4,2.66,4.57.66c.52-1.73-1.89-26.23-1.89-26.23s-.3-3.12,1.07-2.15,3.59,23.22,4.54,26.48,3.11,5,5,2.36c2.23-3.18-1.61-26.77-1.61-26.77s-.43-3,.83-2.69,2.85,19.23,3.83,20.87,3.46,2.23,4.65-.51c1.39-3.21-2.22-24.24-2.22-24.24s.18-1.68,1-1.12,3.28,16.61,4.91,18.1a1.73,1.73,0,0,0,2.51,0c3-2-1.6-17.33-1.55-24.92s-3.47-16.14-2.42-25.18C2148.56,1339.27,2148.74,1337.88,2148.86,1337Z" transform="translate(-301.22 -206.54)"/><path class="cls-28" d="M2116,1137.8l-52.1,35.1s-29.36-43.84-45.12-59.45c-19.74-19.55,7.19-79.45,19.91-76.06C2067.13,1045,2116,1137.8,2116,1137.8Z" transform="translate(-301.22 -206.54)"/><path class="cls-26" d="M1991.76,976.82l7.79,51.54s-28.46,61.35-45.45,56c-14.25-4.46-5.48-58.75-5.48-58.75s7.77-29.16,5.44-43.75S1991.76,976.82,1991.76,976.82Z" transform="translate(-301.22 -206.54)"/><path class="cls-24" d="M1954.06,981.89c-2.33-14.59,37.69-5.07,37.69-5.07l.65,4.28a23.72,23.72,0,0,1-4.34,7.18c-8.94,9.65-22.91,15.45-35,15.89C1954.27,996.3,1955,987.87,1954.06,981.89Z" transform="translate(-301.22 -206.54)"/><path class="cls-26" d="M1998.32,903.92c1.13-.41,9.07,58.69-6,75s-44.41,21.59-54.93,8.78c-11.64-14.17-11.06-77.69,12.36-94.42S1998.32,903.92,1998.32,903.92Z" transform="translate(-301.22 -206.54)"/><path class="cls-29" d="M1958.67,861.62a65,65,0,0,1,34.13,19.53c8.22,1,19.39,5.53,30.92,24.69,14.19,23.57,3.71,49.67-12.8,62.48s-16.28,27.6-16.28,27.6l-2.61-7.65a43.1,43.1,0,0,1-2.07-18,35.28,35.28,0,0,1,2.68-10.83c4-8.56-8.53-14.24-12-21.36-2.7-5.48-2.83-18-7.08-27.07l-5.08-6.91s-11.72-9.15-23.18-6.57S1935.45,856.87,1958.67,861.62Z" transform="translate(-301.22 -206.54)"/><path class="cls-26" d="M1981.37,948.57c-.12,7.21,3.15,13.12,7.3,13.19s7.61-5.72,7.73-12.93-3.15-13.12-7.3-13.19S1981.49,941.36,1981.37,948.57Z" transform="translate(-301.22 -206.54)"/><path class="cls-31" d="M1956.91,965.23l-22.7-1.18s.08,8.68,10,9.49C1956.41,974.53,1956.91,965.23,1956.91,965.23Z" transform="translate(-301.22 -206.54)"/><polygon class="cls-32" points="187.85 1647.46 174.5 1647.46 224.27 1388.88 235.37 1390.99 187.85 1647.46"/><polygon class="cls-32" points="556.07 1646.3 567.17 1644.19 519.2 1388.88 508.1 1390.99 556.07 1646.3"/><polygon class="cls-32" points="432.34 1647.46 418.99 1647.46 468.75 1388.88 479.85 1390.99 432.34 1647.46"/><polygon class="cls-32" points="309.53 1647.46 320.37 1647.6 272.66 1390.04 261.56 1392.15 309.53 1647.46"/><path class="cls-33" d="M659.19,1247.17c-44,4.72-100.86,9.71-158,107-62.43,106.29-29.57,265.07,19.7,309.19s210.19,98.6,345.46,17c0,0,81.68-49.42,39.76-131.45-64.51-126.23-55.39-152.56-84.23-202S752.51,1237.14,659.19,1247.17Z" transform="translate(-301.22 -206.54)"/><path class="cls-3" d="M501.22,1354.13c39-66.38,77.86-89.77,112.59-99.43-13.43,14-27,31.89-40.69,55.11C510.7,1416.1,543.56,1574.88,592.83,1619c43.69,39.13,175.19,86.38,298.74,39.7a125.59,125.59,0,0,1-25.19,21.66c-135.27,81.56-296.19,27.08-345.46-17S438.79,1460.42,501.22,1354.13Z" transform="translate(-301.22 -206.54)"/><polygon class="cls-34" points="499.11 1202.18 510.41 1236.2 475.97 1222.61 499.11 1202.18"/><path class="cls-35" d="M764.83,1307.51c2.3.09,8.59,2.2,17.79,19.58,11.75,22.21,28.92,89.27,28.92,89.27l-51.26,19.09-6.58-14-10.84-107.77S764.2,1307.48,764.83,1307.51Z" transform="translate(-301.22 -206.54)"/><path class="cls-24" d="M697.08,1297.84c14.66,0,50.92,4.3,67.75,9.67,0,0,12.37,106.27-11.13,187-5.26,18.08,4.35,74.94,4.35,74.94l-151.86-2s18-137.45,11.21-159.65-6.94-99.58-6.94-99.58,1-.16,34.12-5.88A343.54,343.54,0,0,1,697.08,1297.84Z" transform="translate(-301.22 -206.54)"/><path class="cls-26" d="M679.39,1766.71s3.36,38.78,9.53,49.51-.32,29-.65,31.5-13,6.09-33.16,3.94-19.83-6.8-18.2-14.32,12.35-17.18,13-24.34-6.18-32.93-6.18-32.93Z" transform="translate(-301.22 -206.54)"/><path class="cls-36" d="M740.92,1537.46s104.83-5.82,128.24,8.36-4.23,43.29-4.23,43.29-85.35,37.11-228.23,45.35c-33.84,2-36.75-88.22-30.43-95.68S740.92,1537.46,740.92,1537.46Z" transform="translate(-301.22 -206.54)"/><path class="cls-29" d="M652.6,1854.67c-20.76-2.21-18.19-12.41-16.52-20.15,1-4.85,7-10.56,10.55-16,1.86,1.48,4.88,4.08,13.89,6.75,9.36,2.76,22.19-2.71,30.37-6.14,2.91,10.85,3.05,24.68,2.77,26.78C693.33,1848.53,673.35,1856.88,652.6,1854.67Z" transform="translate(-301.22 -206.54)"/><path class="cls-37" d="M664.05,1612.46c4.19,31.69,24.93,189.47,24.93,189.47l-48.12,6S581.69,1602,584.73,1570.46s25.18-34.15,25.18-34.15S653,1528.56,664.05,1612.46Z" transform="translate(-301.22 -206.54)"/><path class="cls-26" d="M608.81,1320c14.19-5.33,21.14,122.61,23.06,175.27,25.14,2.42,69,0,79.88-.8,5.13-.39,17-4.72,22.07-5.39s10-1,12.55-.59c.94.16,27.15,10.88,29.39,13.23,2.78,2.92,10.3,10.27,9,13.45s-14.46-8.86-14.46-8.86l-6.44-3.62c8,7.84,23.33,18.16,21.12,21.92s-16-6.81-25.79-14c8.44,7.63,18.92,21.27,16.51,23.39-2.17,1.91-14.1-13.88-26.85-18.43-4.72-1.68-9.43,3-13.14,3.55-2.73.41-7,1.3-9.63.54l-13.8-3.92c-4.7.43-4.82,3.21-9.56,4.22-5.52,1.17-14.56,2.41-21.58,4.12-40.41,9.88-53.89,14.46-66.27,14.45C577.42,1538.6,575.25,1332.63,608.81,1320Z" transform="translate(-301.22 -206.54)"/><path class="cls-35" d="M581.86,1440.15c-2.66-53.94-2.27-120.42,28-131.77,11.93-4.47,33,22.44,29.18,132.87C622.86,1442.58,599.17,1443.65,581.86,1440.15Z" transform="translate(-301.22 -206.54)"/><polygon class="cls-34" points="449.8 1210.43 446.72 1210.43 400.38 1324.3 403.58 1323.81 449.8 1210.43"/><path class="cls-26" d="M820.09,1799.88s-4.2,13.46,3.32,22.36,38.76,17.64,42.86,22.46,3.79,8.93,3.79,8.93l-87.68-2.42,1-26.48,4-19Z" transform="translate(-301.22 -206.54)"/><path class="cls-29" d="M828.87,1826.68s-22.53,9.11-33.42,3.72-10.55-6.89-13.7-4.88-4.28,26.83-4.28,26.83l98.6,2.9c6.86-.16,10.33-5.21,4.75-9.54-3.82-3-8.24-5-10.75-6.39C862.36,1834.9,828.87,1826.68,828.87,1826.68Z" transform="translate(-301.22 -206.54)"/><path class="cls-37" d="M816.77,1562.31c6.78-14.26,22.19-32.83,49.31-21.65,25.86,10.67,32.8,36.88,24.64,63.73S828.84,1789,827,1810.72l-42.9.28s7.8-124.94,9.71-155.14C795.62,1626.8,805,1587,816.77,1562.31Z" transform="translate(-301.22 -206.54)"/><path d="M886.4,1417H743a9.35,9.35,0,0,0-8.65,5.82l-44.15,108H611.17a4,4,0,0,0-4,4h0a4,4,0,0,0,4,4h225a15.69,15.69,0,0,0,14.33-9.31l44.45-99.36A9.38,9.38,0,0,0,886.4,1417Z" transform="translate(-301.22 -206.54)"/><path class="cls-31" d="M809.21,1479.89c-1,4.85-5.19,8.1-9.43,7.25s-6.88-5.47-5.91-10.33,5.18-8.1,9.42-7.25S810.17,1475,809.21,1479.89Z" transform="translate(-301.22 -206.54)"/><path class="cls-32" d="M731.16,1168.05a111.16,111.16,0,0,1-12.69-5.08c-4.64-2.24-10.66-4.87-14.46-5.45-8-1.24-21.75-.41-29.34,7.82-9.46,10.26-26.26,1.85-22.88,55.59,3.83,60.82,37.65,54.15,38.47,53.12s30.16-38.92,30.16-38.92,10.26,22.45,10.26,21.62S783.07,1185.53,731.16,1168.05Z" transform="translate(-301.22 -206.54)"/><path class="cls-26" d="M705.48,1278.54l2.92,21.73s6.54,31.31-1.87,37.35-35.78-38.24-35.78-38.24l2.89-55.07Z" transform="translate(-301.22 -206.54)"/><path class="cls-24" d="M672.71,1262.16c6.95,18.78,23.5,30.32,35.25,34.8l-2.48-18.42-31.84-34.23Z" transform="translate(-301.22 -206.54)"/><path class="cls-26" d="M703.76,1184.38c17.82-2.88,33.82,11.46,33.37,29.31a219.77,219.77,0,0,1-2.44,27.87c-3.88,25.09-21,47.18-32.31,45.21s-39.8-23.61-34.78-59.31C670.69,1205.41,685.05,1187.4,703.76,1184.38Z" transform="translate(-301.22 -206.54)"/><path class="cls-26" d="M675.45,1231.72c-1,5.51-5.37,9.35-9.87,8.57s-7.37-5.9-6.41-11.41,5.37-9.36,9.87-8.57S676.41,1226.2,675.45,1231.72Z" transform="translate(-301.22 -206.54)"/><path class="cls-32" d="M669,1220.31s13.68,3.4,18.76-5.4,23.24-27.8,46.32-19.92-20.31-19.15-22.16-19.15-24-.15-24-.15-17.09,14-17.7,15.59-5.54,18.38-5.54,18.38Z" transform="translate(-301.22 -206.54)"/><path class="cls-31" d="M694.07,1257l24.9,4.76s-2.37,9.38-13.38,7.6C692.16,1267.23,694.07,1257,694.07,1257Z" transform="translate(-301.22 -206.54)"/></g></g></svg>