<svg id="_Layer_" data-name="&lt;Layer&gt;" xmlns="http://www.w3.org/2000/svg" viewBox="0 0 2048.54 1208.85"><defs><style>.cls-1{fill:#ffb93e;}.cls-2{fill:#ffa412;}.cls-3{fill:#82b378;}.cls-18,.cls-4{fill:#e2810e;}.cls-5{fill:#ffb27d;}.cls-6{fill:#ed975d;}.cls-7{fill:#a9453d;}.cls-8{fill:#2c3a64;}.cls-9{fill:#2b478b;}.cls-10{fill:#233862;}.cls-11{fill:#1e3d70;}.cls-12{fill:#2a4e96;}.cls-13,.cls-14{fill:#ed9f4a;}.cls-13{opacity:0.2;}.cls-14{opacity:0.6;}.cls-15{fill:#f9ddbf;}.cls-16{fill:#f1a34f;}.cls-17{fill:#e5c1a1;}.cls-18{opacity:0.5;}.cls-19{fill:#ed985f;}.cls-20{fill:#ed7d2b;}.cls-21{fill:#f99746;}</style></defs><path class="cls-1" d="M1858.16,1154.94l23.11,3.8a9.88,9.88,0,0,1,4.76,2.16,8.18,8.18,0,0,1,2.72,4.2,6.42,6.42,0,0,1,.23,1.51,6.54,6.54,0,0,1-.09,1.39l-53.17,322.25c-.68,4.16-5,7-9.73,6.4l-.46-.06-23.11-3.8-.46-.09c-4.65-1-7.85-5-7.16-9.17L1848,1161.27a6.91,6.91,0,0,1,.37-1.35,7.16,7.16,0,0,1,.69-1.35,8.26,8.26,0,0,1,3.94-3.11A9.88,9.88,0,0,1,1858.16,1154.94Z" transform="translate(-553.91 -293.82)"/><path class="cls-2" d="M1864.07,1318.45l-28.49,172.64c-.61,3.71-4.87,6.14-9.59,5.56l-.46-.06-23.11-3.8-.46-.09c-4.65-1-7.91-4.63-7.3-8.34l25-151.44C1832.09,1332.48,1849.69,1329.59,1864.07,1318.45Z" transform="translate(-553.91 -293.82)"/><rect class="cls-2" x="1861.09" y="1177.15" width="3.71" height="41.47" transform="translate(-176.58 2546.75) rotate(-80.62)"/><rect class="cls-2" x="1859.04" y="1189.55" width="3.71" height="41.47" transform="matrix(0.16, -0.99, 0.99, 0.16, -189.74, 2555.83)"/><rect class="cls-2" x="1856.59" y="1204.41" width="3.71" height="41.47" transform="translate(-206.93 2565.43) rotate(-80.63)"/><rect class="cls-2" x="1852.83" y="1227.2" width="3.71" height="41.47" transform="translate(-232.45 2580.9) rotate(-80.63)"/><rect class="cls-2" x="1848.86" y="1251.3" width="3.71" height="41.47" transform="translate(-259.59 2597.11) rotate(-80.63)"/><rect class="cls-2" x="1842.76" y="1288.24" width="3.71" height="41.47" transform="matrix(0.16, -0.99, 0.99, 0.16, -300.79, 2622.38)"/><rect class="cls-2" x="1837.05" y="1322.83" width="3.71" height="41.47" transform="translate(-340.44 2644.96) rotate(-80.62)"/><rect class="cls-2" x="1831.96" y="1353.72" width="3.71" height="41.47" transform="translate(-374.75 2666.23) rotate(-80.63)"/><rect class="cls-2" x="1863.04" y="1165.35" width="3.71" height="41.47" transform="matrix(0.16, -0.99, 0.99, 0.16, -162.55, 2539.48)"/><rect class="cls-2" x="1864.32" y="1157.55" width="3.71" height="41.47" transform="translate(-154.15 2533.89) rotate(-80.63)"/><rect class="cls-2" x="1865.57" y="1150.02" width="3.71" height="41.47" transform="matrix(0.16, -0.99, 0.99, 0.16, -145.31, 2529.14)"/><path class="cls-2" d="M1847.59,1163.56l40.93,6.73.37-2.29a6.54,6.54,0,0,0,.09-1.39l-40.64-6.69a6.91,6.91,0,0,0-.37,1.35Z" transform="translate(-553.91 -293.82)"/><path class="cls-2" d="M1849,1158.57l39.72,6.53a8.18,8.18,0,0,0-2.72-4.2l-33.06-5.44A8.26,8.26,0,0,0,1849,1158.57Z" transform="translate(-553.91 -293.82)"/><path class="cls-1" d="M1900.09,1154.94l23.11,3.8a9.81,9.81,0,0,1,4.75,2.16,8.2,8.2,0,0,1,2.73,4.2,7,7,0,0,1,.22,1.51,6.53,6.53,0,0,1-.08,1.39l-53.17,322.25c-.69,4.16-5,7-9.74,6.4l-.45-.06-23.12-3.8-.45-.09c-4.65-1-7.85-5-7.17-9.17l53.17-322.26a7.69,7.69,0,0,1,.37-1.35,6.66,6.66,0,0,1,.7-1.35,8.19,8.19,0,0,1,3.93-3.11A9.93,9.93,0,0,1,1900.09,1154.94Z" transform="translate(-553.91 -293.82)"/><path class="cls-2" d="M1906,1318.45l-28.49,172.64c-.61,3.71-4.88,6.14-9.6,5.56l-.45-.06-23.12-3.8-.45-.09c-4.66-1-7.92-4.63-7.3-8.34l25-151.44C1874,1332.48,1891.61,1329.59,1906,1318.45Z" transform="translate(-553.91 -293.82)"/><rect class="cls-2" x="1903.02" y="1177.15" width="3.71" height="41.47" transform="translate(-141.49 2588.12) rotate(-80.62)"/><rect class="cls-2" x="1900.97" y="1189.55" width="3.71" height="41.47" transform="translate(-154.59 2597.24) rotate(-80.64)"/><rect class="cls-2" x="1898.52" y="1204.41" width="3.71" height="41.47" transform="translate(-171.83 2606.79) rotate(-80.63)"/><rect class="cls-2" x="1894.76" y="1227.2" width="3.71" height="41.47" transform="translate(-197.39 2622.23) rotate(-80.63)"/><rect class="cls-2" x="1890.78" y="1251.3" width="3.71" height="41.47" transform="translate(-224.49 2638.48) rotate(-80.63)"/><rect class="cls-2" x="1884.69" y="1288.24" width="3.71" height="41.47" transform="translate(-266.12 2663.32) rotate(-80.63)"/><rect class="cls-2" x="1878.98" y="1322.83" width="3.71" height="41.47" transform="translate(-304.96 2686.71) rotate(-80.63)"/><rect class="cls-2" x="1873.88" y="1353.72" width="3.71" height="41.47" transform="translate(-339.69 2707.55) rotate(-80.63)"/><rect class="cls-2" x="1904.96" y="1165.35" width="3.71" height="41.47" transform="translate(-127.89 2580.45) rotate(-80.63)"/><rect class="cls-2" x="1906.25" y="1157.55" width="3.71" height="41.47" transform="translate(-118.6 2575.65) rotate(-80.64)"/><rect class="cls-2" x="1907.49" y="1150.02" width="3.71" height="41.47" transform="translate(-110.2 2570.51) rotate(-80.64)"/><path class="cls-2" d="M1889.52,1163.56l40.92,6.73.38-2.29a6.53,6.53,0,0,0,.08-1.39l-40.64-6.69a7.69,7.69,0,0,0-.37,1.35Z" transform="translate(-553.91 -293.82)"/><path class="cls-2" d="M1891,1158.57l39.72,6.53a8.2,8.2,0,0,0-2.73-4.2l-33.06-5.44A8.19,8.19,0,0,0,1891,1158.57Z" transform="translate(-553.91 -293.82)"/><path class="cls-1" d="M1746.76,1464.31l0,23.42a9.81,9.81,0,0,1-1.36,5,8.33,8.33,0,0,1-3.72,3.37,6.62,6.62,0,0,1-1.45.46,7,7,0,0,1-1.39.14l-326.61-.78c-4.21,0-7.67-3.83-7.87-8.58,0-.15,0-.31,0-.46l0-23.42c0-.16,0-.31,0-.47.22-4.75,3.7-8.55,7.91-8.54l326.61.78a7.12,7.12,0,0,1,1.39.14,6.56,6.56,0,0,1,1.44.47,8.24,8.24,0,0,1,3.71,3.39A9.8,9.8,0,0,1,1746.76,1464.31Z" transform="translate(-553.91 -293.82)"/><path class="cls-2" d="M1586.32,1496.38l-175-.42c-3.76,0-6.85-3.83-7-8.58,0-.15,0-.31,0-.46l0-23.42c0-.16,0-.31,0-.47.2-4.75,3.3-8.55,7.06-8.54l153.49.36C1567.34,1467.07,1573,1484,1586.32,1496.38Z" transform="translate(-553.91 -293.82)"/><rect class="cls-2" x="1684.41" y="1474.07" width="41.47" height="3.71" transform="matrix(0, -1, 1, 0, -328.73, 2883.74)"/><rect class="cls-2" x="1671.84" y="1474.04" width="41.47" height="3.71" transform="matrix(0, -1, 1, 0, -341.23, 2871.15)"/><rect class="cls-2" x="1656.77" y="1474" width="41.47" height="3.71" transform="translate(-356.68 2855.64) rotate(-89.85)"/><rect class="cls-2" x="1633.68" y="1473.95" width="41.47" height="3.71" transform="translate(-379.17 2832.93) rotate(-89.87)"/><rect class="cls-2" x="1609.25" y="1473.89" width="41.47" height="3.71" transform="matrix(0, -1, 1, 0, -403.52, 2808.41)"/><rect class="cls-2" x="1571.81" y="1473.8" width="41.47" height="3.71" transform="matrix(0, -1, 1, 0, -440.79, 2770.88)"/><rect class="cls-2" x="1536.75" y="1473.72" width="41.47" height="3.71" transform="translate(-475.68 2735.74) rotate(-89.86)"/><rect class="cls-2" x="1505.45" y="1473.64" width="41.47" height="3.71" transform="translate(-507.2 2704) rotate(-89.85)"/><rect class="cls-2" x="1696.37" y="1474.1" width="41.47" height="3.71" transform="translate(-316.82 2895.73) rotate(-89.86)"/><rect class="cls-2" x="1704.27" y="1474.11" width="41.47" height="3.71" transform="translate(-308.49 2904.05) rotate(-89.88)"/><rect class="cls-2" x="1711.9" y="1474.13" width="41.47" height="3.71" transform="matrix(0, -1, 1, 0, -301.36, 2911.3)"/><path class="cls-2" d="M1736.56,1455.26l-.08,41.47h2.32a7,7,0,0,0,1.39-.14l.08-41.19a7.12,7.12,0,0,0-1.39-.14Z" transform="translate(-553.91 -293.82)"/><path class="cls-2" d="M1741.71,1455.88l-.07,40.26a8.33,8.33,0,0,0,3.72-3.37l.06-33.5A8.24,8.24,0,0,0,1741.71,1455.88Z" transform="translate(-553.91 -293.82)"/><path class="cls-1" d="M1711.92,1422.75l0,23.42a9.91,9.91,0,0,1-1.37,5,8.19,8.19,0,0,1-3.71,3.37,6.79,6.79,0,0,1-1.45.46,7.12,7.12,0,0,1-1.39.14l-326.61-.77c-4.21,0-7.67-3.83-7.88-8.58,0-.16,0-.31,0-.47l0-23.42c0-.15,0-.31,0-.46.22-4.75,3.69-8.56,7.9-8.55l326.61.78.63,0,.26,0,.3,0,.21,0a6.71,6.71,0,0,1,1.44.46l.21.1.2.1.39.22.23.15a1.37,1.37,0,0,1,.2.13l.37.27.41.35.3.28,0,0,.2.21c.2.21.39.44.57.67l.16.21.15.22.29.46A9.86,9.86,0,0,1,1711.92,1422.75Z" transform="translate(-553.91 -293.82)"/><path class="cls-2" d="M1551.48,1454.82l-175-.41c-3.76,0-6.85-3.83-7-8.58,0-.16,0-.31,0-.47l0-23.42c0-.15,0-.31,0-.46.2-4.75,3.3-8.56,7.06-8.55l153.48.37q.11.5.21,1C1532.82,1426.44,1538.54,1442.75,1551.48,1454.82Z" transform="translate(-553.91 -293.82)"/><rect class="cls-2" x="1649.56" y="1432.51" width="41.47" height="3.71" transform="translate(-321.89 2807.48) rotate(-89.87)"/><rect class="cls-2" x="1637" y="1432.48" width="41.47" height="3.71" transform="translate(-334.39 2794.88) rotate(-89.87)"/><rect class="cls-2" x="1621.93" y="1432.44" width="41.47" height="3.71" transform="matrix(0, -1, 1, 0, -349.43, 2779.74)"/><rect class="cls-2" x="1598.83" y="1432.39" width="41.47" height="3.71" transform="matrix(0, -1, 1, 0, -372.42, 2756.59)"/><rect class="cls-2" x="1574.41" y="1432.33" width="41.47" height="3.71" transform="translate(-396.3 2732.49) rotate(-89.88)"/><rect class="cls-2" x="1536.97" y="1432.24" width="41.47" height="3.71" transform="translate(-434.37 2694.23) rotate(-89.85)"/><rect class="cls-2" x="1501.91" y="1432.16" width="41.47" height="3.71" transform="matrix(0, -1, 1, 0, -468.88, 2659.44)"/><rect class="cls-2" x="1470.6" y="1432.08" width="41.47" height="3.71" transform="translate(-499.64 2628.44) rotate(-89.88)"/><rect class="cls-2" x="1661.52" y="1432.54" width="41.47" height="3.71" transform="translate(-309.98 2819.47) rotate(-89.87)"/><rect class="cls-2" x="1669.42" y="1432.56" width="41.47" height="3.71" transform="translate(-302.16 2827.35) rotate(-89.86)"/><rect class="cls-2" x="1677.05" y="1432.58" width="41.47" height="3.71" transform="matrix(0, -1, 1, 0, -294.57, 2835)"/><path class="cls-2" d="M1701.71,1413.7l-.07,41.48H1704a7.12,7.12,0,0,0,1.39-.14l.07-41.18a6.37,6.37,0,0,0-1.39-.15Z" transform="translate(-553.91 -293.82)"/><path class="cls-2" d="M1706.87,1414.32l-.07,40.26a8.25,8.25,0,0,0,3.71-3.37l.06-33.5A8.28,8.28,0,0,0,1706.87,1414.32Z" transform="translate(-553.91 -293.82)"/><path class="cls-1" d="M1728.87,1382.34l0,23.42a9.81,9.81,0,0,1-1.36,5,8.19,8.19,0,0,1-3.71,3.37,6.79,6.79,0,0,1-1.45.46,7.23,7.23,0,0,1-1.4.14l-326.6-.77a7.1,7.1,0,0,1-3.64-1,9.13,9.13,0,0,1-4.21-7.14,2.8,2.8,0,0,1,0-.4c0-.16,0-.31,0-.47l0-23.42c0-.15,0-.31,0-.46.23-4.75,3.7-8.56,7.91-8.55l326.61.78a6.37,6.37,0,0,1,1.39.15,6.62,6.62,0,0,1,1.45.46,8.33,8.33,0,0,1,3.7,3.39A10,10,0,0,1,1728.87,1382.34Z" transform="translate(-553.91 -293.82)"/><path class="cls-2" d="M1568.43,1414.41l-175-.41a5.84,5.84,0,0,1-3.25-1,9.35,9.35,0,0,1-3.75-7.14,2.8,2.8,0,0,1,0-.4c0-.16,0-.31,0-.47l0-23.42c0-.15,0-.31,0-.46.2-4.75,3.31-8.56,7.07-8.55l153.48.37c2.37,11.88,7.81,28.19,20.34,40.49C1567.71,1413.73,1568.06,1414.07,1568.43,1414.41Z" transform="translate(-553.91 -293.82)"/><path class="cls-1" d="M1736.76,1340.89l0,23.42a9.81,9.81,0,0,1-1.36,5,8.2,8.2,0,0,1-3.72,3.36,6.56,6.56,0,0,1-1.44.47,7.23,7.23,0,0,1-1.4.14l-326.6-.78c-4.21,0-7.68-3.83-7.88-8.58,0-.15,0-.31,0-.46l0-23.42c0-.16,0-.31,0-.47.21-4.39,3.2-8,7-8.48a7,7,0,0,1,.93-.06l326.61.77a7,7,0,0,1,1.39.15,6.82,6.82,0,0,1,1.45.47,8.27,8.27,0,0,1,3.7,3.39A9.8,9.8,0,0,1,1736.76,1340.89Z" transform="translate(-553.91 -293.82)"/><path class="cls-2" d="M1576.33,1373l-175-.42c-3.76,0-6.85-3.83-7-8.58,0-.15,0-.31,0-.46l0-23.42c0-.16,0-.31,0-.47.18-4.39,2.86-8,6.23-8.48a4.57,4.57,0,0,1,.83-.06l153.49.36a.17.17,0,0,1,0,.07C1557.36,1343.7,1563.05,1360.56,1576.33,1373Z" transform="translate(-553.91 -293.82)"/><path class="cls-1" d="M1712.83,1299.42l0,23.42a9.91,9.91,0,0,1-1.37,5,8.31,8.31,0,0,1-3.71,3.37,6.79,6.79,0,0,1-1.45.46l-.46.08-.26,0-.25,0h-.42l-326.61-.77c-4.21,0-7.67-3.83-7.88-8.58,0-.16,0-.31,0-.47l.05-23.42c0-.15,0-.31,0-.46s0-.26,0-.38a8.8,8.8,0,0,1,5.94-7.89l.24-.07a6.91,6.91,0,0,1,1.71-.21l326.6.78c.24,0,.48,0,.71,0l.31,0h0a2.29,2.29,0,0,1,.36.07,6.62,6.62,0,0,1,1.45.46,8.28,8.28,0,0,1,3.7,3.39A9.83,9.83,0,0,1,1712.83,1299.42Z" transform="translate(-553.91 -293.82)"/><path class="cls-2" d="M1552.39,1331.49l-175-.42c-3.75,0-6.84-3.82-7-8.57,0-.16,0-.31,0-.47l.05-23.42c0-.15,0-.31,0-.46s0-.26,0-.38c.29-3.91,2.55-7.11,5.49-8l.3-.08a5.7,5.7,0,0,1,1.25-.14L1531,1290a1.59,1.59,0,0,0,.06.3c2.45,12.17,8.13,28.86,21.28,41.16Z" transform="translate(-553.91 -293.82)"/><path class="cls-1" d="M1712.22,1258.24l0,23.42a9.81,9.81,0,0,1-1.36,5,8.31,8.31,0,0,1-3.71,3.37,8,8,0,0,1-1.13.39h0l-.31.07a7.12,7.12,0,0,1-1.39.14l-326.61-.77a6.79,6.79,0,0,1-1-.09,2.44,2.44,0,0,1-.39-.07c-3.55-.74-6.29-4.22-6.47-8.43,0-.15,0-.31,0-.46l0-23.42c0-.16,0-.31,0-.46.23-4.76,3.7-8.56,7.91-8.55l326.61.78.63,0,.26,0,.3,0,.2,0a6.62,6.62,0,0,1,1.45.46l.21.1.2.1.39.22.43.28a3.18,3.18,0,0,1,.37.27c.14.11.28.22.41.34l.3.29,0,0,.2.2c.2.22.39.45.57.68l.16.21.15.22c.1.15.2.3.29.46A9.83,9.83,0,0,1,1712.22,1258.24Z" transform="translate(-553.91 -293.82)"/><path class="cls-2" d="M1551.78,1290.31l-175-.42h-.41a3.25,3.25,0,0,1-.45-.06c-3.37-.54-6-4.12-6.17-8.51,0-.15,0-.31,0-.46l0-23.42c0-.16,0-.31,0-.46.21-4.76,3.31-8.56,7.07-8.55l153.48.36.21,1c2.52,12,8.18,28.16,20.89,40.2Z" transform="translate(-553.91 -293.82)"/><path class="cls-1" d="M1729.17,1217.83l-.05,23.42a9.81,9.81,0,0,1-1.36,5,8.28,8.28,0,0,1-3.72,3.37,6.53,6.53,0,0,1-1.44.46,7.23,7.23,0,0,1-1.4.14l-326.6-.78a7,7,0,0,1-3.64-1,9.17,9.17,0,0,1-4.22-7.14c0-.14,0-.27,0-.41s0-.31,0-.46l0-23.42c0-.16,0-.31,0-.47.23-4.75,3.7-8.55,7.91-8.54l326.61.78a7,7,0,0,1,1.39.14,7.23,7.23,0,0,1,1.45.47,8.27,8.27,0,0,1,3.7,3.39A9.93,9.93,0,0,1,1729.17,1217.83Z" transform="translate(-553.91 -293.82)"/><path class="cls-2" d="M1568.72,1249.9l-175-.42a5.75,5.75,0,0,1-3.25-1,9.41,9.41,0,0,1-3.76-7.14c0-.14,0-.27,0-.41s0-.31,0-.46l0-23.42c0-.16,0-.31,0-.47.2-4.75,3.31-8.55,7.06-8.54l153.49.36c2.37,11.88,7.81,28.2,20.34,40.5Z" transform="translate(-553.91 -293.82)"/><path class="cls-1" d="M1755.93,1176.42l0,23.42a10,10,0,0,1-1.36,5,8.33,8.33,0,0,1-3.72,3.37,6.62,6.62,0,0,1-1.45.46,7,7,0,0,1-1.39.14l-326.61-.78c-4.21,0-7.67-3.83-7.88-8.58V1199l0-23.42c0-.16,0-.31,0-.47.2-4.39,3.19-8,7-8.48a7.3,7.3,0,0,1,.94-.06l326.6.78a7.23,7.23,0,0,1,1.4.14,6.56,6.56,0,0,1,1.44.47,8.24,8.24,0,0,1,3.71,3.39A9.92,9.92,0,0,1,1755.93,1176.42Z" transform="translate(-553.91 -293.82)"/><path class="cls-2" d="M1595.49,1208.49l-175-.42c-3.75,0-6.84-3.83-7-8.58V1199l0-23.42c0-.16,0-.31,0-.47.18-4.39,2.85-8,6.23-8.48a5.69,5.69,0,0,1,.83-.06l153.49.36s0,0,0,.07C1576.53,1179.24,1582.21,1196.1,1595.49,1208.49Z" transform="translate(-553.91 -293.82)"/><path class="cls-1" d="M1713.13,1134.91l-.05,23.42a9.81,9.81,0,0,1-1.36,5,8.31,8.31,0,0,1-3.71,3.37,6.79,6.79,0,0,1-1.45.46l-.46.08-.37,0h-.56l-326.61-.78c-4.21,0-7.67-3.83-7.88-8.58,0-.15,0-.31,0-.46l0-23.42c0-.16,0-.31,0-.47.23-4.75,3.7-8.55,7.91-8.54l326.61.78h.42a7.55,7.55,0,0,1,1,.13,6.64,6.64,0,0,1,1.45.47,6.19,6.19,0,0,1,.68.35c.14.08.28.16.41.25l0,0c.14.09.27.19.4.29a.18.18,0,0,1,.07,0l.35.29a6.47,6.47,0,0,1,.78.79,2.85,2.85,0,0,1,.23.26l0,0,.13.17,0,0c.08.1.15.21.23.33s.21.32.31.49A9.8,9.8,0,0,1,1713.13,1134.91Z" transform="translate(-553.91 -293.82)"/><path class="cls-2" d="M1552.69,1167l-175-.42c-3.75,0-6.85-3.83-7-8.58,0-.15,0-.31,0-.46l0-23.42c0-.16,0-.31,0-.47.21-4.75,3.31-8.55,7.07-8.54l153.48.36c.07.32.13.64.2,1,2.53,12.11,8.24,28.42,21.15,40.5Z" transform="translate(-553.91 -293.82)"/><path class="cls-1" d="M1737.21,1094.45l0,23.42a9.81,9.81,0,0,1-1.36,5,8.28,8.28,0,0,1-3.72,3.37,6.71,6.71,0,0,1-1.44.46,7.23,7.23,0,0,1-1.4.14l-326.6-.77a7.16,7.16,0,0,1-3.53-1,9.14,9.14,0,0,1-4.33-7.25c0-.12,0-.24,0-.37s0-.3,0-.46l0-23.42c0-.16,0-.31,0-.46.21-4.4,3.2-8,7-8.48a5.65,5.65,0,0,1,.93-.07l326.61.78a7.12,7.12,0,0,1,1.39.14,7.44,7.44,0,0,1,1.45.47,8.33,8.33,0,0,1,3.7,3.39A9.82,9.82,0,0,1,1737.21,1094.45Z" transform="translate(-553.91 -293.82)"/><path class="cls-2" d="M1576.77,1126.52l-175-.42a5.8,5.8,0,0,1-3.15-1,9.35,9.35,0,0,1-3.86-7.25c0-.12,0-.24,0-.37s0-.3,0-.46l0-23.42c0-.16,0-.31,0-.46.18-4.39,2.85-8,6.23-8.49a5.69,5.69,0,0,1,.83-.06l153.49.36a.17.17,0,0,1,0,.07c2.38,11.9,7.84,28.21,20.4,40.5Z" transform="translate(-553.91 -293.82)"/><path class="cls-1" d="M1713.28,1053l0,23.42a9.8,9.8,0,0,1-1.36,5,8.19,8.19,0,0,1-3.71,3.37,6.27,6.27,0,0,1-1.45.46l-.46.08-.26,0-.26,0-.42,0-326.6-.78c-4.21,0-7.67-3.83-7.88-8.58,0-.16,0-.31,0-.47l0-23.42c0-.15,0-.31,0-.46.23-4.75,3.7-8.55,7.91-8.54l326.61.77a6.37,6.37,0,0,1,1.39.15,6.64,6.64,0,0,1,1.45.47,8.25,8.25,0,0,1,3.7,3.38A9.87,9.87,0,0,1,1713.28,1053Z" transform="translate(-553.91 -293.82)"/><path class="cls-2" d="M1552.84,1085.05l-175-.41c-3.76,0-6.85-3.83-7-8.58,0-.16,0-.31,0-.47l0-23.42c0-.15,0-.31,0-.46.21-4.75,3.31-8.55,7.07-8.55l153.48.37c2.43,12.19,8.09,29,21.35,41.46Z" transform="translate(-553.91 -293.82)"/><rect class="cls-2" x="1666.51" y="1392.1" width="41.47" height="3.71" transform="translate(-264.61 2784.07) rotate(-89.86)"/><rect class="cls-2" x="1653.95" y="1392.07" width="41.47" height="3.71" transform="translate(-276.67 2771.85) rotate(-89.88)"/><rect class="cls-2" x="1638.88" y="1392.03" width="41.47" height="3.71" transform="translate(-291.71 2756.71) rotate(-89.88)"/><rect class="cls-2" x="1615.78" y="1391.98" width="41.47" height="3.71" transform="translate(-315.1 2733.22) rotate(-89.86)"/><rect class="cls-2" x="1591.36" y="1391.92" width="41.47" height="3.71" transform="translate(-339.41 2708.74) rotate(-89.86)"/><rect class="cls-2" x="1553.91" y="1391.83" width="41.47" height="3.71" transform="translate(-376.67 2671.21) rotate(-89.86)"/><rect class="cls-2" x="1518.86" y="1391.75" width="41.47" height="3.71" transform="translate(-411.15 2636.45) rotate(-89.88)"/><rect class="cls-2" x="1487.55" y="1391.68" width="41.47" height="3.71" transform="translate(-442.72 2604.69) rotate(-89.86)"/><rect class="cls-2" x="1678.47" y="1392.13" width="41.47" height="3.71" transform="matrix(0, -1, 1, 0, -252.71, 2796.06)"/><rect class="cls-2" x="1686.37" y="1392.15" width="41.47" height="3.71" transform="translate(-244.39 2804.36) rotate(-89.88)"/><rect class="cls-2" x="1694" y="1392.16" width="41.47" height="3.71" transform="matrix(0, -1, 1, 0, -237.25, 2811.63)"/><path class="cls-2" d="M1718.66,1373.29l-.07,41.48h2.32a7.2,7.2,0,0,0,1.39-.14l.07-41.18a6.37,6.37,0,0,0-1.39-.15Z" transform="translate(-553.91 -293.82)"/><path class="cls-2" d="M1723.82,1373.91l-.07,40.26a8.31,8.31,0,0,0,3.71-3.37l.06-33.5A8.27,8.27,0,0,0,1723.82,1373.91Z" transform="translate(-553.91 -293.82)"/><rect class="cls-2" x="1561.81" y="1350.38" width="41.47" height="3.71" transform="matrix(0, -1, 1, 0, -327.34, 2637.75)"/><rect class="cls-2" x="1526.76" y="1350.29" width="41.47" height="3.71" transform="translate(-362.19 2602.65) rotate(-89.87)"/><rect class="cls-2" x="1495.45" y="1350.22" width="41.47" height="3.71" transform="translate(-393.38 2571.23) rotate(-89.86)"/><path class="cls-2" d="M1708.92,1373.27l.08-41.47h-3.26l.52-.08.08-41.19c-.23,0-.46-.08-.69-.1l.07-40.19h1.45l-.07,39.84a8.31,8.31,0,0,0,3.71-3.37l.06-33.5a8.45,8.45,0,0,0-2.94-3h1.3l.07-41.47h-3.71l-.07,40.56a6.67,6.67,0,0,0-1.19-.11H1702l-.07,41.48h.68l-.07,41.17h2.32l.42,0-.08,41.43Z" transform="translate(-553.91 -293.82)"/><rect class="cls-2" x="1694.27" y="1350.69" width="41.47" height="3.71" transform="translate(-195.51 2770.52) rotate(-89.86)"/><rect class="cls-2" x="1701.9" y="1350.71" width="41.47" height="3.71" transform="matrix(0, -1, 1, 0, -188.33, 2777.84)"/><path class="cls-2" d="M1726.56,1331.84l-.08,41.47h2.32a6.53,6.53,0,0,0,1.4-.15l.07-41.18a6.37,6.37,0,0,0-1.39-.15Z" transform="translate(-553.91 -293.82)"/><path class="cls-2" d="M1731.72,1332.46l-.08,40.25a8.17,8.17,0,0,0,3.72-3.37l.06-33.5A8.31,8.31,0,0,0,1731.72,1332.46Z" transform="translate(-553.91 -293.82)"/><polygon class="cls-2" points="1119.12 1037.95 1119.19 996.48 1118.51 996.48 1118.58 955.3 1114.87 955.29 1114.8 996.77 1115.48 996.77 1115.41 1037.88 1111.79 1037.87 1111.71 1079.35 1115.42 1079.35 1115.5 1037.95 1119.12 1037.95"/><polygon class="cls-2" points="1091.56 996.41 1090.88 996.41 1090.95 955.24 1087.24 955.23 1087.16 996.7 1087.85 996.7 1087.78 1037.88 1088.69 1037.88 1088.62 1079.29 1092.33 1079.3 1092.4 1037.83 1091.49 1037.82 1091.56 996.41"/><path class="cls-2" d="M1707.78,1291l-.07,40.26a8.31,8.31,0,0,0,3.71-3.37l.06-33.5A8.22,8.22,0,0,0,1707.78,1291Z" transform="translate(-553.91 -293.82)"/><polygon class="cls-2" points="1067.85 955.18 1064.14 955.17 1064.07 996.65 1064.75 996.65 1064.68 1037.76 1064.27 1037.76 1064.19 1079.23 1067.9 1079.24 1067.98 1037.83 1068.39 1037.83 1068.46 996.36 1067.78 996.36 1067.85 955.18"/><polygon class="cls-2" points="1043.43 955.12 1039.72 955.11 1039.64 996.59 1040.33 996.59 1040.26 1037.77 1043.97 1037.78 1044.04 996.3 1043.36 996.3 1043.43 955.12"/><polygon class="cls-2" points="1005.99 955.03 1002.28 955.03 1002.2 996.5 1002.89 996.5 1002.81 1037.68 1006.52 1037.69 1006.6 996.21 1005.91 996.21 1005.99 955.03"/><polygon class="cls-2" points="970.93 954.95 967.22 954.94 967.14 996.42 967.83 996.42 967.75 1037.6 971.47 1037.6 971.54 996.13 970.86 996.13 970.93 954.95"/><polygon class="cls-2" points="939.63 954.88 935.91 954.87 935.84 996.34 936.53 996.34 936.45 1037.52 940.16 1037.53 940.24 996.06 939.55 996.05 939.63 954.88"/><polygon class="cls-2" points="1130.54 955.33 1126.83 955.32 1126.76 996.79 1127.44 996.8 1127.37 1037.91 1126.86 1037.91 1126.78 1079.38 1130.49 1079.39 1130.57 1037.98 1131.08 1037.98 1131.16 996.51 1130.47 996.51 1130.54 955.33"/><polygon class="cls-2" points="1138.44 955.35 1135.46 955.34 1135.53 914.89 1131.82 914.88 1131.74 956.36 1134.73 956.36 1134.66 996.81 1135.35 996.82 1135.27 1037.99 1138.98 1038 1139.06 996.53 1138.37 996.53 1138.44 955.35"/><rect class="cls-2" x="1654.24" y="1227.56" width="41.47" height="3.71" transform="translate(-112.31 2607.66) rotate(-89.86)"/><polygon class="cls-2" points="1104.11 955.27 1102.31 955.26 1102.23 996.74 1102.92 996.74 1102.84 1037.91 1106.56 1037.92 1106.63 996.45 1105.94 996.45 1106.02 956.29 1107.82 956.3 1107.9 914.83 1104.19 914.82 1104.11 955.27"/><rect class="cls-2" x="1616.08" y="1227.47" width="41.47" height="3.71" transform="translate(-150.73 2569.07) rotate(-89.85)"/><rect class="cls-2" x="1591.66" y="1227.41" width="41.47" height="3.71" transform="translate(-174.6 2544.92) rotate(-89.86)"/><rect class="cls-2" x="1554.21" y="1227.32" width="41.47" height="3.71" transform="translate(-211.82 2507.42) rotate(-89.87)"/><rect class="cls-2" x="1519.16" y="1227.24" width="41.47" height="3.71" transform="translate(-246.38 2472.55) rotate(-89.88)"/><rect class="cls-2" x="1487.85" y="1227.16" width="41.47" height="3.71" transform="translate(-277.91 2440.87) rotate(-89.86)"/><polygon class="cls-2" points="1143.71 955.36 1142.36 955.36 1142.29 996.83 1142.97 996.83 1142.9 1037.95 1139.42 1037.94 1139.35 1079.41 1143.06 1079.42 1143.13 1038.01 1146.61 1038.02 1146.69 996.55 1146 996.54 1146.07 956.39 1147.42 956.39 1147.49 914.92 1143.78 914.91 1143.71 955.36"/><rect class="cls-2" x="1694.3" y="1227.65" width="41.47" height="3.71" transform="matrix(0, -1, 1, 0, -72.44, 2647.81)"/><path class="cls-2" d="M1722.6,1250.12l.07-41.18a6.37,6.37,0,0,0-1.39-.15H1719l-.08,41.47h2.33A7.2,7.2,0,0,0,1722.6,1250.12Z" transform="translate(-553.91 -293.82)"/><path class="cls-2" d="M1727.76,1246.29l.06-33.5a8.33,8.33,0,0,0-3.7-3.39l-.08,40.26A8.28,8.28,0,0,0,1727.76,1246.29Z" transform="translate(-553.91 -293.82)"/><rect class="cls-2" x="1693.58" y="1186.18" width="41.47" height="3.71" transform="translate(-31.69 2605.7) rotate(-89.86)"/><rect class="cls-2" x="1642.85" y="1186.06" width="41.47" height="3.71" transform="matrix(0, -1, 1, 0, -82.18, 2554.85)"/><rect class="cls-2" x="1618.42" y="1186" width="41.47" height="3.71" transform="translate(-106.48 2530.37) rotate(-89.86)"/><rect class="cls-2" x="1580.98" y="1185.91" width="41.47" height="3.71" transform="translate(-143.75 2492.84) rotate(-89.86)"/><rect class="cls-2" x="1545.92" y="1185.83" width="41.47" height="3.71" transform="translate(-178.64 2457.7) rotate(-89.86)"/><rect class="cls-2" x="1514.62" y="1185.75" width="41.47" height="3.71" transform="translate(-209.38 2426.65) rotate(-89.88)"/><rect class="cls-2" x="1705.54" y="1186.21" width="41.47" height="3.71" transform="translate(-19.78 2617.69) rotate(-89.86)"/><rect class="cls-2" x="1713.44" y="1186.23" width="41.47" height="3.71" transform="matrix(0, -1, 1, 0, -11.92, 2625.61)"/><rect class="cls-2" x="1721.07" y="1186.24" width="41.47" height="3.71" transform="translate(-4.28 2633.29) rotate(-89.87)"/><path class="cls-2" d="M1745.73,1167.37l-.08,41.47H1748a7.23,7.23,0,0,0,1.4-.14l.07-41.19a7.12,7.12,0,0,0-1.39-.14Z" transform="translate(-553.91 -293.82)"/><path class="cls-2" d="M1750.88,1168l-.07,40.26a8.33,8.33,0,0,0,3.72-3.37l.06-33.5A8.24,8.24,0,0,0,1750.88,1168Z" transform="translate(-553.91 -293.82)"/><polygon class="cls-2" points="1115.71 873.43 1119.42 873.45 1119.49 831.97 1115.87 831.96 1115.95 791.51 1119.57 791.52 1119.64 750.04 1115.93 750.04 1115.86 791.45 1112.24 791.44 1112.16 832.91 1115.78 832.92 1115.71 873.43"/><rect class="cls-2" x="1638.21" y="1144.64" width="41.47" height="3.71" transform="translate(-45.83 2508.58) rotate(-89.85)"/><rect class="cls-2" x="1575.62" y="1144.49" width="41.47" height="3.71" transform="translate(-107.68 2446.16) rotate(-89.86)"/><rect class="cls-2" x="1538.18" y="1144.4" width="41.47" height="3.71" transform="translate(-144.9 2408.66) rotate(-89.87)"/><rect class="cls-2" x="1503.12" y="1144.32" width="41.47" height="3.71" transform="matrix(0, -1, 1, 0, -179.83, 2373.49)"/><rect class="cls-2" x="1471.81" y="1144.24" width="41.47" height="3.71" transform="translate(-210.95 2342.14) rotate(-89.87)"/><polygon class="cls-2" points="1127.67 873.46 1130.95 873.47 1130.88 914.88 1134.59 914.89 1134.67 873.41 1131.38 873.41 1131.45 832 1130.94 832 1131.02 791.55 1131.53 791.55 1131.61 750.07 1127.89 750.07 1127.82 791.47 1127.3 791.47 1127.23 832.95 1127.74 832.95 1127.67 873.46"/><rect class="cls-2" x="1670.63" y="1144.72" width="41.47" height="3.71" transform="translate(-12.21 2542.01) rotate(-89.89)"/><path class="cls-2" d="M1708.72,1126.83h.65l.08-41.47h-3.26a4.34,4.34,0,0,0,.52-.08l.07-41.18a6.37,6.37,0,0,0-1.39-.15h-2.32l-.07,41.47h2.31a3,3,0,0,0,.43,0l-.08,40.5-.42,0h-2.32l-.07,41.41h-2l.07-41.41h-3.48l.08-40.45H1701l.07-41.48h-3.71l-.07,41.41h-3.48l-.08,41.48h3.48l-.07,40.52h2.82l-.08,41.41h3.72l.07-41.41h1.53a7.12,7.12,0,0,0,1.39-.14l.07-40.37h1.45l-.07,39.91a8.31,8.31,0,0,0,3.71-3.37l.06-33.5A8.33,8.33,0,0,0,1708.72,1126.83Z" transform="translate(-553.91 -293.82)"/><rect class="cls-2" x="1562.26" y="1103.94" width="41.47" height="3.71" transform="translate(-80.03 2392.65) rotate(-89.88)"/><rect class="cls-2" x="1527.2" y="1103.86" width="41.47" height="3.71" transform="matrix(0, -1, 1, 0, -115.35, 2357.21)"/><rect class="cls-2" x="1495.9" y="1103.78" width="41.47" height="3.71" transform="translate(-146.5 2325.83) rotate(-89.86)"/><rect class="cls-2" x="1694.72" y="1104.26" width="41.47" height="3.71" transform="translate(51.42 2525.15) rotate(-89.87)"/><rect class="cls-2" x="1702.35" y="1104.27" width="41.47" height="3.71" transform="matrix(0, -1, 1, 0, 58.97, 2532.77)"/><path class="cls-2" d="M1727,1085.4l-.08,41.48h2.32a7.23,7.23,0,0,0,1.4-.14l.07-41.19a7.12,7.12,0,0,0-1.39-.14Z" transform="translate(-553.91 -293.82)"/><path class="cls-2" d="M1735.81,1122.91l.06-33.5a8.27,8.27,0,0,0-3.7-3.39l-.08,40.26A8.28,8.28,0,0,0,1735.81,1122.91Z" transform="translate(-553.91 -293.82)"/><rect class="cls-2" x="1638.35" y="1062.71" width="41.47" height="3.71" transform="translate(36.69 2427.31) rotate(-89.86)"/><polygon class="cls-2" points="1092.01 749.98 1088.3 749.97 1088.22 791.45 1089.14 791.45 1089.07 831.9 1088.15 831.9 1088.07 873.37 1091.79 873.38 1091.86 832.86 1092.78 832.86 1092.85 791.39 1091.93 791.39 1092.01 749.98"/><polygon class="cls-2" points="1065.13 791.32 1064.71 791.32 1064.64 832.8 1065.05 832.8 1064.98 873.32 1068.69 873.32 1068.77 831.85 1068.35 831.85 1068.43 791.4 1068.84 791.4 1068.91 749.92 1065.2 749.92 1065.13 791.32"/><rect class="cls-2" x="1575.77" y="1062.56" width="41.47" height="3.71" transform="matrix(0, -1, 1, 0, -25.61, 2364.58)"/><rect class="cls-2" x="1538.33" y="1062.48" width="41.47" height="3.71" transform="matrix(0, -1, 1, 0, -62.87, 2327.04)"/><rect class="cls-2" x="1503.27" y="1062.39" width="41.47" height="3.71" transform="translate(-98.13 2291.65) rotate(-89.85)"/><rect class="cls-2" x="1471.96" y="1062.32" width="41.47" height="3.71" transform="translate(-128.51 2260.81) rotate(-89.88)"/><rect class="cls-2" x="1670.78" y="1062.79" width="41.47" height="3.71" transform="translate(68.5 2459.53) rotate(-89.85)"/><path class="cls-2" d="M1708.23,1044.56l-.07,40.25a8.19,8.19,0,0,0,3.71-3.37l.06-33.5A8.2,8.2,0,0,0,1708.23,1044.56Z" transform="translate(-553.91 -293.82)"/><path class="cls-1" d="M1817.05,1155.13l23.06,4.09a9.78,9.78,0,0,1,4.72,2.22,8.19,8.19,0,0,1,2.68,4.24,6.37,6.37,0,0,1,.2,1.5,6,6,0,0,1-.1,1.4l-57.29,321.55c-.74,4.14-5.1,6.89-9.81,6.27l-.46-.07-23.06-4.1-.46-.09c-4.64-1-7.78-5.12-7-9.27l57.29-321.54a4.15,4.15,0,0,1,.14-.61,2.5,2.5,0,0,1,.07-.26c0-.09.06-.19.1-.28s.05-.13.07-.2a6.92,6.92,0,0,1,.72-1.34l.12-.19.14-.18.28-.35.19-.2a1.29,1.29,0,0,1,.16-.17l.33-.32.41-.34.34-.25,0,0,.24-.16a7.15,7.15,0,0,1,.76-.44l.24-.12.24-.11a4.4,4.4,0,0,1,.5-.21A9.83,9.83,0,0,1,1817.05,1155.13Z" transform="translate(-553.91 -293.82)"/><path class="cls-2" d="M1820.87,1318.7,1790.17,1491c-.66,3.7-5,6.08-9.66,5.44l-.46-.07-23.06-4.1-.46-.09c-4.64-1-7.85-4.73-7.19-8.43l26.92-151.11,1,0C1789.68,1332.17,1806.74,1329.35,1820.87,1318.7Z" transform="translate(-553.91 -293.82)"/><rect class="cls-2" x="1819.43" y="1177.39" width="3.71" height="41.47" transform="translate(-232.15 2486.71) rotate(-79.88)"/><rect class="cls-2" x="1817.22" y="1189.76" width="3.71" height="41.47" transform="translate(-245.35 2495.5) rotate(-79.91)"/><rect class="cls-2" x="1814.58" y="1204.6" width="3.71" height="41.47" transform="translate(-262.48 2504.8) rotate(-79.9)"/><rect class="cls-2" x="1810.53" y="1227.34" width="3.71" height="41.47" transform="translate(-288.21 2519.56) rotate(-79.9)"/><rect class="cls-2" x="1806.25" y="1251.38" width="3.71" height="41.47" transform="translate(-315.07 2535.51) rotate(-79.91)"/><rect class="cls-2" x="1799.68" y="1288.24" width="3.71" height="41.47" transform="translate(-357.15 2559.07) rotate(-79.89)"/><rect class="cls-2" x="1793.53" y="1322.76" width="3.71" height="41.47" transform="translate(-395.83 2581.86) rotate(-79.91)"/><rect class="cls-2" x="1788.04" y="1353.58" width="3.71" height="41.47" transform="translate(-431.4 2601.1) rotate(-79.88)"/><rect class="cls-2" x="1821.53" y="1165.62" width="3.71" height="41.47" transform="translate(-218.38 2479.5) rotate(-79.9)"/><rect class="cls-2" x="1822.91" y="1157.84" width="3.71" height="41.47" transform="translate(-209.61 2474.42) rotate(-79.89)"/><rect class="cls-2" x="1824.25" y="1150.33" width="3.71" height="41.47" transform="translate(-201.08 2469.57) rotate(-79.9)"/><path class="cls-2" d="M1806.37,1163.61l40.83,7.26.41-2.29a6.6,6.6,0,0,0,.1-1.4l-40.55-7.2a6.74,6.74,0,0,0-.38,1.35Z" transform="translate(-553.91 -293.82)"/><path class="cls-2" d="M1807.87,1158.64l39.64,7a8.19,8.19,0,0,0-2.68-4.24l-33-5.86A8.26,8.26,0,0,0,1807.87,1158.64Z" transform="translate(-553.91 -293.82)"/><path class="cls-3" d="M2595.46,1496.36H2455.11c-7.52-6.38,5.21-20.87,18.5-21.85,5.78-.43,13.08.78,21.43,2.54,1.93-25.65,13-141,54.52-136.34,46.74,5.19,0,50.78-13.21,77.78-9.79,20-20.11,48.67-24.83,62.2,3.8.82,7.73,1.63,11.74,2.37,6.19-19,29.24-83,58.56-79.28,34.41,4.37,20.58,30-3.82,45.25-17.89,11.2-39.87,27.11-50.31,34.8a148.46,148.46,0,0,0,27.45,2.2C2579.18,1485.46,2590.92,1492.54,2595.46,1496.36Z" transform="translate(-553.91 -293.82)"/><path class="cls-3" d="M765.43,1491.7c-5.57-8.76-22.35-31.49-44.69-28.48-24.35,3.28,26.88,19.33,42.57,28.54a26.06,26.06,0,0,1-8.68-1c-10.49-3.74-28.44,3.43-34.19,5.94h99.83a15.84,15.84,0,0,0-7.14-9.13c-1.63-1-4.93-1.14-9.18-.81,5.93-7,10-29.35-6.47-23.6-12.07,4.2-12,17.86-10.85,25.94-2.57.4-5.18.81-7.75,1.18-5-25.33-22.55-99.57-58.18-101.55-36.12-2,30.63,77,52.86,102.26C770.71,1491.32,768,1491.58,765.43,1491.7Z" transform="translate(-553.91 -293.82)"/><circle class="cls-4" cx="1653.66" cy="759.51" r="143.76" transform="translate(-606.61 1097.95) rotate(-45)"/><circle class="cls-1" cx="1642.68" cy="765.56" r="143.76" transform="translate(-68.96 1866.07) rotate(-75.28)"/><path class="cls-2" d="M1643.72,898a131,131,0,1,1,114.49-194.19c34.86,63.25,11.77,143.07-51.48,177.94A130.19,130.19,0,0,1,1643.72,898Zm-.4-254.18a123.54,123.54,0,1,0,34.41,4.91A122.49,122.49,0,0,0,1643.32,643.83Z" transform="translate(-553.91 -293.82)"/><path class="cls-2" d="M1677.64,791.64a21.41,21.41,0,0,0-3.94-6.51,15.67,15.67,0,0,0-5.86-4,29.87,29.87,0,0,0-8.38-1.87,79.09,79.09,0,0,0-11.42-.07q-11.34.54-21,0a65.44,65.44,0,0,1-17.46-3.17,38.39,38.39,0,0,1-13.71-8,43.3,43.3,0,0,1-12.74-30.35,36.41,36.41,0,0,1,3.45-14.78,45.31,45.31,0,0,1,9.38-13.07,60.76,60.76,0,0,1,14.88-10.6l-8.17-20.14,16.21-6.58,8.29,20.42a54.47,54.47,0,0,1,17.68-1.8,41.1,41.1,0,0,1,28.71,14.16,54.86,54.86,0,0,1,9.59,15.9l-29.29,11.89q-4.59-11.3-11.87-14.86t-15.71-.15a23.56,23.56,0,0,0-7.33,4.46,16,16,0,0,0-4,5.69,14.82,14.82,0,0,0-1,6.5,21.89,21.89,0,0,0,1.62,6.9,20.15,20.15,0,0,0,3.58,5.9,14.78,14.78,0,0,0,5.62,3.8,29.44,29.44,0,0,0,8.42,1.84,99.1,99.1,0,0,0,12,.25q11.31-.31,20.94.27a65.91,65.91,0,0,1,17.44,3.27,37,37,0,0,1,23.34,22.6,39.48,39.48,0,0,1,3.15,16,36,36,0,0,1-3.53,14.71,44,44,0,0,1-9.58,12.88,65.48,65.48,0,0,1-15,10.49l7.6,18.73L1673.34,859l-7.57-18.63a73.27,73.27,0,0,1-17.75,2.93,46.6,46.6,0,0,1-17.24-2.49,41.46,41.46,0,0,1-15.17-9.46q-6.93-6.62-11.52-17.91l29.28-11.89a31,31,0,0,0,6.41,10.39,20,20,0,0,0,7.92,5.12,19.59,19.59,0,0,0,8.67.87,34.08,34.08,0,0,0,8.59-2.23,28,28,0,0,0,7.87-4.62,18.76,18.76,0,0,0,4.65-5.84,14.7,14.7,0,0,0,1.56-6.61A18,18,0,0,0,1677.64,791.64Z" transform="translate(-553.91 -293.82)"/><path class="cls-5" d="M1785.74,682.14c-6-4.25-19.66-13.59-20.36-11.51-.51,1.5.21,4,1.85,6.69-8.25-3.08-16.63-5.1-36.44-1.3a14.88,14.88,0,0,0-9.74,6.42c-2,3.14-2.77,7.07,2.28,10.22,10.11,6.28,7.18,2.52,21.23,11.67s31.24,11.49,41.52,5.06l13.79-2.3,1.71-22.68S1793.72,683.47,1785.74,682.14Z" transform="translate(-553.91 -293.82)"/><path class="cls-5" d="M2147.11,491.89s-32.51,38.57-73.91,22.43c0,0-8.91-21.54-9-37.42,0-1.95,0-3.85-.07-5.65-.22-17.88-.83-27.91-.83-27.91h0c1.89-.79,63.3-26,63.24-23.9C2125.5,467.79,2147.11,491.89,2147.11,491.89Z" transform="translate(-553.91 -293.82)"/><path class="cls-6" d="M2120.39,431c-5.92,11-26.24,32.45-56.29,40.29-.22-17.88-.83-27.91-.83-27.91h0C2065,442.87,2122.15,427.72,2120.39,431Z" transform="translate(-553.91 -293.82)"/><path class="cls-5" d="M2050.41,441.48s69.06,16.23,78.51-26.93,24.72-70.13-19-82.32-55.89,2.39-62.55,16S2032.69,436.14,2050.41,441.48Z" transform="translate(-553.91 -293.82)"/><path class="cls-7" d="M2126.56,426.31c.94.61,15.8,5.17,43.94-50.89,4.42-8.8,7.43-27.84-2.87-44.66s-46.81-30-77.15-35.8-37.61,11.31-44.76,28.47c-7.5,18-29.16,32.83-29.16,32.83,26.16,14.62,57.67-6.28,68.59-2.85s14.77,20.64,15.59,26.16,2.07,10.09,15.8,5.17,6.21,19.45,4,24.11C2120.55,408.85,2118.68,421.27,2126.56,426.31Z" transform="translate(-553.91 -293.82)"/><path class="cls-8" d="M2304.46,1502.67h41.81c8.77,0,18.51-8.77,20.94-24.84s20.46-24.85,24.36-38-16.08-31.67-16.08-31.67l-3.34-4.3-3.47-4.47-33.13,7.79s-.81,7.89-1.32,17.93a229,229,0,0,0-.14,23c1,17.54-4.91,36.43-20.49,39.84S2304.46,1502.67,2304.46,1502.67Z" transform="translate(-553.91 -293.82)"/><path class="cls-8" d="M2013.35,1502.67h110.84a9.55,9.55,0,0,0,2.36-.68c7.4-3.7,5.08-32,4.19-40.79-.17-1.62-.29-2.57-.29-2.57s-39-31.18-44.34-7.31c-.17.75-.37,1.48-.57,2.2h0c-6.77,22.34-37,32.48-54.49,35.31C2017.7,1491,2014.24,1498.79,2013.35,1502.67Z" transform="translate(-553.91 -293.82)"/><path class="cls-9" d="M2035.69,863.48s5.92,73.85,12.88,162.63c9.45,120.59,20.82,268.72,21.95,296.78,1.94,48.73,9.75,126.68,9.75,126.68s18.5,18.51,55.54,10.71c0,0,33-111.27,42.43-229q.21-2.9.44-5.82c8.77-119.84,22.4-372.21,22.4-372.21Z" transform="translate(-553.91 -293.82)"/><path class="cls-10" d="M2035.69,863.48s5.92,73.85,12.88,162.63l129.67,205.17q.21-2.9.44-5.82c8.77-119.84,22.4-372.21,22.4-372.21Z" transform="translate(-553.91 -293.82)"/><path class="cls-9" d="M2062.72,872.25s106.7,267.46,176.85,393.16,92.08,160.77,92.08,160.77,40.19-16.08,43.85-27c0,0-26.83-242.66-73.81-301.81-26.55-33.43-57.73-133.73-59.19-168.81S2233,824,2233,824Z" transform="translate(-553.91 -293.82)"/><path class="cls-5" d="M2306,823.65l1.13,17.2s-11.34,30.56,20.44,46.24c0,0,13.61,5.49,14.16-5.11s-1.19-6.6-.08-21.52-4.76-29-14.63-33.76l-8.09-9.34Z" transform="translate(-553.91 -293.82)"/><path class="cls-11" d="M2318.46,836.18c-11.81,3.79-13.7,2.93-13.7,2.93s-57.48-104.65-63.3-114.23-122-117.35-122-117.35l29.86-111.37s132.18,171.17,146.46,195.73c23.59,40.59,37.41,134.85,37.41,134.85A34.6,34.6,0,0,1,2318.46,836.18Z" transform="translate(-553.91 -293.82)"/><path class="cls-12" d="M2013.17,651.26c.41,22.87,1.74,48.58,3.53,74.69l.33,4.65c1.15,16.18,2.39,32.39,3.82,48.2.57,6.34,1.18,12.61,1.81,18.77l.1.82c0,2.31.33,4.81.59,7.09,5.82,59.22,11.93,106,13.07,106.73a6.55,6.55,0,0,0,4.54,1.16c15.54-2,61.87,1.57,99.81-6.68,32-6.75,59.58-19.56,88.79-36.82,3.88-2.29,12.72-8.36,12-12.9-.71-5-2-12.19-3.67-21.25-5.76-31.5-15.69-85.69-19.08-149.11q-1-17.72-2.86-35c-3.26-29.88-8.48-58.26-15.48-83.47-13-46.84-32.12-82.71-56.1-96.74-3.13-1.76-20,9-35.48,18.91-14.3,9.16-29.35,11.7-44,10.42L2052,515c-15.61,18.14-32.22,42.29-36.76,76.62-.34,2.54-.63,5.23-.88,8.1C2013.12,613.73,2012.81,631.43,2013.17,651.26Z" transform="translate(-553.91 -293.82)"/><path class="cls-11" d="M2013.17,651.26c.41,22.87,1.74,48.58,3.53,74.69l.33,4.65c88.72-55.53,102.39-157.15,102.39-157.15-43.65,1.92-78.32,11.95-105.05,26.3C2013.12,613.73,2012.81,631.43,2013.17,651.26Z" transform="translate(-553.91 -293.82)"/><path class="cls-12" d="M1789,695c-.91-13.16,5.9-15.35,5.9-15.35s133.76-24.24,145.13-27.82,108.61-104.72,108.61-104.72,37.27-42,67.78-32.75c26.52,8.07,36.89,28.75,40.41,48.46a58,58,0,0,1-27,59.58c-45.65,28-137,83.17-158.56,89.48-47.9,14-176.6,1.12-176.6,1.12A41.54,41.54,0,0,1,1789,695Z" transform="translate(-553.91 -293.82)"/><path class="cls-13" d="M1946.4,951.92v497.2a52.9,52.9,0,0,1-52.73,52.74H1382.6a53.22,53.22,0,0,1-12.89-1.58,54.33,54.33,0,0,1-35-27.56c-.16-.3-.31-.6-.47-.92a53.06,53.06,0,0,1-5.46-20.14c-.1-1.22-.14-2.46-.14-3.71V955.11a81.6,81.6,0,0,1,37.92-68.69l.06,0A70.69,70.69,0,0,0,1396,805.67h483.14A70.64,70.64,0,0,0,1906,884.78h0c1.22.84,2.47,1.66,3.73,2.42h0A75.82,75.82,0,0,1,1946.4,951.92Z" transform="translate(-553.91 -293.82)"/><path class="cls-13" d="M1946.4,951.92v497.2a52.91,52.91,0,0,1-49,52.6c-1.22.09-2.47.14-3.72.14h-225a54.07,54.07,0,0,1-53.9-53.91V955.11a81.58,81.58,0,0,1,37.92-68.69A70.63,70.63,0,0,0,1682,805.67h197.1a70.65,70.65,0,0,0,30.66,81.55A75.82,75.82,0,0,1,1946.4,951.92Z" transform="translate(-553.91 -293.82)"/><path class="cls-14" d="M1906,884.78c-15.78-9.45-84.15-42.95-258-41.53-199.13,1.63-278.9,41.88-281.35,43.13A70.69,70.69,0,0,0,1396,805.67h483.14A70.64,70.64,0,0,0,1906,884.78Z" transform="translate(-553.91 -293.82)"/><path class="cls-9" d="M1890.06,802.19v22.55a4,4,0,0,1-4,4h-497a4,4,0,0,1-4-4V802.19a4.05,4.05,0,0,1,4-4h497A4,4,0,0,1,1890.06,802.19Z" transform="translate(-553.91 -293.82)"/><path class="cls-10" d="M1890.06,802.19v22.55a4,4,0,0,1-4,4H1697.92a4.05,4.05,0,0,1-4-4V802.19a4.06,4.06,0,0,1,4-4H1886A4,4,0,0,1,1890.06,802.19Z" transform="translate(-553.91 -293.82)"/><path class="cls-15" d="M1558.5,913.85s-12.81,18-24.55,18.28-29.61-8.35-29.61-8.35-10.78-24-3.47-33.44a15.69,15.69,0,0,1,15,2.47,22.5,22.5,0,0,1,4,3.8,12.57,12.57,0,0,0,6.17,4.18c8.38,2.55,18.32-3.45,22,2.34a39.27,39.27,0,0,0,6.48,7.67A29.4,29.4,0,0,0,1558.5,913.85Z" transform="translate(-553.91 -293.82)"/><path class="cls-15" d="M1391.51,1043.92s45.28-109.7,126.77-111.79c0,0,75.22,8.36,79.4,111.79Z" transform="translate(-553.91 -293.82)"/><path class="cls-16" d="M1496,935.48s32.67,7.27,42.74,3c0,0,1.53-13.66-12.23-11.74-9.41,1.31-15.55-3.22-19.15-5C1502.2,919.09,1494.59,929.77,1496,935.48Z" transform="translate(-553.91 -293.82)"/><path class="cls-17" d="M1524.38,914.9c-2.09,1.56-8.51-22.09-8.51-22.09a22.5,22.5,0,0,1,4,3.8,12.57,12.57,0,0,0,6.17,4.18C1526,901.48,1526.4,913.37,1524.38,914.9Z" transform="translate(-553.91 -293.82)"/><path class="cls-17" d="M1554.53,910.8c-.46.27-15.57,9.32-17.62,9.32s11.14-17,11.14-17A39.27,39.27,0,0,0,1554.53,910.8Z" transform="translate(-553.91 -293.82)"/><path class="cls-17" d="M1435.74,1013.28c-.84-.72,32-48.41,41.09-48.76s29.4,10.45,44.13,11.84,29-2.78,31.79,5.92,10.45,39.58,5.75,44.51S1453.82,1028.72,1435.74,1013.28Z" transform="translate(-553.91 -293.82)"/><path class="cls-18" d="M1399.13,1464.29c-2.62,1.38-5.25,2.68-7.91,3.94-2.53,1.46-5.1,2.89-7.72,4.26a210.36,210.36,0,0,1-37.19,15.23,54.41,54.41,0,0,1-11.55-15c-2,1.07-4,2.11-6.07,3.12V1100.7a213.79,213.79,0,0,1,27.56,5.55c50.68,13.69,95.81,45.94,123.26,93.37C1534,1293.84,1498.05,1412.34,1399.13,1464.29Z" transform="translate(-553.91 -293.82)"/><path class="cls-4" d="M1433.4,1184.84c-54.52-98.92-178.92-134.9-277.84-80.38s-134.9,178.93-80.37,277.84,178.92,134.91,277.84,80.38S1487.93,1283.76,1433.4,1184.84Z" transform="translate(-553.91 -293.82)"/><path class="cls-1" d="M1345.09,1466.83q-3.78,2.31-7.69,4.46c-.88.49-1.76,1-2.64,1.43-2,1.07-4,2.11-6.07,3.12-97.39,47.83-216.18,11.12-269.13-84.92-50.5-91.61-23.36-205.08,59.51-264.66a207,207,0,0,1,20.87-13.19c2.62-1.44,5.26-2.83,7.92-4.14s5.18-2.51,7.79-3.67a204.67,204.67,0,0,1,61.39-16.5,204.63,204.63,0,0,1,200.74,104.69C1470.87,1289.77,1438.16,1410.22,1345.09,1466.83Z" transform="translate(-553.91 -293.82)"/><path class="cls-2" d="M1240.1,1480.72a186.59,186.59,0,1,1,89.69-23.23A186.89,186.89,0,0,1,1240.1,1480.72Zm-153.71-101.83a175.22,175.22,0,1,0-14.87-133.28A174.07,174.07,0,0,0,1086.39,1378.89Z" transform="translate(-553.91 -293.82)"/><path class="cls-2" d="M1330,1312.1c-.4-1-.83-2-1.27-2.94a53.62,53.62,0,0,0-12.4-17.72,55.27,55.27,0,0,0-19.53-11.49,93.48,93.48,0,0,0-24.81-4.66q-13.7-.84-29.8-.39a143.49,143.49,0,0,1-17-.34,42.57,42.57,0,0,1-12-2.62,21.1,21.1,0,0,1-8-5.42,28.56,28.56,0,0,1-5.08-8.38,31.14,31.14,0,0,1-2.31-9.83,21.12,21.12,0,0,1,1.46-9.25,22.49,22.49,0,0,1,5.7-8.07,33.11,33.11,0,0,1,10.43-6.35q12-4.87,22.34.21t16.89,21.14l41.67-16.92a77.94,77.94,0,0,0-13.64-22.62,58.47,58.47,0,0,0-40.85-20.15,77.28,77.28,0,0,0-25.14,2.57l-11.8-29.06-23.07,9.37,11.64,28.65a86.49,86.49,0,0,0-21.18,15.07,64.72,64.72,0,0,0-13.34,18.61,51.75,51.75,0,0,0-4.91,21,56,56,0,0,0,4.4,22.39q5.33,13.13,13.73,20.79a54.57,54.57,0,0,0,19.5,11.42,92.51,92.51,0,0,0,24.83,4.5,291.75,291.75,0,0,0,29.87,0,109.39,109.39,0,0,1,16.25.11,42.5,42.5,0,0,1,11.91,2.64,22.55,22.55,0,0,1,8.34,5.66,30.68,30.68,0,0,1,5.61,9.27,25.51,25.51,0,0,1,2,9.87,21.06,21.06,0,0,1-2.22,9.41,26.65,26.65,0,0,1-6.62,8.31,39.86,39.86,0,0,1-11.19,6.56,47.92,47.92,0,0,1-12.23,3.18,28.06,28.06,0,0,1-12.34-1.23,28.81,28.81,0,0,1-11.26-7.29q-5.25-5.27-9.11-14.78l-41.66,16.92q6.51,16.05,16.39,25.47a59,59,0,0,0,21.58,13.46,66,66,0,0,0,24.53,3.54,104.07,104.07,0,0,0,25.26-4.18l10.76,26.52,22.92-9.31-10.82-26.64a92.39,92.39,0,0,0,21.39-14.93,62.87,62.87,0,0,0,12.91-16.86c.25-.48.5-1,.73-1.47a51.35,51.35,0,0,0,5-20.91A56.33,56.33,0,0,0,1330,1312.1Z" transform="translate(-553.91 -293.82)"/><path class="cls-8" d="M1086.71,572.17c.62-2.5-54.47,24.91-57.27,28-25.84,28.67-18.47,66.07-3.68,66.43,9.48.23,7.64,16,7.64,16L1139,637.91S1126.32,563.73,1086.71,572.17Z" transform="translate(-553.91 -293.82)"/><path class="cls-8" d="M1099.72,578s3.77-41.15-42.21-41.15c0,0,13.94,3.78,21.14,11.33,0,0-29.32-17.21-61.24,9.24s-12.08,92.81-21.79,105.41-47.5,15.12-42.88,55.85,120,91.75,112.54,125.46c0,0,45.2-66.44,12.88-96.76,0,0,15.75,14.83,17.36,32.47,0,0,4.27-34.43-17.64-45.45-19.39-9.74-35.27-45.39-33.59-51.76S1099.72,578,1099.72,578Z" transform="translate(-553.91 -293.82)"/><path class="cls-19" d="M1058,771.57c-7.09-34.14-51.37-44.73-72.31-16.85a36.93,36.93,0,0,0-7.28,17.94c-4.79,38.76,57.18,196.62,66.06,210.91,16.15,26,111.29,115.23,111.29,115.23l17.53-10.63s-67.48-114.24-77.93-124.93C1083.25,950.88,1071.43,836.4,1058,771.57Z" transform="translate(-553.91 -293.82)"/><path class="cls-19" d="M1149.06,1088.22s25.59-16.8,35.28-15.72,37.72,9.15,38.07,13.27-31.25,6.7-33.37,9-23.56,16.57-31.33,12.08S1149.06,1088.22,1149.06,1088.22Z" transform="translate(-553.91 -293.82)"/><path class="cls-9" d="M970.56,1467.82l-22.86-3.36s-76.87-61.09-88.31-175.07a204,204,0,0,1-.55-35.24,6.16,6.16,0,0,0-.8-3.89l0,0c-2.46-3.77-8.59-13.22-16.88-26.66-8.17-13.24-22.15-38.27-37.54-66.35-27.71-50.58-60-111.07-71.05-130.34-35.27-61.4-18.27-102.69-18.27-102.69s98.38-9.72,125.34-33.31l9.71,15s21.32,94.37,20.31,94.81q1.58,4.8,3.2,9.8c16.82,51.92,36.17,116.82,46.72,169.67,5.93,29.74,9.07,55.65,7.39,73.3-.58,6.06.12,15.37,1.74,26.86C938.21,1348,970.56,1467.82,970.56,1467.82Z" transform="translate(-553.91 -293.82)"/><path class="cls-10" d="M1018.52,1496.74H923.14s-2.29-14.54,2.69-25.57c4.78-10.58,11.58-10.91.87-27.5,6.06,6.24,25.55,8.82,39.34,7,1.68,2.74,10.89,21.12,16.53,25.17C988.8,1480.28,1016.6,1478.69,1018.52,1496.74Z" transform="translate(-553.91 -293.82)"/><path class="cls-10" d="M872.84,1010.46c-8.33,46-28,122.42-69.24,146.76-27.71-50.58-60-111.07-71.05-130.34-35.27-61.4-18.27-102.69-18.27-102.69s98.38-9.72,125.34-33.31l9.71,15s21.32,94.37,20.31,94.81Q871.22,1005.46,872.84,1010.46Z" transform="translate(-553.91 -293.82)"/><path class="cls-20" d="M1047.76,750.39s13.49,14,19.65,30.82c0,0-21.51,61.78-71.79,69.52C995.62,850.73,1035.4,750.37,1047.76,750.39Z" transform="translate(-553.91 -293.82)"/><path class="cls-9" d="M806,931.29l.32-17.84C770.73,917.93,683.73,871,683.73,871s-37.19,24.73-42.27,95.35c-2.49,34.48-18.21,180.26-20,223.79-.63,15.78-.84,27-.91,31.54,0,0,0,0,0,0a6.17,6.17,0,0,1-1.51,3.67,203.59,203.59,0,0,0-19.26,29.52c-54.23,100.9-25.87,238-25.87,238l12.6-3.2s45.85-142.14,75.82-203.62c5.09-10.43,9.71-18.54,13.58-23.23,11.27-13.69,23.15-36.93,34.86-64.91,22.14-52.88,43.63-122.67,59-176.7C770.87,1021.45,806,931.29,806,931.29Z" transform="translate(-553.91 -293.82)"/><path class="cls-5" d="M1013.93,812.23c-58.1-13.33-21-95-17.61-93.54,8-1.64,25.73-15.78,41.55-43.38l2.13,1.85,35.69,31.29s-8.25,12.17-15.19,24.09c-5.42,9.33-10,18.52-9.3,21.68C1054.07,756.48,1029.43,815.79,1013.93,812.23Z" transform="translate(-553.91 -293.82)"/><path class="cls-19" d="M1075.69,708.46s-8.26,12.15-15.19,24.08c-22.19-13.67-22.21-41.14-20.5-55.37Z" transform="translate(-553.91 -293.82)"/><path class="cls-5" d="M1076.68,724.13s-53.87-30-34.69-63.24,25.15-59.53,60.36-41.8,34.51,34.25,30.8,46.91S1091.18,731.07,1076.68,724.13Z" transform="translate(-553.91 -293.82)"/><path class="cls-8" d="M1142.25,646.6c-2.46-14.77-10-16.18-15.2-15.19-19.89-32.9-52.39-20.06-52.39-20.06-17.36,21.78-42.46,25.5-42.46,25.5s6.25,11.63,32,18.83c7.86,2.2,16.79.87,25.4-2a143.82,143.82,0,0,1-36.55,13.78c33.94,3.11,66.23-27.93,69.58-31.24,1.57,4.8,4.32,14.87,2.67,22.23-2.23,10-11.11,28.12-5.69,30.47C1119.62,688.89,1146,668.75,1142.25,646.6Z" transform="translate(-553.91 -293.82)"/><path class="cls-10" d="M649.81,1496.74H554.43s-2.29-14.54,2.7-25.57c4.77-10.58,12.25-15.39,10.46-28.19,6.06,6.24,15.93,13.23,29.72,11.37,1.69,2.74,10.91,17.4,16.55,21.45C620.09,1480.28,647.89,1478.69,649.81,1496.74Z" transform="translate(-553.91 -293.82)"/><path class="cls-21" d="M1020.77,877c-12.27,4.28-29.5,6.62-47.12,8.54-25.08,2.74-51,4.61-64.53,10-5,2-8.26,4.41-9.29,7.52C894,920.72,868,948,868,948,702,940.44,683.73,871,683.73,871,795.46,741.05,984.66,703.44,984.66,703.44s13.51-5.73,47.54,21.31c22.71,18.06,19.72,25,19.72,25S1056.89,864.36,1020.77,877Z" transform="translate(-553.91 -293.82)"/><path class="cls-20" d="M973.65,885.5c-25.08,2.74-51,4.61-64.53,10-5.55-82.83,33.54-145.13,33.54-145.13S968.16,854.16,973.65,885.5Z" transform="translate(-553.91 -293.82)"/><path class="cls-5" d="M999.46,734.36s-62.85,6.21-67.89,47,60.26,207.2,69.61,222.26c17,27.42,117.28,121.42,117.28,121.42l18.48-11.2s-71.11-120.38-82.12-131.65C1037.53,964.56,1020.75,748.51,999.46,734.36Z" transform="translate(-553.91 -293.82)"/><path class="cls-21" d="M933.38,806c.17.92,58,18.89,95.24,0,0,0,8-85.89-36.48-81.23s-70.76,18.66-71.88,39.93S933.38,806,933.38,806Z" transform="translate(-553.91 -293.82)"/><path class="cls-5" d="M1112.75,1113.15s22.55-20.7,32.28-21.2,38.71,3,39.71,7-29.75,11.64-31.48,14.2-20.59,20.15-29,17S1112.75,1113.15,1112.75,1113.15Z" transform="translate(-553.91 -293.82)"/></svg>