<svg xmlns="http://www.w3.org/2000/svg" viewBox="0 0 2560.87 1814.12"><defs><style>.cls-1{isolation:isolate;}.cls-2{fill:#d4deff;}.cls-3{fill:#fff;}.cls-4{fill:#e3eaff;}.cls-5{fill:#3f964f;}.cls-6{fill:#4ead60;}.cls-7{fill:#193f1e;opacity:0.2;mix-blend-mode:color-burn;}.cls-8{fill:#2c2858;}.cls-9{fill:#2386ad;}.cls-10{fill:#0e6a41;}.cls-11{fill:#201d40;}.cls-12{fill:#c4204a;}.cls-13{fill:#e62552;}.cls-14{fill:#f37a50;}.cls-15{fill:#de623c;}.cls-16{fill:#020205;}.cls-17{fill:#faba23;}.cls-18{fill:#fad332;}.cls-19{fill:#95a6db;}.cls-20{fill:#faee6c;}.cls-21{fill:#f9cd2d;}.cls-22{fill:#f9f93a;}.cls-23{fill:#d6224c;}.cls-24{fill:#fac832;}</style></defs><g class="cls-1"><g id="Слой_1" data-name="Слой 1"><circle class="cls-2" cx="558.18" cy="251.28" r="81.41"/><path class="cls-3" d="M670.48,380.4l-6.26-14.19c-8.21,3.45-17.75,4.63-24.22,3.28l-.77-10.9a40.83,40.83,0,0,0,22.89-2.87c10-4.39,14.19-13.12,10.66-21.13-3.4-7.73-11-10.09-23.24-9.73-16.81.69-28.51-1.87-33.9-14.1-5.13-11.66-.74-24.16,11.26-32l-6.25-14.2,8.71-3.83,6,13.63c8.56-3.44,15.31-3.72,20.43-3.13l.58,10.82a37.08,37.08,0,0,0-19.81,3c-10.82,4.77-12,13-9.57,18.65,3.21,7.3,10,8.66,24.48,8.34,17.07-.47,27.59,3.61,33.1,16.12,4.89,11.1,1.74,24.9-11.68,33.66l6.44,14.62Z" transform="translate(-91.67 -69.33)"/><path class="cls-2" d="M414.17,745.27l-68.68-77.14s25.26-54.14,99.43-56.07c46-1.19,86.59-47.53,86.59-47.53l69,77.54s-44.68,63.56-97.26,64C447.69,706.61,414.17,745.27,414.17,745.27Z" transform="translate(-91.67 -69.33)"/><path class="cls-4" d="M512.32,638.79c7.2,19.87-5.75,42.79-28.93,51.19s-47.82-.89-55-20.76,5.75-42.79,28.93-51.19S505.11,618.92,512.32,638.79Z" transform="translate(-91.67 -69.33)"/><path class="cls-2" d="M2562,833.08l-33.21-97.8s-59.56-4.74-97.83,58.83c-23.72,39.4-84.07,51.86-84.07,51.86l33.39,98.32s77.32-7.51,103.68-53C2511.83,843.16,2562,833.08,2562,833.08Z" transform="translate(-91.67 -69.33)"/><path class="cls-4" d="M2421,865.91c13.73,16.07,40.05,16.11,58.8.09s22.81-42,9.08-58.09-40.05-16.11-58.8-.09S2407.23,849.84,2421,865.91Z" transform="translate(-91.67 -69.33)"/><path class="cls-3" d="M1621.24,904a82.42,82.42,0,1,1-102.33-55.78A82.42,82.42,0,0,1,1621.24,904Z" transform="translate(-91.67 -69.33)"/><path class="cls-4" d="M1555.13,989.94l-4.43-15.06c-8.69,2.39-18.43,2.35-24.74.15l.63-11a41.41,41.41,0,0,0,23.36.09c10.59-3.12,15.94-11.34,13.44-19.83-2.41-8.2-9.72-11.56-22.07-12.79-17-1.48-28.37-5.57-32.2-18.55-3.64-12.37,2.39-24.35,15.45-30.63l-4.43-15.06,9.24-2.72,4.26,14.46c9-2.33,15.85-1.75,20.92-.48l-.83,10.93a37.57,37.57,0,0,0-20.28.47c-11.48,3.38-13.79,11.51-12,17.47,2.28,7.75,8.94,10,23.49,11.55,17.2,1.74,27.24,7.21,31.15,20.48,3.46,11.78-1.49,25.23-16.1,32.28l4.57,15.51Z" transform="translate(-91.67 -69.33)"/><polygon class="cls-5" points="1344.79 1029.53 1245.3 1100.06 932.43 1321.85 900.03 1344.81 924.69 1379.9 1061.5 1574.57 1300.74 1404.63 1422.53 1318.12 1423.97 1317.11 1436.3 1159.75 1344.79 1029.53"/><path class="cls-6" d="M1509.48,1285l-62-88.14a47.27,47.27,0,0,1-65.85-11.49l-290,206.54a47.28,47.28,0,0,1-11.49,65.87l61.94,88.13a47.29,47.29,0,0,1,65.86,11.49l290-206.53A47.28,47.28,0,0,1,1509.48,1285Z" transform="translate(-91.67 -69.33)"/><path class="cls-5" d="M1372.07,1320.21A78.47,78.47,0,1,0,1353,1429.54,78.48,78.48,0,0,0,1372.07,1320.21Z" transform="translate(-91.67 -69.33)"/><polygon class="cls-5" points="1436.3 1159.75 1347.73 1244.45 1422.53 1318.12 1423.79 1319.36 1423.97 1317.11 1436.3 1159.75"/><polygon class="cls-7" points="1391.29 1340.08 1347.73 1244.45 1422.53 1318.12 1391.29 1340.08"/><polygon class="cls-7" points="1436.3 1159.75 1347.73 1244.45 1430.23 1151.12 1436.3 1159.75"/><path class="cls-7" d="M1337,1169.39,1024.1,1391.18l-7.74,58,136.81,194.67L1392.41,1474l-12.22-46.29c-4.62-17.49-35.62-25.22-74.88-20.79Z" transform="translate(-91.67 -69.33)"/><rect class="cls-5" x="827.6" y="1212.53" width="655.75" height="280.82" transform="translate(-429.94 2250.2) rotate(-82.41)"/><path class="cls-6" d="M1245.94,1081.92l-106.78-14.23a47.27,47.27,0,0,1-53.1,40.61l-61.67,462.55A47.28,47.28,0,0,1,1065,1624l106.79,14.23a47.27,47.27,0,0,1,53.1-40.61L1286.56,1135A47.28,47.28,0,0,1,1245.94,1081.92Z" transform="translate(-91.67 -69.33)"/><circle class="cls-5" cx="1160.59" cy="1355.76" r="78.48" transform="translate(-490.6 2154.16) rotate(-78.53)"/><path class="cls-5" d="M1255.32,1429.4,987.86,1500l71.66,271.52L1327,1700.92l-50.43-191.08c53.43-14.31,91.91-43.64,86.08-65.74s-53.78-28.62-107.31-14.7Z" transform="translate(-91.67 -69.33)"/><rect class="cls-6" x="1138.35" y="1423.95" width="197.58" height="310.94" transform="translate(-65.95 3109.31) rotate(-104.78)"/><circle class="cls-5" cx="1219.83" cy="1583.98" r="70.1" transform="translate(-756.89 848.64) rotate(-32.94)"/><path class="cls-7" d="M1255.32,1429.4l-27.4,7.23,71.66,271.52,124.1-32.75-61-231.3c-5.83-22.09-53.78-28.62-107.31-14.7Z" transform="translate(-91.67 -69.33)"/><path class="cls-5" d="M1362.63,1444.1c5.83,22.1-32.65,51.43-86.08,65.74l71.66,271.53h0c53.43-14.31,91.9-43.64,86.07-65.74Z" transform="translate(-91.67 -69.33)"/><path class="cls-6" d="M1375.56,1493.1c2.58,9.77-4,20.7-16.09,29.19,3.58,15.08-4.76,30.14-18.91,33.87l-.07,0,36.24,137.28.06,0c13-3.43,26.44,3.87,31.9,16.6,12.26-8.51,19-19.54,16.37-29.38Z" transform="translate(-91.67 -69.33)"/><path class="cls-8" d="M1044.49,1874.45,651,1874.7a112.36,112.36,0,0,1-112.44-112.3L538,799.49A112.38,112.38,0,0,1,650.25,687l393.48-.25A112.39,112.39,0,0,1,1156.18,799.1l.61,962.91A112.37,112.37,0,0,1,1044.49,1874.45Z" transform="translate(-91.67 -69.33)"/><path class="cls-9" d="M1048.54,1855.2l-401.62.26a79,79,0,0,1-79.07-79l-.62-984a79,79,0,0,1,79-79.08l401.62-.25a79,79,0,0,1,79.07,79l.62,984A79,79,0,0,1,1048.54,1855.2Z" transform="translate(-91.67 -69.33)"/><path class="cls-8" d="M534.31,1001.88h0a17.53,17.53,0,0,1-17.54-17.53V893.44a17.53,17.53,0,0,1,17.54-17.53h0a17.53,17.53,0,0,1,17.53,17.53v90.91A17.53,17.53,0,0,1,534.31,1001.88Z" transform="translate(-91.67 -69.33)"/><path class="cls-8" d="M1159.55,1001.88h0A17.53,17.53,0,0,1,1142,984.35V893.44a17.53,17.53,0,0,1,17.54-17.53h0a17.53,17.53,0,0,1,17.53,17.53v90.91A17.53,17.53,0,0,1,1159.55,1001.88Z" transform="translate(-91.67 -69.33)"/><path class="cls-8" d="M2109.34,1874.45l-393.48.25a112.37,112.37,0,0,1-112.45-112.3l-.61-962.91A112.38,112.38,0,0,1,1715.11,687l393.48-.25A112.39,112.39,0,0,1,2221,799.1l.61,962.91A112.37,112.37,0,0,1,2109.34,1874.45Z" transform="translate(-91.67 -69.33)"/><path class="cls-9" d="M2113.4,1855.2l-401.62.26a79,79,0,0,1-79.07-79l-.62-984a79,79,0,0,1,79-79.08l401.62-.25a79,79,0,0,1,79.07,79l.62,984A79,79,0,0,1,2113.4,1855.2Z" transform="translate(-91.67 -69.33)"/><path class="cls-8" d="M1599.16,1001.88h0a17.53,17.53,0,0,1-17.53-17.53V893.44a17.53,17.53,0,0,1,17.53-17.53h0a17.53,17.53,0,0,1,17.54,17.53v90.91A17.53,17.53,0,0,1,1599.16,1001.88Z" transform="translate(-91.67 -69.33)"/><path class="cls-8" d="M2224.41,1001.88h0a17.53,17.53,0,0,1-17.54-17.53V893.44a17.53,17.53,0,0,1,17.54-17.53h0a17.53,17.53,0,0,1,17.53,17.53v90.91A17.53,17.53,0,0,1,2224.41,1001.88Z" transform="translate(-91.67 -69.33)"/><path class="cls-8" d="M1599.16,1136.35h0a17.53,17.53,0,0,1-17.53-17.53v-90.91a17.53,17.53,0,0,1,17.53-17.53h0a17.53,17.53,0,0,1,17.54,17.53v90.91A17.53,17.53,0,0,1,1599.16,1136.35Z" transform="translate(-91.67 -69.33)"/><path class="cls-10" d="M353.48,1813.26c-13.22,55.52-60.48,25-50.59,60.07a6.29,6.29,0,0,0,5.87,4.42l27.75,1.06a12.48,12.48,0,0,0,7.53-2.18c14.64-10,24.57-24.14,56.19-25.85-.24-13.5.37-32.78-4.09-39.67Z" transform="translate(-91.67 -69.33)"/><path class="cls-11" d="M426.61,1423.67s-80.7,123.09-91.84,161.37,12.16,103.16,7.94,233.91c25.23,6.55,58.86.92,58.86.92s20.24-164-3.57-202.72c35.68-54.44,125.28-173.27,125.28-173.27Z" transform="translate(-91.67 -69.33)"/><path class="cls-10" d="M471.36,1831.15c-20.53,28-71.79,11.42-69.73,48.94,77.69-1.23,110-1.07,110-1.07-.18-8.62-1.92-29.06-3.79-37.06Z" transform="translate(-91.67 -69.33)"/><path class="cls-8" d="M447.29,1398.79S421.56,1599.6,427.5,1639s24.34,70.29,25,201.1c25.45,5.61,64.34,10.65,64.34,10.65s16.4-157.78-17.33-201.22c9.56-64.37,55.12-226.3,55.12-226.3Z" transform="translate(-91.67 -69.33)"/><path class="cls-12" d="M315.46,1310.39l-31.38-35.18a3.68,3.68,0,0,0-2.67-1.22l-25.83-.16c-.74,0-3,4.08-2.52,4.62l22.13,19.67a.88.88,0,0,0,.38.24l37.95,14.08C314.33,1312.69,316,1311,315.46,1310.39Z" transform="translate(-91.67 -69.33)"/><path class="cls-13" d="M313.06,1312.74l-29.89-33.16a3.68,3.68,0,0,0-2.67-1.22l-26.63-.48a.84.84,0,0,0-.64,1.41l21,23.2a.88.88,0,0,0,.38.24l37.53,11.38A.84.84,0,0,0,313.06,1312.74Z" transform="translate(-91.67 -69.33)"/><path class="cls-14" d="M372.12,1343l-21.62-10.6S329.18,1310.82,326,1306c-4.74-2.4-13.71-8.44-15.73-8.67a33.39,33.39,0,0,0-6.15.39l10,11.38s-4.76,1-10.82-2.9-16.78-14.19-22-12.18l-1.87,1.64s-3.31-3.54-6.43-2.22,3.09,16.89,20.71,33.4c1.17,4.41,7,12.13,7,12.13l35.64,12.52Z" transform="translate(-91.67 -69.33)"/><path class="cls-12" d="M278.3,1284.58c1.27,1.27,3.09,1.5,4.07.52s.75-2.8-.52-4.06-3.09-1.5-4.07-.52S277,1283.31,278.3,1284.58Z" transform="translate(-91.67 -69.33)"/><path class="cls-14" d="M472.77,1184.05c-6.41,8.31,43.82,17.35,50.56.08s-4.83-64.8-4.83-64.8l-45.81,9.73S481.12,1173.23,472.77,1184.05Z" transform="translate(-91.67 -69.33)"/><ellipse class="cls-14" cx="476.25" cy="1086.03" rx="52.55" ry="66.9" transform="translate(-202.41 -13.7) rotate(-5.99)"/><path d="M441,1102.33a5.47,5.47,0,1,1-3.3-7A5.45,5.45,0,0,1,441,1102.33Z" transform="translate(-91.67 -69.33)"/><path d="M476.91,1094.5a5.92,5.92,0,1,1-3.57-7.57A5.91,5.91,0,0,1,476.91,1094.5Z" transform="translate(-91.67 -69.33)"/><path class="cls-15" d="M451.49,1101.19c-1.16,8.62-2.77,19.21-2.77,19.21s5.66,6,15,1.85c-4.69.15-9.8-.74-10.58-6.74S451.49,1101.19,451.49,1101.19Z" transform="translate(-91.67 -69.33)"/><path class="cls-16" d="M439.44,1089.84a2.09,2.09,0,0,1-2.08.05,6.15,6.15,0,0,0-4.48-.38c-1.5.57-2.71,2-3.58,4.39a2.1,2.1,0,1,1-3.93-1.46c1.32-3.55,3.36-5.86,6.07-6.87a10.41,10.41,0,0,1,7.92.63,2.11,2.11,0,0,1,.84,2.85A2.07,2.07,0,0,1,439.44,1089.84Z" transform="translate(-91.67 -69.33)"/><path class="cls-16" d="M466.73,1083.87a2.14,2.14,0,0,0,2-.64,6.05,6.05,0,0,1,4.1-1.84c1.61,0,3.24,1,4.83,3a2.1,2.1,0,1,0,3.23-2.67c-2.41-2.92-5.1-4.43-8-4.5a10.39,10.39,0,0,0-7.27,3.21,2.1,2.1,0,0,0,.15,3A2.19,2.19,0,0,0,466.73,1083.87Z" transform="translate(-91.67 -69.33)"/><path class="cls-16" d="M517.78,1103.89c-19-15.92-13.76-40.24-13.76-40.24-9.22.6-11.8,4.55-11.8,4.55-7.42-8.52-5.61-16.54-5.61-16.54-20-2.17-25.84,12-41.09,20.3-20.89,11.42-50.88,10-60.82-16.63a4.83,4.83,0,0,1,6.11-6.26,21.23,21.23,0,0,0,13.13.28,22.74,22.74,0,0,1-8.31-11.26,4.81,4.81,0,0,1,6.71-5.69c5.69,2.61,15.29,3.94,29.88-3.07,9.71-4.67,28.7-27.36,44.15-28.09,12.62-.59,24.82,7,32.8,20.43,0,0,30.12-4.86,41.74,26.6,11.43,30.9-31.39,78.65-31.39,78.65S522.81,1108.78,517.78,1103.89Z" transform="translate(-91.67 -69.33)"/><path class="cls-3" d="M453.82,1136.3a1.61,1.61,0,0,1,.48-2.92,131.3,131.3,0,0,0,14.53-4.37,133.44,133.44,0,0,0,13.83-6.26,1.61,1.61,0,0,1,2.28,1.88c-1.2,4.19-4.36,11.06-12.46,14.09S457.48,1138.67,453.82,1136.3Z" transform="translate(-91.67 -69.33)"/><path class="cls-14" d="M504.25,1082.24c-6.19,6.1-7.16,15.15-2.16,20.21s14.05,4.22,20.24-1.88,7.15-15.15,2.16-20.21S510.43,1076.14,504.25,1082.24Z" transform="translate(-91.67 -69.33)"/><path class="cls-15" d="M510.25,1099.85a2,2,0,0,1-.73-.47c-3-3.18-3.73-7.06-1.89-10.39a9.17,9.17,0,0,1,9.56-4.59,1.9,1.9,0,1,1-.76,3.72,5.41,5.41,0,0,0-5.47,2.71c-1,1.86-.56,4,1.31,5.92a1.9,1.9,0,0,1-2,3.1Z" transform="translate(-91.67 -69.33)"/><path class="cls-5" d="M416.94,1438.41c35.83,7.31,100.25,19.94,134.32,6.65,12.89-18.51,16.15-123.18,16.15-123.18,3.73-107.74-9.19-123.72-38.32-159.82-12.23,5.62-42.84,10.4-56.29,10.51,0,0-30.49,42.33-36.44,73.07-6,31.16-6.71,86.58-7.27,118.32C428.47,1399.21,421.5,1416.21,416.94,1438.41Z" transform="translate(-91.67 -69.33)"/><path class="cls-10" d="M533.33,1194.76c21,40.8,16.21,86-44.73,174.93-42.67-3.72-51-39.29-51-39.29s11.73-44.16,27-99.72S524.16,1176.91,533.33,1194.76Z" transform="translate(-91.67 -69.33)"/><path class="cls-10" d="M347,1321.88l91.38,7.29s39.18-7.14,50.2,40.52c-19.61,15.27-70.24,21-153.28-9.83C344.11,1347.9,347,1321.88,347,1321.88Z" transform="translate(-91.67 -69.33)"/><polygon class="cls-3" points="381.4 1100.21 380.54 1124.79 442.36 1098.87 434.87 1078.99 381.4 1100.21"/><path class="cls-17" d="M934.48,574.08a91.2,91.2,0,1,1-47-120.12A91.2,91.2,0,0,1,934.48,574.08Z" transform="translate(-91.67 -69.33)"/><path class="cls-18" d="M919.56,567.55c-18,42.26-71.77,58-109.85,32.5a75.07,75.07,0,0,1-32.83-74c7.08-48.57,60.33-77,104.1-57.21C918.24,484.83,936.41,529.77,919.56,567.55Z" transform="translate(-91.67 -69.33)"/><path class="cls-17" d="M845.81,600.48l0-15.5c-8.91-.13-18.13-2.87-23.52-6.69l3.66-10.3A41,41,0,0,0,848,574.53c10.9,0,18.25-6.35,18.23-15.1,0-8.44-6-13.65-17.4-18.22-15.68-6.1-25.37-13.13-25.41-26.49,0-12.75,9-22.44,23.11-24.79l0-15.5,9.52,0,0,14.89c9.21.28,15.52,2.72,20,5.32l-3.8,10.14a37.17,37.17,0,0,0-19.37-5.16c-11.82,0-16.25,7.11-16.23,13.25,0,8,5.71,12,19.09,17.45,15.83,6.4,23.83,14.36,23.87,28,0,12.13-8.38,23.51-24.18,26.17l0,16Z" transform="translate(-91.67 -69.33)"/><path class="cls-17" d="M1098.07,309.51a91.2,91.2,0,1,1-47-120.12A91.2,91.2,0,0,1,1098.07,309.51Z" transform="translate(-91.67 -69.33)"/><path class="cls-18" d="M1083.15,303c-18,42.26-71.77,58-109.84,32.51a75.07,75.07,0,0,1-32.83-74c7.08-48.57,60.32-77,104.1-57.21C1081.83,220.26,1100,265.21,1083.15,303Z" transform="translate(-91.67 -69.33)"/><path class="cls-17" d="M1009.4,335.91l0-15.5c-8.91-.13-18.13-2.87-23.51-6.69l3.66-10.3a40.93,40.93,0,0,0,22.12,6.54c10.91,0,18.26-6.35,18.23-15.1,0-8.44-6-13.65-17.4-18.22-15.68-6.1-25.37-13.13-25.41-26.49,0-12.74,9-22.44,23.12-24.79l0-15.5,9.52,0,.05,14.89c9.21.28,15.51,2.72,20,5.32l-3.81,10.15a37,37,0,0,0-19.36-5.17c-11.82,0-16.26,7.11-16.24,13.25,0,8,5.72,12,19.09,17.45,15.83,6.4,23.84,14.36,23.88,28,0,12.13-8.38,23.51-24.19,26.17l.05,16Z" transform="translate(-91.67 -69.33)"/><circle class="cls-17" cx="1710.69" cy="272.93" r="91.2" transform="translate(-113.3 198.2) rotate(-8.89)"/><path class="cls-18" d="M1779.31,303c-18,42.26-71.78,58-109.85,32.51a75.09,75.09,0,0,1-32.83-74c7.08-48.57,60.33-77,104.1-57.21C1778,220.26,1796.16,265.21,1779.31,303Z" transform="translate(-91.67 -69.33)"/><path class="cls-17" d="M1705.56,335.91l0-15.5c-8.9-.13-18.12-2.87-23.51-6.69l3.66-10.3a41,41,0,0,0,22.13,6.54c10.9,0,18.25-6.35,18.23-15.1,0-8.44-6-13.65-17.41-18.22-15.67-6.1-25.37-13.13-25.4-26.49,0-12.74,9-22.44,23.11-24.79l0-15.5,9.52,0,0,14.89c9.21.28,15.51,2.72,20,5.32L1732,240.19a37,37,0,0,0-19.36-5.17c-11.82,0-16.25,7.11-16.24,13.25,0,8,5.72,12,19.09,17.45,15.84,6.4,23.84,14.36,23.88,28,0,12.13-8.38,23.51-24.19,26.17l0,16Z" transform="translate(-91.67 -69.33)"/><path class="cls-17" d="M1980.08,574.08a91.2,91.2,0,1,1-47-120.12A91.2,91.2,0,0,1,1980.08,574.08Z" transform="translate(-91.67 -69.33)"/><path class="cls-18" d="M1965.16,567.55c-18,42.26-71.77,58-109.84,32.5a75,75,0,0,1-32.83-74c7.08-48.57,60.32-77,104.1-57.21C1963.85,484.83,1982,529.77,1965.16,567.55Z" transform="translate(-91.67 -69.33)"/><path class="cls-17" d="M1891.41,600.48l0-15.5c-8.91-.13-18.13-2.87-23.51-6.69l3.66-10.3a40.93,40.93,0,0,0,22.12,6.54c10.9,0,18.26-6.35,18.23-15.1,0-8.44-6-13.65-17.4-18.22-15.68-6.1-25.37-13.13-25.41-26.49,0-12.75,9-22.44,23.12-24.79l0-15.5,9.52,0,0,14.89c9.21.28,15.51,2.72,20,5.32l-3.81,10.14a37.12,37.12,0,0,0-19.36-5.16c-11.82,0-16.25,7.11-16.24,13.25,0,8,5.72,12,19.09,17.45,15.83,6.4,23.84,14.36,23.88,28,0,12.13-8.38,23.51-24.19,26.17l0,16Z" transform="translate(-91.67 -69.33)"/><path class="cls-17" d="M1473.09,197.14a91.2,91.2,0,1,1-47-120.12A91.2,91.2,0,0,1,1473.09,197.14Z" transform="translate(-91.67 -69.33)"/><path class="cls-18" d="M1458.17,190.6c-18,42.27-71.77,58.05-109.84,32.51a75.06,75.06,0,0,1-32.83-74c7.08-48.57,60.32-77,104.1-57.21C1456.85,107.88,1475,152.83,1458.17,190.6Z" transform="translate(-91.67 -69.33)"/><path class="cls-17" d="M1384.42,223.54l0-15.51c-8.91-.13-18.13-2.86-23.51-6.69l3.66-10.3a40.76,40.76,0,0,0,22.12,6.54c10.9,0,18.26-6.34,18.23-15.09,0-8.45-6-13.65-17.4-18.22-15.68-6.1-25.37-13.14-25.41-26.5,0-12.74,9-22.44,23.12-24.78l0-15.51,9.52,0,0,14.89c9.22.28,15.52,2.72,20,5.32l-3.81,10.14a37.12,37.12,0,0,0-19.36-5.16c-11.82,0-16.26,7.1-16.24,13.24,0,8,5.72,12,19.09,17.45,15.83,6.41,23.84,14.37,23.88,28,0,12.12-8.38,23.51-24.19,26.16l0,16Z" transform="translate(-91.67 -69.33)"/><path class="cls-19" d="M1751.22,680.1a8,8,0,0,1-8-8c0-6.51-.16-13.1-.49-19.58a8,8,0,1,1,16-.82c.35,6.75.52,13.62.52,20.4A8,8,0,0,1,1751.22,680.1Z" transform="translate(-91.67 -69.33)"/><path class="cls-19" d="M1746.54,619.85a8,8,0,0,1-7.89-6.77,378.52,378.52,0,0,0-8.18-38.76,8,8,0,1,1,15.46-4.12,394.12,394.12,0,0,1,8.53,40.41,8,8,0,0,1-6.67,9.14A7.53,7.53,0,0,1,1746.54,619.85ZM983,619.51a7.61,7.61,0,0,1-1.25-.1,8,8,0,0,1-6.66-9.15,390.85,390.85,0,0,1,8.56-40.4A8,8,0,0,1,999.07,574a378.68,378.68,0,0,0-8.22,38.76A8,8,0,0,1,983,619.51Zm742.76-77.76a8,8,0,0,1-7.47-5.14,378.66,378.66,0,0,0-16.12-36.21,8,8,0,0,1,14.25-7.27,391.49,391.49,0,0,1,16.81,37.75,8,8,0,0,1-4.6,10.33A7.88,7.88,0,0,1,1725.72,541.75Zm-721.88-.31a8,8,0,0,1-7.46-10.87,395.39,395.39,0,0,1,16.82-37.7,8,8,0,0,1,14.25,7.28,379.06,379.06,0,0,0-16.14,36.16A8,8,0,0,1,1003.84,541.44ZM1689,469.72a8,8,0,0,1-6.72-3.64A381.81,381.81,0,0,0,1659,434,8,8,0,0,1,1671.42,424a400,400,0,0,1,24.29,33.41,8,8,0,0,1-6.7,12.36Zm-648.42-.22a8,8,0,0,1-6.7-12.36,398.32,398.32,0,0,1,24.31-33.39,8,8,0,1,1,12.42,10.08,380.59,380.59,0,0,0-23.32,32A8,8,0,0,1,1040.59,469.5Zm597.53-62.59a8,8,0,0,1-5.66-2.35A381.24,381.24,0,0,0,1603,378a8,8,0,0,1,10.08-12.43,399.71,399.71,0,0,1,30.67,27.66,8,8,0,0,1-5.66,13.65Zm-546.62-.17a8,8,0,0,1-5.66-13.66,399.89,399.89,0,0,1,30.7-27.64,8,8,0,0,1,10.07,12.44,379.35,379.35,0,0,0-29.45,26.52A8,8,0,0,1,1091.5,406.74ZM1575.36,356a8,8,0,0,1-4.36-1.3,381.89,381.89,0,0,0-34.28-19.85A8,8,0,0,1,1544,320.6a395.56,395.56,0,0,1,35.73,20.69,8,8,0,0,1-4.37,14.71Zm-421-.15a8,8,0,0,1-4.37-14.7,395.12,395.12,0,0,1,35.77-20.68,8,8,0,0,1,7.27,14.25,381.44,381.44,0,0,0-34.32,19.84A7.88,7.88,0,0,1,1154.31,355.85Zm349.12-36.61a8,8,0,0,1-2.87-.53,375.46,375.46,0,0,0-37.68-12.25A8,8,0,0,1,1467,291a392.94,392.94,0,0,1,39.28,12.78,8,8,0,0,1-2.87,15.46Zm-277.11-.11a8,8,0,0,1-2.87-15.47,393.3,393.3,0,0,1,39.31-12.75,8,8,0,0,1,4.13,15.46,377.62,377.62,0,0,0-37.71,12.23A8,8,0,0,1,1226.32,319.13Zm199.06-20.79a8.91,8.91,0,0,1-1.26-.1,381,381,0,0,0-39.41-4.12,8,8,0,1,1,.83-16,396.58,396.58,0,0,1,41.07,4.28,8,8,0,0,1-1.23,15.91Zm-121,0a8,8,0,0,1-1.22-15.91,396.53,396.53,0,0,1,41.07-4.25,8,8,0,0,1,.82,16,378.72,378.72,0,0,0-39.42,4.08A8.78,8.78,0,0,1,1304.4,298.29Z" transform="translate(-91.67 -69.33)"/><path class="cls-19" d="M978.23,680.1a8,8,0,0,1-8-8c0-6.78.17-13.64.52-20.4a8,8,0,0,1,16,.82c-.34,6.48-.5,13.07-.5,19.58A8,8,0,0,1,978.23,680.1Z" transform="translate(-91.67 -69.33)"/><path class="cls-19" d="M1086.52,680.1a8,8,0,0,1-8-8c0-6.84.24-13.75.72-20.55a8,8,0,0,1,16,1.14c-.45,6.42-.68,12.95-.68,19.41A8,8,0,0,1,1086.52,680.1Z" transform="translate(-91.67 -69.33)"/><path class="cls-19" d="M1092.85,620.84a7.64,7.64,0,0,1-1.7-.19,8,8,0,0,1-6.12-9.51,285.22,285.22,0,0,1,11.5-39.19,8,8,0,1,1,15,5.6,270.15,270.15,0,0,0-10.86,37A8,8,0,0,1,1092.85,620.84Zm543.7-.21a8,8,0,0,1-7.81-6.3,266.77,266.77,0,0,0-10.88-37,8,8,0,0,1,15-5.61,285.34,285.34,0,0,1,11.53,39.16,8,8,0,0,1-6.12,9.52A8.3,8.3,0,0,1,1636.55,620.63Zm-516-74a7.91,7.91,0,0,1-3.83-1,8,8,0,0,1-3.18-10.86,288.14,288.14,0,0,1,22.12-34.32,8,8,0,1,1,12.79,9.6,271.94,271.94,0,0,0-20.87,32.4A8,8,0,0,1,1120.54,546.66Zm488.29-.13a8,8,0,0,1-7-4.16A271.67,271.67,0,0,0,1580.93,510a8,8,0,0,1,12.79-9.61,287.79,287.79,0,0,1,22.12,34.29,8,8,0,0,1-7,11.85Zm-440.78-63.2a8,8,0,0,1-5.65-13.65,288.09,288.09,0,0,1,30.83-26.74,8,8,0,0,1,9.6,12.81A271.84,271.84,0,0,0,1173.71,481,8,8,0,0,1,1168.05,483.33Zm393.26-.09a8,8,0,0,1-5.65-2.33,272.06,272.06,0,0,0-29.14-25.24,8,8,0,0,1,9.59-12.81A290.38,290.38,0,0,1,1567,469.58a8,8,0,0,1-5.65,13.66Zm-329.92-47.36a8,8,0,0,1-3.85-15,286.79,286.79,0,0,1,37.11-17,8,8,0,0,1,5.59,15,271,271,0,0,0-35,16A7.92,7.92,0,0,1,1231.39,435.88Zm266.54-.08a7.91,7.91,0,0,1-3.83-1,269.5,269.5,0,0,0-35.06-16,8,8,0,1,1,5.59-15,285.72,285.72,0,0,1,37.14,17,8,8,0,0,1-3.84,15ZM1305.5,408.21a8,8,0,0,1-1.68-15.82,286.9,286.9,0,0,1,40.4-5.77,8,8,0,1,1,1.13,16,271.14,271.14,0,0,0-38.14,5.45A8.28,8.28,0,0,1,1305.5,408.21Zm118.24,0a8.26,8.26,0,0,1-1.7-.18,271.1,271.1,0,0,0-38.14-5.43,8,8,0,0,1,1.12-16,288.33,288.33,0,0,1,40.4,5.75,8,8,0,0,1-1.68,15.82Z" transform="translate(-91.67 -69.33)"/><path class="cls-19" d="M1642.93,680.1a8,8,0,0,1-8-8c0-6.46-.23-13-.68-19.41a8,8,0,1,1,16-1.14c.48,6.8.72,13.71.72,20.55A8,8,0,0,1,1642.93,680.1Z" transform="translate(-91.67 -69.33)"/><path class="cls-19" d="M1749.81,684.79h-.1a5,5,0,0,1-3.91-2l-51.06-68.67a5,5,0,1,1,8-6L1750,671.63l47-58.36a5,5,0,1,1,7.78,6.26l-51.07,63.39A5,5,0,0,1,1749.81,684.79Z" transform="translate(-91.67 -69.33)"/><path class="cls-19" d="M1086.36,684.79h-.1a5,5,0,0,1-3.91-2l-51.06-68.67a5,5,0,0,1,8-6l47.21,63.49,47-58.36a5,5,0,1,1,7.78,6.26l-51.06,63.39A5,5,0,0,1,1086.36,684.79Z" transform="translate(-91.67 -69.33)"/><path class="cls-18" d="M2101.58,1762.21v20.26a14.34,14.34,0,0,1-14.33,14.33H1840a14.34,14.34,0,0,1-14.34-14.33v-20.26a14.34,14.34,0,0,1,14.34-14.33h247.27a14.32,14.32,0,0,1,14.33,14.33Z" transform="translate(-91.67 -69.33)"/><rect class="cls-17" x="1747.68" y="1678.54" width="7.18" height="48.93"/><rect class="cls-17" x="1777.8" y="1678.54" width="7.18" height="48.93"/><rect class="cls-17" x="1807.92" y="1678.54" width="7.18" height="48.93"/><rect class="cls-17" x="1838.04" y="1678.54" width="7.18" height="48.93"/><rect class="cls-17" x="1868.16" y="1678.54" width="7.18" height="48.93"/><rect class="cls-17" x="1898.27" y="1678.54" width="7.18" height="48.93"/><rect class="cls-17" x="1928.39" y="1678.54" width="7.18" height="48.93"/><rect class="cls-17" x="1958.51" y="1678.54" width="7.18" height="48.93"/><rect class="cls-17" x="1988.63" y="1678.54" width="7.18" height="48.93"/><path class="cls-17" d="M2098.2,1753H1829a14.3,14.3,0,0,1,11-5.08h247.27A14.33,14.33,0,0,1,2098.2,1753Z" transform="translate(-91.67 -69.33)"/><path class="cls-17" d="M2098.2,1791.72H1829a14.3,14.3,0,0,0,11,5.08h247.27A14.33,14.33,0,0,0,2098.2,1791.72Z" transform="translate(-91.67 -69.33)"/><path class="cls-18" d="M2118.88,1713.28v20.26a14.34,14.34,0,0,1-14.34,14.34H1857.27a14.34,14.34,0,0,1-14.33-14.34v-20.26a14.32,14.32,0,0,1,14.33-14.33h247.27a14.34,14.34,0,0,1,14.34,14.33Z" transform="translate(-91.67 -69.33)"/><rect class="cls-17" x="1764.97" y="1629.62" width="7.18" height="48.92"/><rect class="cls-17" x="1795.09" y="1629.62" width="7.18" height="48.92"/><rect class="cls-17" x="1825.21" y="1629.62" width="7.18" height="48.92"/><rect class="cls-17" x="1855.33" y="1629.62" width="7.18" height="48.92"/><rect class="cls-17" x="1885.45" y="1629.62" width="7.18" height="48.92"/><rect class="cls-17" x="1915.57" y="1629.62" width="7.18" height="48.92"/><rect class="cls-17" x="1945.69" y="1629.62" width="7.18" height="48.92"/><rect class="cls-17" x="1975.81" y="1629.62" width="7.18" height="48.92"/><rect class="cls-17" x="2005.93" y="1629.62" width="7.18" height="48.92"/><path class="cls-17" d="M2115.49,1704H1846.32a14.32,14.32,0,0,1,11-5.08h247.27A14.3,14.3,0,0,1,2115.49,1704Z" transform="translate(-91.67 -69.33)"/><path class="cls-17" d="M2115.49,1742.79H1846.32a14.32,14.32,0,0,0,11,5.09h247.27A14.31,14.31,0,0,0,2115.49,1742.79Z" transform="translate(-91.67 -69.33)"/><path class="cls-18" d="M2105.47,1664.44v20.26a14.34,14.34,0,0,1-14.34,14.34H1843.86a14.34,14.34,0,0,1-14.33-14.34v-20.26a14.32,14.32,0,0,1,14.33-14.33h247.27a14.34,14.34,0,0,1,14.34,14.33Z" transform="translate(-91.67 -69.33)"/><rect class="cls-17" x="1751.56" y="1580.77" width="7.18" height="48.92"/><rect class="cls-17" x="1781.68" y="1580.77" width="7.18" height="48.92"/><rect class="cls-17" x="1811.8" y="1580.77" width="7.18" height="48.92"/><rect class="cls-17" x="1841.92" y="1580.77" width="7.18" height="48.92"/><rect class="cls-17" x="1872.04" y="1580.77" width="7.18" height="48.92"/><rect class="cls-17" x="1902.16" y="1580.77" width="7.18" height="48.92"/><rect class="cls-17" x="1932.28" y="1580.77" width="7.18" height="48.92"/><rect class="cls-17" x="1962.4" y="1580.77" width="7.18" height="48.92"/><rect class="cls-17" x="1992.52" y="1580.77" width="7.18" height="48.92"/><path class="cls-17" d="M2102.08,1655.19H1832.91a14.32,14.32,0,0,1,10.95-5.08h247.27A14.3,14.3,0,0,1,2102.08,1655.19Z" transform="translate(-91.67 -69.33)"/><path class="cls-17" d="M2102.08,1694H1832.91a14.32,14.32,0,0,0,10.95,5.08h247.27A14.3,14.3,0,0,0,2102.08,1694Z" transform="translate(-91.67 -69.33)"/><path class="cls-18" d="M2111,1616.49v20.26a14.34,14.34,0,0,1-14.34,14.33H1849.38a14.34,14.34,0,0,1-14.33-14.33v-20.26a14.34,14.34,0,0,1,14.33-14.34h247.27a14.35,14.35,0,0,1,14.34,14.34Z" transform="translate(-91.67 -69.33)"/><rect class="cls-17" x="1757.08" y="1532.82" width="7.18" height="48.92"/><rect class="cls-17" x="1787.2" y="1532.82" width="7.18" height="48.92"/><rect class="cls-17" x="1817.32" y="1532.82" width="7.18" height="48.92"/><rect class="cls-17" x="1847.44" y="1532.82" width="7.18" height="48.92"/><rect class="cls-17" x="1877.56" y="1532.82" width="7.18" height="48.92"/><rect class="cls-17" x="1907.68" y="1532.82" width="7.18" height="48.92"/><rect class="cls-17" x="1937.8" y="1532.82" width="7.18" height="48.92"/><rect class="cls-17" x="1967.92" y="1532.82" width="7.18" height="48.92"/><rect class="cls-17" x="1998.04" y="1532.82" width="7.18" height="48.92"/><path class="cls-17" d="M2107.6,1607.24H1838.43a14.31,14.31,0,0,1,11-5.09h247.27A14.31,14.31,0,0,1,2107.6,1607.24Z" transform="translate(-91.67 -69.33)"/><path class="cls-17" d="M2107.6,1646H1838.43a14.3,14.3,0,0,0,11,5.08h247.27A14.3,14.3,0,0,0,2107.6,1646Z" transform="translate(-91.67 -69.33)"/><path class="cls-18" d="M2080.16,1566.83v20.25a14.34,14.34,0,0,1-14.33,14.34H1818.56a14.34,14.34,0,0,1-14.34-14.34v-20.25a14.34,14.34,0,0,1,14.34-14.34h247.27a14.32,14.32,0,0,1,14.33,14.34Z" transform="translate(-91.67 -69.33)"/><rect class="cls-17" x="1726.26" y="1483.16" width="7.18" height="48.93"/><rect class="cls-17" x="1756.38" y="1483.16" width="7.18" height="48.93"/><rect class="cls-17" x="1786.5" y="1483.16" width="7.18" height="48.93"/><rect class="cls-17" x="1816.62" y="1483.16" width="7.18" height="48.93"/><rect class="cls-17" x="1846.73" y="1483.16" width="7.18" height="48.93"/><rect class="cls-17" x="1876.85" y="1483.16" width="7.18" height="48.93"/><rect class="cls-17" x="1906.97" y="1483.16" width="7.18" height="48.93"/><rect class="cls-17" x="1937.09" y="1483.16" width="7.18" height="48.93"/><rect class="cls-17" x="1967.21" y="1483.16" width="7.18" height="48.93"/><path class="cls-17" d="M2076.78,1557.57H1807.61a14.3,14.3,0,0,1,11-5.08h247.27A14.33,14.33,0,0,1,2076.78,1557.57Z" transform="translate(-91.67 -69.33)"/><path class="cls-17" d="M2076.78,1596.34H1807.61a14.3,14.3,0,0,0,11,5.08h247.27A14.33,14.33,0,0,0,2076.78,1596.34Z" transform="translate(-91.67 -69.33)"/><path class="cls-18" d="M2110.49,1518.47v20.26a14.34,14.34,0,0,1-14.33,14.33H1848.89a14.34,14.34,0,0,1-14.34-14.33v-20.26a14.34,14.34,0,0,1,14.34-14.33h247.27a14.32,14.32,0,0,1,14.33,14.33Z" transform="translate(-91.67 -69.33)"/><rect class="cls-17" x="1756.59" y="1434.8" width="7.18" height="48.92"/><rect class="cls-17" x="1786.71" y="1434.8" width="7.18" height="48.92"/><rect class="cls-17" x="1816.83" y="1434.8" width="7.18" height="48.92"/><rect class="cls-17" x="1846.95" y="1434.8" width="7.18" height="48.92"/><rect class="cls-17" x="1877.07" y="1434.8" width="7.18" height="48.92"/><rect class="cls-17" x="1907.19" y="1434.8" width="7.18" height="48.92"/><rect class="cls-17" x="1937.31" y="1434.8" width="7.18" height="48.92"/><rect class="cls-17" x="1967.42" y="1434.8" width="7.18" height="48.92"/><rect class="cls-17" x="1997.54" y="1434.8" width="7.18" height="48.92"/><path class="cls-17" d="M2107.11,1509.22H1837.94a14.3,14.3,0,0,1,11-5.08h247.27A14.3,14.3,0,0,1,2107.11,1509.22Z" transform="translate(-91.67 -69.33)"/><path class="cls-17" d="M2107.11,1548H1837.94a14.3,14.3,0,0,0,11,5.08h247.27A14.3,14.3,0,0,0,2107.11,1548Z" transform="translate(-91.67 -69.33)"/><path class="cls-18" d="M2099.74,1469.39v20.26A14.34,14.34,0,0,1,2085.4,1504H1838.13a14.34,14.34,0,0,1-14.33-14.34v-20.26a14.32,14.32,0,0,1,14.33-14.33H2085.4a14.34,14.34,0,0,1,14.34,14.33Z" transform="translate(-91.67 -69.33)"/><rect class="cls-17" x="1745.83" y="1385.73" width="7.18" height="48.93"/><rect class="cls-17" x="1775.95" y="1385.73" width="7.18" height="48.93"/><rect class="cls-17" x="1806.07" y="1385.73" width="7.18" height="48.93"/><rect class="cls-17" x="1836.19" y="1385.73" width="7.18" height="48.93"/><rect class="cls-17" x="1866.31" y="1385.73" width="7.18" height="48.93"/><rect class="cls-17" x="1896.43" y="1385.73" width="7.18" height="48.93"/><rect class="cls-17" x="1926.55" y="1385.73" width="7.18" height="48.93"/><rect class="cls-17" x="1956.67" y="1385.73" width="7.18" height="48.93"/><rect class="cls-17" x="1986.79" y="1385.73" width="7.18" height="48.93"/><path class="cls-17" d="M2096.35,1460.14H1827.18a14.3,14.3,0,0,1,11-5.08H2085.4A14.3,14.3,0,0,1,2096.35,1460.14Z" transform="translate(-91.67 -69.33)"/><path class="cls-17" d="M2096.35,1498.91H1827.18a14.33,14.33,0,0,0,11,5.08H2085.4A14.33,14.33,0,0,0,2096.35,1498.91Z" transform="translate(-91.67 -69.33)"/><path class="cls-18" d="M2114.51,1420.74V1441a14.34,14.34,0,0,1-14.33,14.33H1852.91a14.34,14.34,0,0,1-14.34-14.33v-20.26a14.34,14.34,0,0,1,14.34-14.33h247.27a14.32,14.32,0,0,1,14.33,14.33Z" transform="translate(-91.67 -69.33)"/><rect class="cls-17" x="1760.61" y="1337.07" width="7.18" height="48.93"/><rect class="cls-17" x="1790.73" y="1337.07" width="7.18" height="48.93"/><rect class="cls-17" x="1820.85" y="1337.07" width="7.18" height="48.93"/><rect class="cls-17" x="1850.97" y="1337.07" width="7.18" height="48.93"/><rect class="cls-17" x="1881.09" y="1337.07" width="7.18" height="48.93"/><rect class="cls-17" x="1911.21" y="1337.07" width="7.18" height="48.93"/><rect class="cls-17" x="1941.33" y="1337.07" width="7.18" height="48.93"/><rect class="cls-17" x="1971.44" y="1337.07" width="7.18" height="48.93"/><rect class="cls-17" x="2001.56" y="1337.07" width="7.18" height="48.93"/><path class="cls-17" d="M2111.13,1411.49H1842a14.3,14.3,0,0,1,11-5.08h247.27A14.32,14.32,0,0,1,2111.13,1411.49Z" transform="translate(-91.67 -69.33)"/><path class="cls-17" d="M2111.13,1450.25H1842a14.3,14.3,0,0,0,11,5.08h247.27A14.32,14.32,0,0,0,2111.13,1450.25Z" transform="translate(-91.67 -69.33)"/><circle class="cls-17" cx="1831.03" cy="1651.5" r="147.57" transform="translate(-516.77 587.17) rotate(-18.25)"/><path class="cls-18" d="M1946.38,1688.75a121.29,121.29,0,0,1-171.58,70.15,120,120,0,0,1-27.33-19.55c-3-2.9-5.92-5.95-8.64-9.12a121.25,121.25,0,0,1,167-174.11,116.4,116.4,0,0,1,9.46,8.25,121.4,121.4,0,0,1,31.05,124.38Z" transform="translate(-91.67 -69.33)"/><path class="cls-20" d="M1905.87,1556.12l-167,174.11a121.53,121.53,0,0,1-28.88-85.09l109.7-114.35a121.57,121.57,0,0,1,86.22,25.33Z" transform="translate(-91.67 -69.33)"/><path class="cls-20" d="M1936,1590.88l-161.19,168a120,120,0,0,1-27.33-19.55l167.86-175A121,121,0,0,1,1936,1590.88Z" transform="translate(-91.67 -69.33)"/><path class="cls-3" d="M1839.16,1536.29c-14.32-1.51-16.94-.1-23.37,12.6,1.6-14.14.19-16.76-12.61-23.36,14.32,1.5,16.94.09,23.37-12.61C1825,1527.24,1826.46,1529.86,1839.16,1536.29Z" transform="translate(-91.67 -69.33)"/><path class="cls-3" d="M1788.48,1764c-12.09-1.27-14.29-.08-19.72,10.64,1.35-11.94.16-14.14-10.64-19.72,12.08,1.27,14.29.08,19.72-10.64C1776.57,1756.33,1777.76,1758.54,1788.48,1764Z" transform="translate(-91.67 -69.33)"/><path class="cls-4" d="M1926.68,1161.6c-89.31,0-162-72.66-162-162s72.66-162,162-162,162,72.66,162,162S2016,1161.6,1926.68,1161.6Zm0-315.93c-84.9,0-154,69.07-154,154s69.07,154,154,154,154-69.07,154-154S2011.57,845.67,1926.68,845.67Z" transform="translate(-91.67 -69.33)"/><path class="cls-4" d="M1926.68,1091.56a21.5,21.5,0,0,1-21.5-21.5V772.88a21.5,21.5,0,1,1,43,0v297.18A21.51,21.51,0,0,1,1926.68,1091.56Z" transform="translate(-91.67 -69.33)"/><path class="cls-4" d="M1926.68,1161.6c-89.31,0-162-72.66-162-162s72.66-162,162-162,162,72.66,162,162S2016,1161.6,1926.68,1161.6Zm0-315.93c-84.9,0-154,69.07-154,154s69.07,154,154,154,154-69.07,154-154S2011.57,845.67,1926.68,845.67Z" transform="translate(-91.67 -69.33)"/><path class="cls-4" d="M1926.68,1091.56a21.5,21.5,0,0,1-21.5-21.5V772.88a21.5,21.5,0,1,1,43,0v297.18A21.51,21.51,0,0,1,1926.68,1091.56Z" transform="translate(-91.67 -69.33)"/><path class="cls-4" d="M1928.15,1109.21l-.83,0a21.48,21.48,0,0,1-16.55-8.83L1821.49,986a21.5,21.5,0,1,1,34.76-25.31L1929.5,1053l68.64-93.68a21.5,21.5,0,1,1,32.69,27.93l-86.33,114.4A21.54,21.54,0,0,1,1928.15,1109.21Z" transform="translate(-91.67 -69.33)"/><path class="cls-4" d="M853.36,1145.13c-89.31,0-162-72.65-162-162s72.66-162,162-162,162,72.65,162,162S942.66,1145.13,853.36,1145.13Zm0-315.92c-84.9,0-154,69.06-154,154s69.07,154,154,154,154-69.07,154-154S938.25,829.21,853.36,829.21Z" transform="translate(-91.67 -69.33)"/><circle class="cls-4" cx="853.36" cy="983.17" r="117.21" transform="translate(-536.93 822.04) rotate(-45)"/><path class="cls-19" d="M942.13,1032.36a101.26,101.26,0,0,1-177.55,0,102.17,102.17,0,0,1,48.48-43.68,54.44,54.44,0,1,1,80.59,0A102.17,102.17,0,0,1,942.13,1032.36Z" transform="translate(-91.67 -69.33)"/><path class="cls-17" d="M2095.63,1260.88l-68-36.54-5.75,10.69h0c-2.77,5.16,10.27,17.58,29.14,27.72s36.42,14.19,39.2,9C2090.52,1271.3,2095.63,1260.88,2095.63,1260.88Z" transform="translate(-91.67 -69.33)"/><path class="cls-18" d="M2095.7,1261.66c-2.78,5.16-20.33,1.13-39.2-9s-31.91-22.57-29.13-27.73,20.32-1.13,39.19,9S2098.48,1256.49,2095.7,1261.66Z" transform="translate(-91.67 -69.33)"/><path class="cls-17" d="M1793.66,1398.22l-68.77,11.17q.87,5.4,1.75,10.82h0c.85,5.22,17,7,36.12,3.85s33.89-9.86,33-15.09C1795.73,1408.49,1793.66,1398.22,1793.66,1398.22Z" transform="translate(-91.67 -69.33)"/><path class="cls-18" d="M1794.14,1398.74c.85,5.22-13.94,12-33,15.08s-35.27,1.38-36.12-3.85,14-12,33-15.09S1793.29,1393.51,1794.14,1398.74Z" transform="translate(-91.67 -69.33)"/><path class="cls-17" d="M1875.83,1277.56l-62.51-30.78q-2.41,4.92-4.84,9.83h0c-2.34,4.75,9.84,15.53,27.19,24.08s33.33,11.63,35.67,6.88C1871.55,1287.13,1875.83,1277.56,1875.83,1277.56Z" transform="translate(-91.67 -69.33)"/><path class="cls-18" d="M1875.92,1278.27c-2.34,4.75-18.31,1.67-35.66-6.88s-29.54-19.33-27.19-24.08,18.3-1.68,35.66,6.87S1878.26,1273.51,1875.92,1278.27Z" transform="translate(-91.67 -69.33)"/><path class="cls-17" d="M1782.66,1161.44l-72,11.69q.91,5.65,1.84,11.32h0c.89,5.47,17.81,7.28,37.8,4s35.48-10.31,34.59-15.78C1784.82,1172.19,1782.66,1161.44,1782.66,1161.44Z" transform="translate(-91.67 -69.33)"/><path class="cls-18" d="M1783.16,1162c.89,5.47-14.6,12.54-34.59,15.79s-36.91,1.44-37.8-4,14.59-12.54,34.58-15.79S1782.27,1156.51,1783.16,1162Z" transform="translate(-91.67 -69.33)"/><rect class="cls-4" x="504.5" y="1171.32" width="506.8" height="162.58" rx="35.12"/><path class="cls-17" d="M753.6,1299.07v45.74a22.32,22.32,0,0,1-22.32,22.32h-86.5a22.32,22.32,0,0,1-22.31-22.32v-45.74a22.31,22.31,0,0,1,22.31-22.32h86.5a22.34,22.34,0,0,1,22.32,22.32Z" transform="translate(-91.67 -69.33)"/><path class="cls-19" d="M929.91,1340.55H786.38a18.61,18.61,0,0,1-18.61-18.61h0a18.61,18.61,0,0,1,18.61-18.6H929.91a18.61,18.61,0,0,1,18.61,18.6h0A18.61,18.61,0,0,1,929.91,1340.55Z" transform="translate(-91.67 -69.33)"/><path class="cls-6" d="M1058.07,1340.55H986.14a18.61,18.61,0,0,1-18.6-18.61h0a18.6,18.6,0,0,1,18.6-18.6h71.93a18.6,18.6,0,0,1,18.6,18.6h0A18.61,18.61,0,0,1,1058.07,1340.55Z" transform="translate(-91.67 -69.33)"/><path class="cls-18" d="M744.69,1281.24l-112.21,82.19a22.29,22.29,0,0,1-10-18.62v-45.74a22.31,22.31,0,0,1,22.31-22.32h86.5A22.17,22.17,0,0,1,744.69,1281.24Z" transform="translate(-91.67 -69.33)"/><path class="cls-13" d="M724.58,1341.41a15,15,0,1,1-15-15A15,15,0,0,1,724.58,1341.41Z" transform="translate(-91.67 -69.33)"/><path class="cls-19" d="M742.4,1341.41a15,15,0,1,1-15-15A15,15,0,0,1,742.4,1341.41Z" transform="translate(-91.67 -69.33)"/><path class="cls-16" d="M2332,1136.58c8.72-27.31,6.58-53.81-12.58-71.65-19.43-18.08-50.57-12.41-50.57-12.41h0s-21.79-14.2-49.1,4.4-16,43.46-29,58.68c-7.7,9-34.82,4.75-36,39.86-.33,10.13,9.71,19.42,19.39,22.42,17,5.29,35.84,1.84,40.09,10.84,14.63,30.92,70.83,31.88,82.83,13.47,3.72-5.71,46.81,17.42,52.44-26.19C2352.35,1153.9,2324.2,1161,2332,1136.58Z" transform="translate(-91.67 -69.33)"/><path class="cls-14" d="M2220.7,1125.85c-3.54,33.62,15,63.13,41.41,65.91s50.68-22.23,54.22-55.85-15-63.14-41.41-65.92S2224.24,1092.22,2220.7,1125.85Z" transform="translate(-91.67 -69.33)"/><path d="M2302,1140a4.62,4.62,0,1,0,4-5.15A4.62,4.62,0,0,0,2302,1140Z" transform="translate(-91.67 -69.33)"/><path d="M2264.86,1136.36a5,5,0,1,0,4.35-5.57A5,5,0,0,0,2264.86,1136.36Z" transform="translate(-91.67 -69.33)"/><path class="cls-16" d="M2261,1130.62a1.75,1.75,0,0,0,1-.51c4.17-4.26,10.9-3,11-3a1.74,1.74,0,0,0,.68-3.41c-.35-.07-8.63-1.67-14.13,4a1.73,1.73,0,0,0,0,2.45A1.75,1.75,0,0,0,2261,1130.62Z" transform="translate(-91.67 -69.33)"/><path class="cls-16" d="M2313.77,1137.06a1.58,1.58,0,0,0,.55-.16,1.74,1.74,0,0,0,.8-2.32,12.19,12.19,0,0,0-10.43-6.84,1.74,1.74,0,0,0,0,3.48,8.69,8.69,0,0,1,7.33,4.88A1.75,1.75,0,0,0,2313.77,1137.06Z" transform="translate(-91.67 -69.33)"/><path class="cls-15" d="M2295.9,1148.5c1.52,3.3,2.72,6.57,4.49,8.81a1.83,1.83,0,0,1-.25,2.5c-3,2.62-9.32,3.41-13.12,3.64a.49.49,0,0,1-.21-.94,23.89,23.89,0,0,0,7.57-4.35,2.17,2.17,0,0,0,.65-1.87c-.2-1.59-.59-4.82-.7-7.42A.82.82,0,0,1,2295.9,1148.5Z" transform="translate(-91.67 -69.33)"/><path class="cls-3" d="M2260.24,1163.7a1.39,1.39,0,0,1,1.94-1.66,98.17,98.17,0,0,0,24.61,8.7,1.39,1.39,0,0,1,.46,2.51,17.3,17.3,0,0,1-27-9.55Z" transform="translate(-91.67 -69.33)"/><path class="cls-16" d="M2221.07,1122.89c30.43,6.39,81.56-8.85,90.27-22.86.83-20.24-25.87-40-45.77-37.53S2216.88,1095.57,2221.07,1122.89Z" transform="translate(-91.67 -69.33)"/><path class="cls-15" d="M2310.66,1213.79c31.32,7.81,84.86,81,89.88,135.89-17.19,3.56-36.83-10.15-36.83-10.15l-42.55-61.21Z" transform="translate(-91.67 -69.33)"/><path class="cls-14" d="M2341,1841.68l16.78-66.08-41.63-5.73c-1.43,31.25-3.77,62-3.56,70.35Z" transform="translate(-91.67 -69.33)"/><path class="cls-14" d="M2241.62,1769.49h-43.46c1.42,10.42,7.13,66.81,7.13,66.81,3.67,8.34,36.06,6.44,36.06,1.75C2238.9,1827.89,2241.42,1770.79,2241.62,1769.49Z" transform="translate(-91.67 -69.33)"/><path class="cls-12" d="M2312.69,1795.32l42.86,6.33,29.72-177.74c-6.12-67.46-65.5-211-65.5-211l-66.93,23.44-1.63,63.29,80.6,136.47C2321.31,1662.54,2314.12,1747.87,2312.69,1795.32Z" transform="translate(-91.67 -69.33)"/><path class="cls-13" d="M2279.56,1417.71c-.61-4.17-.82-5.47-4.29-7.55L2211,1391.93l-15.31,15.1c-14.49,52.61-5.51,125.79,5.92,183.87-16.73,50.26-10.19,153.88-3.45,202.58h45.71c2.65-32.55,1.82-92.94,2-122.11h0c5.92-23.44,11.63-48.44,16.73-74.74,6.53-33.6,14.69-66.15,16.94-96.62C2281.6,1471.1,2282.21,1440.11,2279.56,1417.71Z" transform="translate(-91.67 -69.33)"/><path class="cls-14" d="M2198.48,1205.77c-15.11,9.91-78.8,92.77-43.7,161,1.62.9,29.73-46.73,29.73-46.73l33.18-65.69Z" transform="translate(-91.67 -69.33)"/><path class="cls-14" d="M2230.46,1162.66l39.9,22.66s3.54,16.16,5.31,21.4c3.65,10.82-10.33,15.54-22.14,8.81a80.35,80.35,0,0,1-19.46-15.74Z" transform="translate(-91.67 -69.33)"/><path class="cls-5" d="M2329.71,1423.45s-16.47,19.5-19.25,21l-14.75-16.1-.1.27-3.5,9.21-4.09,10.77c-3.42,0-106.25-23-106.25-23,.21-9.28,8.92-39.3,23-71.27-3.42-27.07-.14-55.22-1.21-70.83,8.31-41.86,2.38-57.94-5.11-77.66l26.09-7.71,47,16.56,3.49-11.32s29.45,7.06,35.64,10.49l11.12,46.42-2.41,98.64S2323.07,1398.56,2329.71,1423.45Z" transform="translate(-91.67 -69.33)"/><path class="cls-10" d="M2233.64,1192.84l-18.4,7.81c1.94,22.1,51.38,35.3,51.38,35.3l4.91-21.32Z" transform="translate(-91.67 -69.33)"/><path class="cls-10" d="M2271.53,1214.63l14.56,16.17s12.59-13,8-21.06-21.24-13.48-21.24-13.48Z" transform="translate(-91.67 -69.33)"/><path class="cls-8" d="M2330.82,1840.61c4.36-11.43,13.66-12.7,13.66-12.7,18.09,24.13,62.51,9.32,61,42-67.55-.42-95.63,0-95.63,0,.09-7.5,1.43-25.29,3-32.25l3.52.62Z" transform="translate(-91.67 -69.33)"/><path class="cls-8" d="M2218.23,1799.64h95.66a0,0,0,0,1,0,0v5.67a3.94,3.94,0,0,1-3.94,3.94h-87.77a3.95,3.95,0,0,1-3.95-3.95v-5.66A0,0,0,0,1,2218.23,1799.64Z"/><path class="cls-10" d="M2295.61,1428.58l-3.5,9.21c-3.17-21.19-15-109.9-8.32-134.39,6.25-23-1.57-47.26-9.15-70.71-1.85-5.74-3.77-11.66-5.41-17.4l2.3-.67,2.3-.65c1.62,5.66,3.52,11.55,5.36,17.25,7.79,24.12,15.83,49.06,9.2,73.44C2282.64,1325.8,2291.46,1398.62,2295.61,1428.58Z" transform="translate(-91.67 -69.33)"/><path class="cls-8" d="M2249.09,1870.19s-5.42-20.24-5.9-22.83c-.55-3-2.14-9.95-2.46-13.53-.08-.88-9.4-6.58-16.51-6.57-9.63,0-18.4,5.6-18.58,6.65-1.14,6.75-1.17,14.69-3,21.27-1.37,4.89-5.09,16.28-5.09,16.28Z" transform="translate(-91.67 -69.33)"/><path class="cls-8" d="M2249.09,1868.61c-1.27,4-16.86-.61-28.24-.61-9.55,0-21.91,3.7-23.31,2.26-2.39,4.22-.43,13-.43,13s10,.51,21.9,0,25.74.24,30.94-1.3C2253.23,1876.44,2249.09,1868.61,2249.09,1868.61Z" transform="translate(-91.67 -69.33)"/><path class="cls-14" d="M2269.05,1298.63s-82.3,82.5-114.27,68.16c-10.54-14.25,11.84-42.85,32.81-52.43s55.93-24.58,55.93-24.58Z" transform="translate(-91.67 -69.33)"/><path class="cls-21" d="M2284.63,1270.61l34.2-26.39a3.34,3.34,0,0,1,2.61-.64l23.29,4.22c.67.11,2,4.18,1.49,4.58l-23.25,14a.84.84,0,0,1-.38.15l-36.56,6.27C2285.26,1272.87,2284,1271.08,2284.63,1270.61Z" transform="translate(-91.67 -69.33)"/><path class="cls-22" d="M2286.39,1273.13l32.52-24.82a3.37,3.37,0,0,1,2.62-.64l24.06,4.06a.78.78,0,0,1,.34,1.38l-22.88,17.34a.84.84,0,0,1-.38.15l-35.73,3.91A.77.77,0,0,1,2286.39,1273.13Z" transform="translate(-91.67 -69.33)"/><path class="cls-14" d="M2242.62,1290.22l19.22-9.62s12.18-13.26,16-17.22c4.87-1.41,14.34-5.5,16.27-5.36a27.18,27.18,0,0,1,5.19,1.28l-11.12,8.7s4.53,2.09,10.89-.45,18.21-10.34,22.78-7.54l1.45,1.87s4-3.11,6.42-1c7.46,6.65-40.63,35.3-40.63,35.3l-20,2.4Z" transform="translate(-91.67 -69.33)"/><path class="cls-21" d="M2322.45,1253.64c-1.35.93-3,.83-3.75-.22s-.2-2.64,1.16-3.57,3-.83,3.75.22S2323.81,1252.71,2322.45,1253.64Z" transform="translate(-91.67 -69.33)"/><path class="cls-15" d="M2400.54,1349.68s-42.66,48.78-72.36,55.67c-1.76-9.77-3.39-17.26-3.39-17.26l40.48-53.29Z" transform="translate(-91.67 -69.33)"/><path id="c" class="cls-15" d="M2322.79,1408a4.1,4.1,0,0,1,.61-1.13l-.21-.06c-4.22-1.4-6.82-5-5.82-8a4.41,4.41,0,0,1,.75-1.34c-2.23-1.73-3.36-4.17-2.64-6.33A4.53,4.53,0,0,1,2317,1389c-2.34-1.58-3.54-4.23-2.74-6.65,1-3,4.74-4.5,8.34-3.31s5.7,4.61,4.69,7.63a4.9,4.9,0,0,1-1.24,2c3.51,1.62,5.56,4.8,4.65,7.54a4.12,4.12,0,0,1-.75,1.34c2.24,1.73,3.36,4.17,2.64,6.33a4.35,4.35,0,0,1-1.41,2c2.15,1.31,3.28,3.65,2.57,5.78-.85,2.55-4,3.8-7,2.79S2321.94,1410.58,2322.79,1408Z" transform="translate(-91.67 -69.33)"/><path class="cls-14" d="M2230.67,1127.9c4.95,7.73,3.84,17.28-2.49,21.33s-15.47,1.07-20.42-6.66-3.83-17.28,2.49-21.33S2225.72,1120.17,2230.67,1127.9Z" transform="translate(-91.67 -69.33)"/><path class="cls-15" d="M2220.37,1144.64a1.92,1.92,0,0,0,.87-.32c3.86-2.56,5.49-6.39,4.37-10.25a9.67,9.67,0,0,0-8.78-7,2,2,0,1,0-.08,4,5.73,5.73,0,0,1,5,4.07c.63,2.15-.34,4.2-2.73,5.79a2,2,0,0,0,1.35,3.66Z" transform="translate(-91.67 -69.33)"/><path class="cls-3" d="M294,1446a73.92,73.92,0,1,1-100.32-29.4A73.91,73.91,0,0,1,294,1446Z" transform="translate(-91.67 -69.33)"/><path class="cls-4" d="M252.43,1534l-6.76-12.36c-7.16,3.76-15.7,5.57-21.65,4.85l-1.55-9.8A37.1,37.1,0,0,0,243,1512.3c8.68-4.75,11.81-13,8-19.94-3.68-6.73-10.72-8.28-21.78-7-15.15,1.93-25.93.52-31.75-10.13-5.55-10.15-2.55-21.8,7.7-29.79l-6.76-12.35,7.59-4.15,6.49,11.87c7.47-3.77,13.55-4.56,18.24-4.42l1.35,9.75a33.53,33.53,0,0,0-17.68,4.27c-9.42,5.14-9.89,12.71-7.22,17.6,3.48,6.37,9.75,7.07,22.8,5.65,15.4-1.75,25.24,1.13,31.19,12,5.29,9.66,3.51,22.39-7.95,31.36l6.95,12.72Z" transform="translate(-91.67 -69.33)"/><path class="cls-3" d="M2620.71,1220.85a73.92,73.92,0,1,1-35-98.51A73.93,73.93,0,0,1,2620.71,1220.85Z" transform="translate(-91.67 -69.33)"/><path class="cls-4" d="M2525.09,1238.72l6-12.71c-7.24-3.6-13.72-9.46-16.63-14.71l7-7a37.15,37.15,0,0,0,15.55,14c8.94,4.25,17.44,2,20.85-5.21,3.29-6.93.42-13.54-7.1-21.75-10.44-11.15-15.62-20.71-10.4-31.66,5-10.45,16.17-14.85,28.65-11.22l6.05-12.72,7.8,3.72-5.81,12.21a37.05,37.05,0,0,1,14.27,12.19l-7.1,6.81a33.79,33.79,0,0,0-13.82-11.83c-9.7-4.61-16.1-.56-18.5,4.48-3.11,6.54,0,12,8.78,21.78,10.45,11.45,13.88,21.12,8.55,32.32-4.73,9.94-16.09,16-30.07,11.93l-6.23,13.1Z" transform="translate(-91.67 -69.33)"/><path class="cls-2" d="M2386.4,469.81A73.92,73.92,0,1,1,2289,432,73.92,73.92,0,0,1,2386.4,469.81Z" transform="translate(-91.67 -69.33)"/><path class="cls-3" d="M2337.48,553.89,2331.81,541c-7.46,3.13-16.13,4.2-22,3l-.7-9.9a37.13,37.13,0,0,0,20.79-2.6c9.06-4,12.88-11.92,9.67-19.19-3.09-7-10-9.16-21.1-8.83-15.26.63-25.88-1.7-30.77-12.8-4.67-10.59-.68-21.94,10.21-29l-5.67-12.88,7.91-3.49,5.45,12.38a37.14,37.14,0,0,1,18.55-2.84l.52,9.82a33.67,33.67,0,0,0-18,2.75c-9.83,4.32-10.94,11.82-8.69,16.92,2.92,6.64,9.1,7.88,22.22,7.58,15.5-.43,25.06,3.28,30.06,14.64,4.44,10.08,1.58,22.61-10.61,30.56l5.85,13.27Z" transform="translate(-91.67 -69.33)"/><path class="cls-2" d="M91.67,929.38l48.8-91s59.53,5.09,86.85,74.08c16.94,42.76,74.43,64.94,74.43,64.94l-49.06,91.52s-75-20.09-93.58-69.3C139.51,947.55,91.67,929.38,91.67,929.38Z" transform="translate(-91.67 -69.33)"/><path class="cls-4" d="M225.42,984.9c-16.18,13.6-42.16,9.32-58-9.55s-15.62-45.2.56-58.8,42.16-9.32,58,9.55S241.6,971.3,225.42,984.9Z" transform="translate(-91.67 -69.33)"/><path class="cls-2" d="M2027.12,338.47l-68.69-77.14s25.26-54.15,99.44-56.07c46-1.19,86.58-47.54,86.58-47.54l69.05,77.55s-44.68,63.55-97.26,64C2060.63,299.8,2027.12,338.47,2027.12,338.47Z" transform="translate(-91.67 -69.33)"/><path class="cls-4" d="M2125.26,232c7.2,19.87-5.75,42.78-28.93,51.19s-47.82-.89-55-20.76,5.75-42.79,28.93-51.19S2118.05,212.12,2125.26,232Z" transform="translate(-91.67 -69.33)"/><path class="cls-2" d="M2478.29,1495l11.21-83.53s46.94-13.16,87.58,31.72c25.18,27.82,75.46,28.31,75.46,28.31l-11.27,84s-63.09,6.14-91.35-26.15C2520,1495.19,2478.29,1495,2478.29,1495Z" transform="translate(-91.67 -69.33)"/><path class="cls-4" d="M2596.37,1499.12c-8.46,15-29.53,19.2-47.06,9.32s-24.87-30.06-16.41-45.09,29.54-19.19,47.07-9.31S2604.84,1484.1,2596.37,1499.12Z" transform="translate(-91.67 -69.33)"/><path class="cls-2" d="M1398.58,725.79,1387,639.53s-48.48-13.59-90.44,32.76c-26,28.73-77.94,29.24-77.94,29.24l11.65,86.71s65.15,6.35,94.33-27C1355.46,726,1398.58,725.79,1398.58,725.79Z" transform="translate(-91.67 -69.33)"/><path class="cls-4" d="M1276.63,730c8.74,15.52,30.5,19.83,48.61,9.63s25.68-31,16.94-46.57-30.51-19.82-48.61-9.62S1267.89,714.53,1276.63,730Z" transform="translate(-91.67 -69.33)"/><rect class="cls-4" x="504.5" y="1368.3" width="506.8" height="162.58" rx="35.12"/><path class="cls-23" d="M753.6,1496.06v45.74a22.32,22.32,0,0,1-22.32,22.32h-86.5a22.32,22.32,0,0,1-22.31-22.32v-45.74a22.31,22.31,0,0,1,22.31-22.32h86.5a22.34,22.34,0,0,1,22.32,22.32Z" transform="translate(-91.67 -69.33)"/><path class="cls-19" d="M929.91,1537.53H786.38a18.61,18.61,0,0,1-18.61-18.6h0a18.61,18.61,0,0,1,18.61-18.61H929.91a18.61,18.61,0,0,1,18.61,18.61h0A18.61,18.61,0,0,1,929.91,1537.53Z" transform="translate(-91.67 -69.33)"/><path class="cls-6" d="M1058.07,1537.53H986.14a18.6,18.6,0,0,1-18.6-18.6h0a18.61,18.61,0,0,1,18.6-18.61h71.93a18.61,18.61,0,0,1,18.6,18.61h0A18.6,18.6,0,0,1,1058.07,1537.53Z" transform="translate(-91.67 -69.33)"/><path class="cls-13" d="M744.69,1478.23l-112.21,82.19a22.29,22.29,0,0,1-10-18.62v-45.74a22.31,22.31,0,0,1,22.31-22.32h86.5A22.17,22.17,0,0,1,744.69,1478.23Z" transform="translate(-91.67 -69.33)"/><circle class="cls-24" cx="709.57" cy="1538.4" r="15.01" transform="translate(-136.55 -47.83) rotate(-1.68)"/><path class="cls-19" d="M742.4,1538.4a15,15,0,1,1-15-15A15,15,0,0,1,742.4,1538.4Z" transform="translate(-91.67 -69.33)"/><rect class="cls-4" x="504.5" y="1565.29" width="506.8" height="162.58" rx="35.12"/><path class="cls-17" d="M753.6,1693v45.74a22.32,22.32,0,0,1-22.32,22.32h-86.5a22.32,22.32,0,0,1-22.31-22.32V1693a22.31,22.31,0,0,1,22.31-22.32h86.5A22.34,22.34,0,0,1,753.6,1693Z" transform="translate(-91.67 -69.33)"/><path class="cls-19" d="M929.91,1734.52H786.38a18.61,18.61,0,0,1-18.61-18.61h0a18.61,18.61,0,0,1,18.61-18.61H929.91a18.61,18.61,0,0,1,18.61,18.61h0A18.61,18.61,0,0,1,929.91,1734.52Z" transform="translate(-91.67 -69.33)"/><path class="cls-6" d="M1058.07,1734.52H986.14a18.61,18.61,0,0,1-18.6-18.61h0a18.61,18.61,0,0,1,18.6-18.61h71.93a18.61,18.61,0,0,1,18.6,18.61h0A18.61,18.61,0,0,1,1058.07,1734.52Z" transform="translate(-91.67 -69.33)"/><path class="cls-18" d="M744.69,1675.21,632.48,1757.4a22.29,22.29,0,0,1-10-18.62V1693a22.31,22.31,0,0,1,22.31-22.32h86.5A22.17,22.17,0,0,1,744.69,1675.21Z" transform="translate(-91.67 -69.33)"/><path class="cls-13" d="M724.58,1735.38a15,15,0,1,1-15-15A15,15,0,0,1,724.58,1735.38Z" transform="translate(-91.67 -69.33)"/><path class="cls-19" d="M742.4,1735.38a15,15,0,1,1-15-15A15,15,0,0,1,742.4,1735.38Z" transform="translate(-91.67 -69.33)"/></g></g></svg>